M48
; DRILL file {KiCad 5.99.0-unknown-71ab42e60~106~ubuntu18.04.1} date Wed Jan  6 07:49:44 2021
; FORMAT={-:-/ absolute / inch / decimal}
; #@! TF.CreationDate,2021-01-06T07:49:44+01:00
; #@! TF.GenerationSoftware,Kicad,Pcbnew,5.99.0-unknown-71ab42e60~106~ubuntu18.04.1
FMAT,2
INCH
T1C0.0157
T2C0.0315
T3C0.0394
T4C0.0400
T5C0.0433
T6C0.0472
T7C0.0591
T8C0.0787
T9C0.1260
%
G90
G05
T1
X2.373Y-3.3488
X2.6013Y-2.5378
X2.7037Y-2.7661
X2.7037Y-2.8843
X2.7588Y-2.7268
X2.8612Y-3.0024
X2.9084Y-2.4984
X3.1604Y-2.9394
X3.2313Y-2.6795
X3.2785Y-2.7268
X3.3257Y-2.152
X3.3257Y-2.7661
X3.3415Y-2.5496
X3.3651Y-2.2386
X3.436Y-2.6953
X3.436Y-2.9472
X3.4832Y-2.4906
X3.4832Y-2.6638
X3.5147Y-2.152
X3.5541Y-2.5063
X3.8572Y-2.6047
T2
X2.373Y-3.1362
X2.4202Y-2.4433
X3.0732Y-2.1953
X3.1516Y-2.1953
X3.4517Y-2.0654
T3
X4.2253Y-3.1776
X4.2313Y-3.5378
X4.3297Y-2.2127
X4.3297Y-2.7835
X4.3313Y-3.5378
X4.4281Y-2.7835
X4.4313Y-3.5378
X4.5265Y-2.2127
X4.5265Y-2.7835
X4.5313Y-3.5378
X4.6309Y-3.1776
X4.6313Y-3.5378
T4
X2.1018Y-2.3887
X2.1018Y-2.4887
X2.1018Y-2.5887
X2.1018Y-2.6887
X2.1018Y-2.7887
X2.2018Y-2.3887
X2.2018Y-2.4887
X2.2018Y-2.5887
X2.2018Y-2.6887
X2.2018Y-2.7887
T5
X2.4694Y-3.5846
X2.4694Y-3.7618
X2.7253Y-3.5846
X2.7253Y-3.7618
X2.9025Y-3.5846
X2.9025Y-3.7618
X3.1584Y-3.5846
X3.1584Y-3.7618
X3.3356Y-3.5846
X3.3356Y-3.7618
X3.5915Y-3.5846
X3.5915Y-3.7618
X3.7687Y-3.5846
X3.7687Y-3.7618
X4.0246Y-3.5846
X4.0246Y-3.7618
T6
X4.2253Y-3.0319
X4.2253Y-3.2878
X4.6309Y-3.0319
X4.6309Y-3.2878
T8
X2.5679Y-2.2024
X3.9261Y-3.2457
T7
G00X2.4498Y-2.0154
M15
G01X2.4498Y-2.1138
M16
G05
G00X2.4498Y-2.8028
M15
G01X2.4498Y-2.9012
M16
G05
G00X4.0442Y-2.0154
M15
G01X4.0442Y-2.1138
M16
G05
G00X4.0442Y-2.8028
M15
G01X4.0442Y-2.9012
M16
G05
T8
G00X4.2076Y-2.4981
M15
G01X4.2076Y-2.4784
M16
G05
G00X4.6486Y-2.4981
M15
G01X4.6486Y-2.4784
M16
G05
T9
G00X2.1039Y-2.0185
M15
G01X2.0331Y-2.0185
M16
G05
G00X2.0331Y-3.7185
M15
G01X2.1039Y-3.7185
M16
G05
G00X4.5331Y-2.0185
M15
G01X4.6039Y-2.0185
M16
G05
G00X4.5331Y-3.7185
M15
G01X4.6039Y-3.7185
M16
G05
T0
M30
