%TF.GenerationSoftware,KiCad,Pcbnew,5.99.0-unknown-71ab42e60~106~ubuntu18.04.1*%
%TF.CreationDate,2021-01-06T07:49:34+01:00*%
%TF.ProjectId,tosta,746f7374-612e-46b6-9963-61645f706362,A*%
%TF.SameCoordinates,Original*%
%TF.FileFunction,Soldermask,Top*%
%TF.FilePolarity,Negative*%
%FSLAX46Y46*%
G04 Gerber Fmt 4.6, Leading zero omitted, Abs format (unit mm)*
G04 Created by KiCad (PCBNEW 5.99.0-unknown-71ab42e60~106~ubuntu18.04.1) date 2021-01-06 07:49:34*
%MOMM*%
%LPD*%
G01*
G04 APERTURE LIST*
G04 Aperture macros list*
%AMRoundRect*
0 Rectangle with rounded corners*
0 $1 Rounding radius*
0 $2 $3 $4 $5 $6 $7 $8 $9 X,Y pos of 4 corners*
0 Add a 4 corners polygon primitive as box body*
4,1,4,$2,$3,$4,$5,$6,$7,$8,$9,$2,$3,0*
0 Add four circle primitives for the rounded corners*
1,1,$1+$1,$2,$3,0*
1,1,$1+$1,$4,$5,0*
1,1,$1+$1,$6,$7,0*
1,1,$1+$1,$8,$9,0*
0 Add four rect primitives between the rounded corners*
20,1,$1+$1,$2,$3,$4,$5,0*
20,1,$1+$1,$4,$5,$6,$7,0*
20,1,$1+$1,$6,$7,$8,$9,0*
20,1,$1+$1,$8,$9,$2,$3,0*%
G04 Aperture macros list end*
%ADD10R,0.600000X3.000000*%
%ADD11RoundRect,0.243750X0.456250X-0.243750X0.456250X0.243750X-0.456250X0.243750X-0.456250X-0.243750X0*%
%ADD12C,2.000000*%
%ADD13R,2.000000X2.000000*%
%ADD14R,2.500000X3.000000*%
%ADD15O,5.000000X3.200000*%
%ADD16C,1.800000*%
%ADD17R,1.727200X1.727200*%
%ADD18O,1.727200X1.727200*%
%ADD19R,1.700000X1.700000*%
%ADD20O,1.700000X1.700000*%
G04 APERTURE END LIST*
D10*
X78473864Y-52440000D03*
X79473864Y-52440000D03*
X80473864Y-52440000D03*
X81473864Y-52440000D03*
X82473864Y-52440000D03*
X83473864Y-52440000D03*
X84473864Y-52440000D03*
X85473864Y-52440000D03*
X86473864Y-52440000D03*
D11*
X101213864Y-63967000D03*
X101213864Y-62092000D03*
X101213864Y-77067000D03*
X101213864Y-75192000D03*
X63713864Y-77067000D03*
X63713864Y-75192000D03*
X63713864Y-63967000D03*
X63713864Y-62092000D03*
D12*
X69223864Y-91050000D03*
X62723864Y-91050000D03*
X69223864Y-95550000D03*
X62723864Y-95550000D03*
X91223864Y-91050000D03*
X84723864Y-91050000D03*
X91223864Y-95550000D03*
X84723864Y-95550000D03*
X102223864Y-91050000D03*
X95723864Y-91050000D03*
X102223864Y-95550000D03*
X95723864Y-95550000D03*
X80223864Y-91050000D03*
X73723864Y-91050000D03*
X80223864Y-95550000D03*
X73723864Y-95550000D03*
D13*
X109973864Y-70702102D03*
D12*
X114973864Y-70702102D03*
X112473864Y-70702102D03*
D14*
X106873864Y-63202102D03*
X118073864Y-63202102D03*
D12*
X109973864Y-56202102D03*
X114973864Y-56202102D03*
D13*
X51323864Y-86660000D03*
X51323864Y-79660000D03*
X58323864Y-86660000D03*
X58323864Y-79660000D03*
D15*
X116040000Y-94450000D03*
G36*
X59823864Y-63210001D02*
G01*
X59823864Y-63710000D01*
X59818897Y-63710000D01*
X59817432Y-63789941D01*
X59775157Y-63925256D01*
X59696602Y-64043266D01*
X59588083Y-64134486D01*
X59458323Y-64191581D01*
X59323863Y-64209164D01*
X59323863Y-64210000D01*
X58823864Y-64210000D01*
X58823864Y-64209164D01*
X58817755Y-64209963D01*
X58677678Y-64188152D01*
X58549353Y-64127903D01*
X58443095Y-64034059D01*
X58367447Y-63914164D01*
X58328490Y-63777857D01*
X58328905Y-63710000D01*
X58323864Y-63710000D01*
X58323864Y-63210000D01*
X59823864Y-63210001D01*
G37*
G36*
X58328905Y-62410000D02*
G01*
X58329356Y-62336095D01*
X58369975Y-62200274D01*
X58447082Y-62081312D01*
X58554479Y-61988774D01*
X58683532Y-61930097D01*
X58823865Y-61910000D01*
X59323864Y-61910000D01*
X59336080Y-61910149D01*
X59475881Y-61933669D01*
X59603460Y-61995482D01*
X59708564Y-62090617D01*
X59782741Y-62211427D01*
X59820030Y-62348200D01*
X59818897Y-62410000D01*
X59823864Y-62410000D01*
X59823864Y-62910000D01*
X58323864Y-62909999D01*
X58323864Y-62410000D01*
X58328905Y-62410000D01*
G37*
D12*
X107323864Y-77010000D03*
D16*
X107323864Y-80710000D03*
D12*
X117623864Y-77010000D03*
X107323864Y-83510000D03*
D16*
X117623864Y-80710000D03*
D12*
X117623864Y-83510000D03*
G36*
X59823864Y-68010001D02*
G01*
X59823864Y-68510000D01*
X59818897Y-68510000D01*
X59817432Y-68589941D01*
X59775157Y-68725256D01*
X59696602Y-68843266D01*
X59588083Y-68934486D01*
X59458323Y-68991581D01*
X59323863Y-69009164D01*
X59323863Y-69010000D01*
X58823864Y-69010000D01*
X58823864Y-69009164D01*
X58817755Y-69009963D01*
X58677678Y-68988152D01*
X58549353Y-68927903D01*
X58443095Y-68834059D01*
X58367447Y-68714164D01*
X58328490Y-68577857D01*
X58328905Y-68510000D01*
X58323864Y-68510000D01*
X58323864Y-68010000D01*
X59823864Y-68010001D01*
G37*
G36*
X58328905Y-67210000D02*
G01*
X58329356Y-67136095D01*
X58369975Y-67000274D01*
X58447082Y-66881312D01*
X58554479Y-66788774D01*
X58683532Y-66730097D01*
X58823865Y-66710000D01*
X59323864Y-66710000D01*
X59336080Y-66710149D01*
X59475881Y-66733669D01*
X59603460Y-66795482D01*
X59708564Y-66890617D01*
X59782741Y-67011427D01*
X59820030Y-67148200D01*
X59818897Y-67210000D01*
X59823864Y-67210000D01*
X59823864Y-67710000D01*
X58323864Y-67709999D01*
X58323864Y-67210000D01*
X58328905Y-67210000D01*
G37*
D15*
X116040000Y-51270000D03*
G36*
X51223864Y-63210001D02*
G01*
X51223864Y-63710000D01*
X51218897Y-63710000D01*
X51217432Y-63789941D01*
X51175157Y-63925256D01*
X51096602Y-64043266D01*
X50988083Y-64134486D01*
X50858323Y-64191581D01*
X50723863Y-64209164D01*
X50723863Y-64210000D01*
X50223864Y-64210000D01*
X50223864Y-64209164D01*
X50217755Y-64209963D01*
X50077678Y-64188152D01*
X49949353Y-64127903D01*
X49843095Y-64034059D01*
X49767447Y-63914164D01*
X49728490Y-63777857D01*
X49728905Y-63710000D01*
X49723864Y-63710000D01*
X49723864Y-63210000D01*
X51223864Y-63210001D01*
G37*
G36*
X49728905Y-62410000D02*
G01*
X49729356Y-62336095D01*
X49769975Y-62200274D01*
X49847082Y-62081312D01*
X49954479Y-61988774D01*
X50083532Y-61930097D01*
X50223865Y-61910000D01*
X50723864Y-61910000D01*
X50736080Y-61910149D01*
X50875881Y-61933669D01*
X51003460Y-61995482D01*
X51108564Y-62090617D01*
X51182741Y-62211427D01*
X51220030Y-62348200D01*
X51218897Y-62410000D01*
X51223864Y-62410000D01*
X51223864Y-62910000D01*
X49723864Y-62909999D01*
X49723864Y-62410000D01*
X49728905Y-62410000D01*
G37*
X52540000Y-51270000D03*
G36*
X51223864Y-68060001D02*
G01*
X51223864Y-68560000D01*
X51218897Y-68560000D01*
X51217432Y-68639941D01*
X51175157Y-68775256D01*
X51096602Y-68893266D01*
X50988083Y-68984486D01*
X50858323Y-69041581D01*
X50723863Y-69059164D01*
X50723863Y-69060000D01*
X50223864Y-69060000D01*
X50223864Y-69059164D01*
X50217755Y-69059963D01*
X50077678Y-69038152D01*
X49949353Y-68977903D01*
X49843095Y-68884059D01*
X49767447Y-68764164D01*
X49728490Y-68627857D01*
X49728905Y-68560000D01*
X49723864Y-68560000D01*
X49723864Y-68060000D01*
X51223864Y-68060001D01*
G37*
G36*
X49728905Y-67260000D02*
G01*
X49729356Y-67186095D01*
X49769975Y-67050274D01*
X49847082Y-66931312D01*
X49954479Y-66838774D01*
X50083532Y-66780097D01*
X50223865Y-66760000D01*
X50723864Y-66760000D01*
X50736080Y-66760149D01*
X50875881Y-66783669D01*
X51003460Y-66845482D01*
X51108564Y-66940617D01*
X51182741Y-67061427D01*
X51220030Y-67198200D01*
X51218897Y-67260000D01*
X51223864Y-67260000D01*
X51223864Y-67760000D01*
X49723864Y-67759999D01*
X49723864Y-67260000D01*
X49728905Y-67260000D01*
G37*
X52540000Y-94450000D03*
D17*
X55924864Y-60672500D03*
D18*
X53384864Y-60672500D03*
X55924864Y-63212500D03*
X53384864Y-63212500D03*
X55924864Y-65752500D03*
X53384864Y-65752500D03*
X55924864Y-68292500D03*
X53384864Y-68292500D03*
X55924864Y-70832500D03*
X53384864Y-70832500D03*
D19*
X107473864Y-89860000D03*
D20*
X110013864Y-89860000D03*
X112553864Y-89860000D03*
X115093864Y-89860000D03*
X117633864Y-89860000D03*
M02*
