%TF.GenerationSoftware,KiCad,Pcbnew,5.99.0-unknown-71ab42e60~106~ubuntu18.04.1*%
%TF.CreationDate,2021-01-06T07:49:34+01:00*%
%TF.ProjectId,tosta,746f7374-612e-46b6-9963-61645f706362,A*%
%TF.SameCoordinates,Original*%
%TF.FileFunction,Legend,Top*%
%TF.FilePolarity,Positive*%
%FSLAX46Y46*%
G04 Gerber Fmt 4.6, Leading zero omitted, Abs format (unit mm)*
G04 Created by KiCad (PCBNEW 5.99.0-unknown-71ab42e60~106~ubuntu18.04.1) date 2021-01-06 07:49:34*
%MOMM*%
%LPD*%
G01*
G04 APERTURE LIST*
G04 Aperture macros list*
%AMRoundRect*
0 Rectangle with rounded corners*
0 $1 Rounding radius*
0 $2 $3 $4 $5 $6 $7 $8 $9 X,Y pos of 4 corners*
0 Add a 4 corners polygon primitive as box body*
4,1,4,$2,$3,$4,$5,$6,$7,$8,$9,$2,$3,0*
0 Add four circle primitives for the rounded corners*
1,1,$1+$1,$2,$3,0*
1,1,$1+$1,$4,$5,0*
1,1,$1+$1,$6,$7,0*
1,1,$1+$1,$8,$9,0*
0 Add four rect primitives between the rounded corners*
20,1,$1+$1,$2,$3,$4,$5,0*
20,1,$1+$1,$4,$5,$6,$7,0*
20,1,$1+$1,$6,$7,$8,$9,0*
20,1,$1+$1,$8,$9,$2,$3,0*%
G04 Aperture macros list end*
%ADD10C,0.120000*%
%ADD11C,0.150000*%
%ADD12R,0.600000X3.000000*%
%ADD13RoundRect,0.243750X0.456250X-0.243750X0.456250X0.243750X-0.456250X0.243750X-0.456250X-0.243750X0*%
%ADD14C,2.000000*%
%ADD15R,2.000000X2.000000*%
%ADD16R,2.500000X3.000000*%
%ADD17O,5.000000X3.200000*%
%ADD18C,1.800000*%
%ADD19R,1.727200X1.727200*%
%ADD20O,1.727200X1.727200*%
%ADD21R,1.700000X1.700000*%
%ADD22O,1.700000X1.700000*%
G04 APERTURE END LIST*
D10*
X103160000Y-61460000D02*
X104160000Y-61460000D01*
X61360000Y-74160000D02*
X61360000Y-75160000D01*
X102960000Y-74660000D02*
X103960000Y-74660000D01*
X103460000Y-74160000D02*
X103460000Y-75160000D01*
X103660000Y-60960000D02*
X103660000Y-61960000D01*
X60860000Y-74660000D02*
X61860000Y-74660000D01*
X60960000Y-60460000D02*
X61960000Y-60460000D01*
X61460000Y-59960000D02*
X61460000Y-60960000D01*
D11*
X64764761Y-50621904D02*
X64764761Y-51193333D01*
X64726666Y-51307619D01*
X64650476Y-51383809D01*
X64536190Y-51421904D01*
X64460000Y-51421904D01*
X65526666Y-51421904D02*
X65145714Y-51421904D01*
X65145714Y-50621904D01*
X66250476Y-51345714D02*
X66212380Y-51383809D01*
X66098095Y-51421904D01*
X66021904Y-51421904D01*
X65907619Y-51383809D01*
X65831428Y-51307619D01*
X65793333Y-51231428D01*
X65755238Y-51079047D01*
X65755238Y-50964761D01*
X65793333Y-50812380D01*
X65831428Y-50736190D01*
X65907619Y-50660000D01*
X66021904Y-50621904D01*
X66098095Y-50621904D01*
X66212380Y-50660000D01*
X66250476Y-50698095D01*
X66821904Y-50621904D02*
X66821904Y-51193333D01*
X66783809Y-51307619D01*
X66707619Y-51383809D01*
X66593333Y-51421904D01*
X66517142Y-51421904D01*
X67583809Y-51421904D02*
X67202857Y-51421904D01*
X67202857Y-50621904D01*
X68307619Y-51345714D02*
X68269523Y-51383809D01*
X68155238Y-51421904D01*
X68079047Y-51421904D01*
X67964761Y-51383809D01*
X67888571Y-51307619D01*
X67850476Y-51231428D01*
X67812380Y-51079047D01*
X67812380Y-50964761D01*
X67850476Y-50812380D01*
X67888571Y-50736190D01*
X67964761Y-50660000D01*
X68079047Y-50621904D01*
X68155238Y-50621904D01*
X68269523Y-50660000D01*
X68307619Y-50698095D01*
X68879047Y-50621904D02*
X68879047Y-51193333D01*
X68840952Y-51307619D01*
X68764761Y-51383809D01*
X68650476Y-51421904D01*
X68574285Y-51421904D01*
X69640952Y-51421904D02*
X69260000Y-51421904D01*
X69260000Y-50621904D01*
X70364761Y-51345714D02*
X70326666Y-51383809D01*
X70212380Y-51421904D01*
X70136190Y-51421904D01*
X70021904Y-51383809D01*
X69945714Y-51307619D01*
X69907619Y-51231428D01*
X69869523Y-51079047D01*
X69869523Y-50964761D01*
X69907619Y-50812380D01*
X69945714Y-50736190D01*
X70021904Y-50660000D01*
X70136190Y-50621904D01*
X70212380Y-50621904D01*
X70326666Y-50660000D01*
X70364761Y-50698095D01*
X70936190Y-50621904D02*
X70936190Y-51193333D01*
X70898095Y-51307619D01*
X70821904Y-51383809D01*
X70707619Y-51421904D01*
X70631428Y-51421904D01*
X71698095Y-51421904D02*
X71317142Y-51421904D01*
X71317142Y-50621904D01*
X72421904Y-51345714D02*
X72383809Y-51383809D01*
X72269523Y-51421904D01*
X72193333Y-51421904D01*
X72079047Y-51383809D01*
X72002857Y-51307619D01*
X71964761Y-51231428D01*
X71926666Y-51079047D01*
X71926666Y-50964761D01*
X71964761Y-50812380D01*
X72002857Y-50736190D01*
X72079047Y-50660000D01*
X72193333Y-50621904D01*
X72269523Y-50621904D01*
X72383809Y-50660000D01*
X72421904Y-50698095D01*
X63048095Y-48312380D02*
X63048095Y-49121904D01*
X63095714Y-49217142D01*
X63143333Y-49264761D01*
X63238571Y-49312380D01*
X63429047Y-49312380D01*
X63524285Y-49264761D01*
X63571904Y-49217142D01*
X63619523Y-49121904D01*
X63619523Y-48312380D01*
X64048095Y-48407619D02*
X64095714Y-48360000D01*
X64190952Y-48312380D01*
X64429047Y-48312380D01*
X64524285Y-48360000D01*
X64571904Y-48407619D01*
X64619523Y-48502857D01*
X64619523Y-48598095D01*
X64571904Y-48740952D01*
X64000476Y-49312380D01*
X64619523Y-49312380D01*
X102871904Y-63512380D02*
X102871904Y-62512380D01*
X103110000Y-62512380D01*
X103252857Y-62560000D01*
X103348095Y-62655238D01*
X103395714Y-62750476D01*
X103443333Y-62940952D01*
X103443333Y-63083809D01*
X103395714Y-63274285D01*
X103348095Y-63369523D01*
X103252857Y-63464761D01*
X103110000Y-63512380D01*
X102871904Y-63512380D01*
X103776666Y-62512380D02*
X104395714Y-62512380D01*
X104062380Y-62893333D01*
X104205238Y-62893333D01*
X104300476Y-62940952D01*
X104348095Y-62988571D01*
X104395714Y-63083809D01*
X104395714Y-63321904D01*
X104348095Y-63417142D01*
X104300476Y-63464761D01*
X104205238Y-63512380D01*
X103919523Y-63512380D01*
X103824285Y-63464761D01*
X103776666Y-63417142D01*
X102771904Y-76562380D02*
X102771904Y-75562380D01*
X103010000Y-75562380D01*
X103152857Y-75610000D01*
X103248095Y-75705238D01*
X103295714Y-75800476D01*
X103343333Y-75990952D01*
X103343333Y-76133809D01*
X103295714Y-76324285D01*
X103248095Y-76419523D01*
X103152857Y-76514761D01*
X103010000Y-76562380D01*
X102771904Y-76562380D01*
X103724285Y-75657619D02*
X103771904Y-75610000D01*
X103867142Y-75562380D01*
X104105238Y-75562380D01*
X104200476Y-75610000D01*
X104248095Y-75657619D01*
X104295714Y-75752857D01*
X104295714Y-75848095D01*
X104248095Y-75990952D01*
X103676666Y-76562380D01*
X104295714Y-76562380D01*
X60621904Y-76612380D02*
X60621904Y-75612380D01*
X60860000Y-75612380D01*
X61002857Y-75660000D01*
X61098095Y-75755238D01*
X61145714Y-75850476D01*
X61193333Y-76040952D01*
X61193333Y-76183809D01*
X61145714Y-76374285D01*
X61098095Y-76469523D01*
X61002857Y-76564761D01*
X60860000Y-76612380D01*
X60621904Y-76612380D01*
X62145714Y-76612380D02*
X61574285Y-76612380D01*
X61860000Y-76612380D02*
X61860000Y-75612380D01*
X61764761Y-75755238D01*
X61669523Y-75850476D01*
X61574285Y-75898095D01*
X60621904Y-64412380D02*
X60621904Y-63412380D01*
X60860000Y-63412380D01*
X61002857Y-63460000D01*
X61098095Y-63555238D01*
X61145714Y-63650476D01*
X61193333Y-63840952D01*
X61193333Y-63983809D01*
X61145714Y-64174285D01*
X61098095Y-64269523D01*
X61002857Y-64364761D01*
X60860000Y-64412380D01*
X60621904Y-64412380D01*
X62050476Y-63745714D02*
X62050476Y-64412380D01*
X61812380Y-63364761D02*
X61574285Y-64079047D01*
X62193333Y-64079047D01*
X64640530Y-89454761D02*
X64783387Y-89502380D01*
X65021483Y-89502380D01*
X65116721Y-89454761D01*
X65164340Y-89407142D01*
X65211959Y-89311904D01*
X65211959Y-89216666D01*
X65164340Y-89121428D01*
X65116721Y-89073809D01*
X65021483Y-89026190D01*
X64831006Y-88978571D01*
X64735768Y-88930952D01*
X64688149Y-88883333D01*
X64640530Y-88788095D01*
X64640530Y-88692857D01*
X64688149Y-88597619D01*
X64735768Y-88550000D01*
X64831006Y-88502380D01*
X65069102Y-88502380D01*
X65211959Y-88550000D01*
X65545292Y-88502380D02*
X65783387Y-89502380D01*
X65973864Y-88788095D01*
X66164340Y-89502380D01*
X66402435Y-88502380D01*
X67307197Y-89502380D02*
X66735768Y-89502380D01*
X67021483Y-89502380D02*
X67021483Y-88502380D01*
X66926244Y-88645238D01*
X66831006Y-88740476D01*
X66735768Y-88788095D01*
X86640530Y-89454761D02*
X86783387Y-89502380D01*
X87021483Y-89502380D01*
X87116721Y-89454761D01*
X87164340Y-89407142D01*
X87211959Y-89311904D01*
X87211959Y-89216666D01*
X87164340Y-89121428D01*
X87116721Y-89073809D01*
X87021483Y-89026190D01*
X86831006Y-88978571D01*
X86735768Y-88930952D01*
X86688149Y-88883333D01*
X86640530Y-88788095D01*
X86640530Y-88692857D01*
X86688149Y-88597619D01*
X86735768Y-88550000D01*
X86831006Y-88502380D01*
X87069102Y-88502380D01*
X87211959Y-88550000D01*
X87545292Y-88502380D02*
X87783387Y-89502380D01*
X87973864Y-88788095D01*
X88164340Y-89502380D01*
X88402435Y-88502380D01*
X88688149Y-88502380D02*
X89307197Y-88502380D01*
X88973864Y-88883333D01*
X89116721Y-88883333D01*
X89211959Y-88930952D01*
X89259578Y-88978571D01*
X89307197Y-89073809D01*
X89307197Y-89311904D01*
X89259578Y-89407142D01*
X89211959Y-89454761D01*
X89116721Y-89502380D01*
X88831006Y-89502380D01*
X88735768Y-89454761D01*
X88688149Y-89407142D01*
X97640530Y-89454761D02*
X97783387Y-89502380D01*
X98021483Y-89502380D01*
X98116721Y-89454761D01*
X98164340Y-89407142D01*
X98211959Y-89311904D01*
X98211959Y-89216666D01*
X98164340Y-89121428D01*
X98116721Y-89073809D01*
X98021483Y-89026190D01*
X97831006Y-88978571D01*
X97735768Y-88930952D01*
X97688149Y-88883333D01*
X97640530Y-88788095D01*
X97640530Y-88692857D01*
X97688149Y-88597619D01*
X97735768Y-88550000D01*
X97831006Y-88502380D01*
X98069102Y-88502380D01*
X98211959Y-88550000D01*
X98545292Y-88502380D02*
X98783387Y-89502380D01*
X98973864Y-88788095D01*
X99164340Y-89502380D01*
X99402435Y-88502380D01*
X100211959Y-88835714D02*
X100211959Y-89502380D01*
X99973864Y-88454761D02*
X99735768Y-89169047D01*
X100354816Y-89169047D01*
X75640530Y-89454761D02*
X75783387Y-89502380D01*
X76021483Y-89502380D01*
X76116721Y-89454761D01*
X76164340Y-89407142D01*
X76211959Y-89311904D01*
X76211959Y-89216666D01*
X76164340Y-89121428D01*
X76116721Y-89073809D01*
X76021483Y-89026190D01*
X75831006Y-88978571D01*
X75735768Y-88930952D01*
X75688149Y-88883333D01*
X75640530Y-88788095D01*
X75640530Y-88692857D01*
X75688149Y-88597619D01*
X75735768Y-88550000D01*
X75831006Y-88502380D01*
X76069102Y-88502380D01*
X76211959Y-88550000D01*
X76545292Y-88502380D02*
X76783387Y-89502380D01*
X76973864Y-88788095D01*
X77164340Y-89502380D01*
X77402435Y-88502380D01*
X77735768Y-88597619D02*
X77783387Y-88550000D01*
X77878625Y-88502380D01*
X78116721Y-88502380D01*
X78211959Y-88550000D01*
X78259578Y-88597619D01*
X78307197Y-88692857D01*
X78307197Y-88788095D01*
X78259578Y-88930952D01*
X77688149Y-89502380D01*
X78307197Y-89502380D01*
X105359578Y-71200673D02*
X105692911Y-71200673D01*
X105835768Y-71724482D02*
X105359578Y-71724482D01*
X105359578Y-70724482D01*
X105835768Y-70724482D01*
X106264340Y-71724482D02*
X106264340Y-70724482D01*
X106835768Y-71724482D01*
X106835768Y-70724482D01*
X107835768Y-71724482D02*
X107264340Y-71724482D01*
X107550054Y-71724482D02*
X107550054Y-70724482D01*
X107454816Y-70867340D01*
X107359578Y-70962578D01*
X107264340Y-71010197D01*
X54181006Y-89112380D02*
X53704816Y-89112380D01*
X53704816Y-88112380D01*
X54466721Y-89064761D02*
X54609578Y-89112380D01*
X54847673Y-89112380D01*
X54942911Y-89064761D01*
X54990530Y-89017142D01*
X55038149Y-88921904D01*
X55038149Y-88826666D01*
X54990530Y-88731428D01*
X54942911Y-88683809D01*
X54847673Y-88636190D01*
X54657197Y-88588571D01*
X54561959Y-88540952D01*
X54514340Y-88493333D01*
X54466721Y-88398095D01*
X54466721Y-88302857D01*
X54514340Y-88207619D01*
X54561959Y-88160000D01*
X54657197Y-88112380D01*
X54895292Y-88112380D01*
X55038149Y-88160000D01*
X55990530Y-89112380D02*
X55419102Y-89112380D01*
X55704816Y-89112380D02*
X55704816Y-88112380D01*
X55609578Y-88255238D01*
X55514340Y-88350476D01*
X55419102Y-88398095D01*
X58230530Y-64912380D02*
X58230530Y-65626666D01*
X58182911Y-65769523D01*
X58087673Y-65864761D01*
X57944816Y-65912380D01*
X57849578Y-65912380D01*
X58706721Y-65912380D02*
X58706721Y-64912380D01*
X59087673Y-64912380D01*
X59182911Y-64960000D01*
X59230530Y-65007619D01*
X59278149Y-65102857D01*
X59278149Y-65245714D01*
X59230530Y-65340952D01*
X59182911Y-65388571D01*
X59087673Y-65436190D01*
X58706721Y-65436190D01*
X60230530Y-65912380D02*
X59659102Y-65912380D01*
X59944816Y-65912380D02*
X59944816Y-64912380D01*
X59849578Y-65055238D01*
X59754340Y-65150476D01*
X59659102Y-65198095D01*
X114888149Y-86212380D02*
X114888149Y-86926666D01*
X114840530Y-87069523D01*
X114745292Y-87164761D01*
X114602435Y-87212380D01*
X114507197Y-87212380D01*
X115554816Y-86212380D02*
X115745292Y-86212380D01*
X115840530Y-86260000D01*
X115935768Y-86355238D01*
X115983387Y-86545714D01*
X115983387Y-86879047D01*
X115935768Y-87069523D01*
X115840530Y-87164761D01*
X115745292Y-87212380D01*
X115554816Y-87212380D01*
X115459578Y-87164761D01*
X115364340Y-87069523D01*
X115316721Y-86879047D01*
X115316721Y-86545714D01*
X115364340Y-86355238D01*
X115459578Y-86260000D01*
X115554816Y-86212380D01*
X116602435Y-86736190D02*
X116602435Y-87212380D01*
X116269102Y-86212380D02*
X116602435Y-86736190D01*
X116935768Y-86212380D01*
X117792911Y-87212380D02*
X117221483Y-87212380D01*
X117507197Y-87212380D02*
X117507197Y-86212380D01*
X117411959Y-86355238D01*
X117316721Y-86450476D01*
X117221483Y-86498095D01*
X58240530Y-69912380D02*
X58240530Y-70626666D01*
X58192911Y-70769523D01*
X58097673Y-70864761D01*
X57954816Y-70912380D01*
X57859578Y-70912380D01*
X58716721Y-70912380D02*
X58716721Y-69912380D01*
X59097673Y-69912380D01*
X59192911Y-69960000D01*
X59240530Y-70007619D01*
X59288149Y-70102857D01*
X59288149Y-70245714D01*
X59240530Y-70340952D01*
X59192911Y-70388571D01*
X59097673Y-70436190D01*
X58716721Y-70436190D01*
X59621483Y-69912380D02*
X60240530Y-69912380D01*
X59907197Y-70293333D01*
X60050054Y-70293333D01*
X60145292Y-70340952D01*
X60192911Y-70388571D01*
X60240530Y-70483809D01*
X60240530Y-70721904D01*
X60192911Y-70817142D01*
X60145292Y-70864761D01*
X60050054Y-70912380D01*
X59764340Y-70912380D01*
X59669102Y-70864761D01*
X59621483Y-70817142D01*
X49640530Y-64912380D02*
X49640530Y-65626666D01*
X49592911Y-65769523D01*
X49497673Y-65864761D01*
X49354816Y-65912380D01*
X49259578Y-65912380D01*
X50116721Y-65912380D02*
X50116721Y-64912380D01*
X50497673Y-64912380D01*
X50592911Y-64960000D01*
X50640530Y-65007619D01*
X50688149Y-65102857D01*
X50688149Y-65245714D01*
X50640530Y-65340952D01*
X50592911Y-65388571D01*
X50497673Y-65436190D01*
X50116721Y-65436190D01*
X51069102Y-65007619D02*
X51116721Y-64960000D01*
X51211959Y-64912380D01*
X51450054Y-64912380D01*
X51545292Y-64960000D01*
X51592911Y-65007619D01*
X51640530Y-65102857D01*
X51640530Y-65198095D01*
X51592911Y-65340952D01*
X51021483Y-65912380D01*
X51640530Y-65912380D01*
X49640530Y-70012380D02*
X49640530Y-70726666D01*
X49592911Y-70869523D01*
X49497673Y-70964761D01*
X49354816Y-71012380D01*
X49259578Y-71012380D01*
X50116721Y-71012380D02*
X50116721Y-70012380D01*
X50497673Y-70012380D01*
X50592911Y-70060000D01*
X50640530Y-70107619D01*
X50688149Y-70202857D01*
X50688149Y-70345714D01*
X50640530Y-70440952D01*
X50592911Y-70488571D01*
X50497673Y-70536190D01*
X50116721Y-70536190D01*
X51545292Y-70345714D02*
X51545292Y-71012380D01*
X51307197Y-69964761D02*
X51069102Y-70679047D01*
X51688149Y-70679047D01*
X64973864Y-77940000D02*
X62473864Y-77940000D01*
X99973864Y-73940000D02*
X99973864Y-77940000D01*
X62473864Y-49940000D02*
X102473864Y-49940000D01*
X62473864Y-60940000D02*
X64973864Y-60940000D01*
X64973864Y-60940000D02*
X64973864Y-64940000D01*
X62473864Y-49940000D02*
X62473864Y-87690000D01*
X99973864Y-77940000D02*
X102473864Y-77940000D01*
X102473864Y-73940000D02*
X99973864Y-73940000D01*
X99973864Y-60940000D02*
X99973864Y-64940000D01*
X102473864Y-49940000D02*
X102473864Y-87690000D01*
X102473864Y-60940000D02*
X99973864Y-60940000D01*
X64973864Y-64940000D02*
X62473864Y-64940000D01*
X64973864Y-73940000D02*
X64973864Y-77940000D01*
X102473864Y-87690000D02*
X62473864Y-87690000D01*
X62473864Y-73940000D02*
X64973864Y-73940000D01*
X99973864Y-64940000D02*
X102473864Y-64940000D01*
D10*
X102173864Y-64714500D02*
X102173864Y-62029500D01*
X100253864Y-62029500D02*
X100253864Y-64714500D01*
X100253864Y-64714500D02*
X102173864Y-64714500D01*
X100253864Y-75129500D02*
X100253864Y-77814500D01*
X100253864Y-77814500D02*
X102173864Y-77814500D01*
X102173864Y-77814500D02*
X102173864Y-75129500D01*
X62753864Y-77814500D02*
X64673864Y-77814500D01*
X64673864Y-77814500D02*
X64673864Y-75129500D01*
X62753864Y-75129500D02*
X62753864Y-77814500D01*
X62753864Y-64714500D02*
X64673864Y-64714500D01*
X64673864Y-64714500D02*
X64673864Y-62029500D01*
X62753864Y-62029500D02*
X62753864Y-64714500D01*
X62473864Y-92550000D02*
X62473864Y-94050000D01*
X63723864Y-96550000D02*
X68223864Y-96550000D01*
X69473864Y-94050000D02*
X69473864Y-92550000D01*
X68223864Y-90050000D02*
X63723864Y-90050000D01*
X85723864Y-96550000D02*
X90223864Y-96550000D01*
X91473864Y-94050000D02*
X91473864Y-92550000D01*
X84473864Y-92550000D02*
X84473864Y-94050000D01*
X90223864Y-90050000D02*
X85723864Y-90050000D01*
X102473864Y-94050000D02*
X102473864Y-92550000D01*
X101223864Y-90050000D02*
X96723864Y-90050000D01*
X96723864Y-96550000D02*
X101223864Y-96550000D01*
X95473864Y-92550000D02*
X95473864Y-94050000D01*
X80473864Y-94050000D02*
X80473864Y-92550000D01*
X73473864Y-92550000D02*
X73473864Y-94050000D01*
X79223864Y-90050000D02*
X74723864Y-90050000D01*
X74723864Y-96550000D02*
X79223864Y-96550000D01*
X116173864Y-56502102D02*
X118773864Y-56502102D01*
X118773864Y-65002102D02*
X118773864Y-69902102D01*
X106173864Y-61402102D02*
X106173864Y-56502102D01*
X112473864Y-63702102D02*
X112473864Y-62702102D01*
X108373864Y-71002102D02*
X108373864Y-70402102D01*
X118773864Y-56502102D02*
X118773864Y-61402102D01*
X111173864Y-56502102D02*
X113773864Y-56502102D01*
X118773864Y-69902102D02*
X115973864Y-69902102D01*
X106173864Y-56502102D02*
X108773864Y-56502102D01*
X111973864Y-63202102D02*
X112973864Y-63202102D01*
X106173864Y-69902102D02*
X108673864Y-69902102D01*
X106173864Y-65102102D02*
X106173864Y-69902102D01*
X108373864Y-70402102D02*
X108673864Y-70702102D01*
X108673864Y-70702102D02*
X108373864Y-71002102D01*
X115473864Y-63202102D02*
G75*
G03*
X115473864Y-63202102I-3000000J0D01*
G01*
X52823864Y-78910000D02*
X56823864Y-78910000D01*
X51073864Y-83160000D02*
X51573864Y-82660000D01*
X51573864Y-82660000D02*
X51573864Y-83660000D01*
X50573864Y-85160000D02*
X50573864Y-81160000D01*
X52823864Y-85160000D02*
X52823864Y-87410000D01*
X51573864Y-83660000D02*
X51073864Y-83160000D01*
X59073864Y-81160000D02*
X59073864Y-85160000D01*
X56823864Y-87410000D02*
X52823864Y-87410000D01*
X50573864Y-85160000D02*
X52823864Y-85160000D01*
X58773864Y-61660000D02*
X59373864Y-61660000D01*
X60073864Y-62360000D02*
X60073864Y-63760000D01*
X59373864Y-64460000D02*
X58773864Y-64460000D01*
X58073864Y-63760000D02*
X58073864Y-62360000D01*
X58773864Y-64460000D02*
G75*
G02*
X58073864Y-63760000I0J700000D01*
G01*
X59373864Y-61660000D02*
G75*
G02*
X60073864Y-62360000I0J-700000D01*
G01*
X58073864Y-62360000D02*
G75*
G02*
X58773864Y-61660000I700000J0D01*
G01*
X60073864Y-63760000D02*
G75*
G02*
X59373864Y-64460000I-700000J0D01*
G01*
X107473864Y-85260000D02*
X117473864Y-85260000D01*
X107473864Y-75260000D02*
X117473864Y-75260000D01*
X58773864Y-66460000D02*
X59373864Y-66460000D01*
X60073864Y-67160000D02*
X60073864Y-68560000D01*
X58073864Y-68560000D02*
X58073864Y-67160000D01*
X59373864Y-69260000D02*
X58773864Y-69260000D01*
X59373864Y-66460000D02*
G75*
G02*
X60073864Y-67160000I0J-700000D01*
G01*
X60073864Y-68560000D02*
G75*
G02*
X59373864Y-69260000I-700000J0D01*
G01*
X58073864Y-67160000D02*
G75*
G02*
X58773864Y-66460000I700000J0D01*
G01*
X58773864Y-69260000D02*
G75*
G02*
X58073864Y-68560000I0J700000D01*
G01*
X50173864Y-61660000D02*
X50773864Y-61660000D01*
X49473864Y-63760000D02*
X49473864Y-62360000D01*
X50773864Y-64460000D02*
X50173864Y-64460000D01*
X51473864Y-62360000D02*
X51473864Y-63760000D01*
X50173864Y-64460000D02*
G75*
G02*
X49473864Y-63760000I0J700000D01*
G01*
X50773864Y-61660000D02*
G75*
G02*
X51473864Y-62360000I0J-700000D01*
G01*
X49473864Y-62360000D02*
G75*
G02*
X50173864Y-61660000I700000J0D01*
G01*
X51473864Y-63760000D02*
G75*
G02*
X50773864Y-64460000I-700000J0D01*
G01*
X51473864Y-67210000D02*
X51473864Y-68610000D01*
X49473864Y-68610000D02*
X49473864Y-67210000D01*
X50173864Y-66510000D02*
X50773864Y-66510000D01*
X50773864Y-69310000D02*
X50173864Y-69310000D01*
X50773864Y-66510000D02*
G75*
G02*
X51473864Y-67210000I0J-700000D01*
G01*
X49473864Y-67210000D02*
G75*
G02*
X50173864Y-66510000I700000J0D01*
G01*
X51473864Y-68610000D02*
G75*
G02*
X50773864Y-69310000I-700000J0D01*
G01*
X50173864Y-69310000D02*
G75*
G02*
X49473864Y-68610000I0J700000D01*
G01*
%LPC*%
D12*
X78473864Y-52440000D03*
X79473864Y-52440000D03*
X80473864Y-52440000D03*
X81473864Y-52440000D03*
X82473864Y-52440000D03*
X83473864Y-52440000D03*
X84473864Y-52440000D03*
X85473864Y-52440000D03*
X86473864Y-52440000D03*
D13*
X101213864Y-63967000D03*
X101213864Y-62092000D03*
X101213864Y-77067000D03*
X101213864Y-75192000D03*
X63713864Y-77067000D03*
X63713864Y-75192000D03*
X63713864Y-63967000D03*
X63713864Y-62092000D03*
D14*
X69223864Y-91050000D03*
X62723864Y-91050000D03*
X69223864Y-95550000D03*
X62723864Y-95550000D03*
X91223864Y-91050000D03*
X84723864Y-91050000D03*
X91223864Y-95550000D03*
X84723864Y-95550000D03*
X102223864Y-91050000D03*
X95723864Y-91050000D03*
X102223864Y-95550000D03*
X95723864Y-95550000D03*
X80223864Y-91050000D03*
X73723864Y-91050000D03*
X80223864Y-95550000D03*
X73723864Y-95550000D03*
D15*
X109973864Y-70702102D03*
D14*
X114973864Y-70702102D03*
X112473864Y-70702102D03*
D16*
X106873864Y-63202102D03*
X118073864Y-63202102D03*
D14*
X109973864Y-56202102D03*
X114973864Y-56202102D03*
D15*
X51323864Y-86660000D03*
X51323864Y-79660000D03*
X58323864Y-86660000D03*
X58323864Y-79660000D03*
D17*
X116040000Y-94450000D03*
G36*
X59823864Y-63210001D02*
G01*
X59823864Y-63710000D01*
X59818897Y-63710000D01*
X59817432Y-63789941D01*
X59775157Y-63925256D01*
X59696602Y-64043266D01*
X59588083Y-64134486D01*
X59458323Y-64191581D01*
X59323863Y-64209164D01*
X59323863Y-64210000D01*
X58823864Y-64210000D01*
X58823864Y-64209164D01*
X58817755Y-64209963D01*
X58677678Y-64188152D01*
X58549353Y-64127903D01*
X58443095Y-64034059D01*
X58367447Y-63914164D01*
X58328490Y-63777857D01*
X58328905Y-63710000D01*
X58323864Y-63710000D01*
X58323864Y-63210000D01*
X59823864Y-63210001D01*
G37*
G36*
X58328905Y-62410000D02*
G01*
X58329356Y-62336095D01*
X58369975Y-62200274D01*
X58447082Y-62081312D01*
X58554479Y-61988774D01*
X58683532Y-61930097D01*
X58823865Y-61910000D01*
X59323864Y-61910000D01*
X59336080Y-61910149D01*
X59475881Y-61933669D01*
X59603460Y-61995482D01*
X59708564Y-62090617D01*
X59782741Y-62211427D01*
X59820030Y-62348200D01*
X59818897Y-62410000D01*
X59823864Y-62410000D01*
X59823864Y-62910000D01*
X58323864Y-62909999D01*
X58323864Y-62410000D01*
X58328905Y-62410000D01*
G37*
D14*
X107323864Y-77010000D03*
D18*
X107323864Y-80710000D03*
D14*
X117623864Y-77010000D03*
X107323864Y-83510000D03*
D18*
X117623864Y-80710000D03*
D14*
X117623864Y-83510000D03*
G36*
X59823864Y-68010001D02*
G01*
X59823864Y-68510000D01*
X59818897Y-68510000D01*
X59817432Y-68589941D01*
X59775157Y-68725256D01*
X59696602Y-68843266D01*
X59588083Y-68934486D01*
X59458323Y-68991581D01*
X59323863Y-69009164D01*
X59323863Y-69010000D01*
X58823864Y-69010000D01*
X58823864Y-69009164D01*
X58817755Y-69009963D01*
X58677678Y-68988152D01*
X58549353Y-68927903D01*
X58443095Y-68834059D01*
X58367447Y-68714164D01*
X58328490Y-68577857D01*
X58328905Y-68510000D01*
X58323864Y-68510000D01*
X58323864Y-68010000D01*
X59823864Y-68010001D01*
G37*
G36*
X58328905Y-67210000D02*
G01*
X58329356Y-67136095D01*
X58369975Y-67000274D01*
X58447082Y-66881312D01*
X58554479Y-66788774D01*
X58683532Y-66730097D01*
X58823865Y-66710000D01*
X59323864Y-66710000D01*
X59336080Y-66710149D01*
X59475881Y-66733669D01*
X59603460Y-66795482D01*
X59708564Y-66890617D01*
X59782741Y-67011427D01*
X59820030Y-67148200D01*
X59818897Y-67210000D01*
X59823864Y-67210000D01*
X59823864Y-67710000D01*
X58323864Y-67709999D01*
X58323864Y-67210000D01*
X58328905Y-67210000D01*
G37*
D17*
X116040000Y-51270000D03*
G36*
X51223864Y-63210001D02*
G01*
X51223864Y-63710000D01*
X51218897Y-63710000D01*
X51217432Y-63789941D01*
X51175157Y-63925256D01*
X51096602Y-64043266D01*
X50988083Y-64134486D01*
X50858323Y-64191581D01*
X50723863Y-64209164D01*
X50723863Y-64210000D01*
X50223864Y-64210000D01*
X50223864Y-64209164D01*
X50217755Y-64209963D01*
X50077678Y-64188152D01*
X49949353Y-64127903D01*
X49843095Y-64034059D01*
X49767447Y-63914164D01*
X49728490Y-63777857D01*
X49728905Y-63710000D01*
X49723864Y-63710000D01*
X49723864Y-63210000D01*
X51223864Y-63210001D01*
G37*
G36*
X49728905Y-62410000D02*
G01*
X49729356Y-62336095D01*
X49769975Y-62200274D01*
X49847082Y-62081312D01*
X49954479Y-61988774D01*
X50083532Y-61930097D01*
X50223865Y-61910000D01*
X50723864Y-61910000D01*
X50736080Y-61910149D01*
X50875881Y-61933669D01*
X51003460Y-61995482D01*
X51108564Y-62090617D01*
X51182741Y-62211427D01*
X51220030Y-62348200D01*
X51218897Y-62410000D01*
X51223864Y-62410000D01*
X51223864Y-62910000D01*
X49723864Y-62909999D01*
X49723864Y-62410000D01*
X49728905Y-62410000D01*
G37*
X52540000Y-51270000D03*
G36*
X51223864Y-68060001D02*
G01*
X51223864Y-68560000D01*
X51218897Y-68560000D01*
X51217432Y-68639941D01*
X51175157Y-68775256D01*
X51096602Y-68893266D01*
X50988083Y-68984486D01*
X50858323Y-69041581D01*
X50723863Y-69059164D01*
X50723863Y-69060000D01*
X50223864Y-69060000D01*
X50223864Y-69059164D01*
X50217755Y-69059963D01*
X50077678Y-69038152D01*
X49949353Y-68977903D01*
X49843095Y-68884059D01*
X49767447Y-68764164D01*
X49728490Y-68627857D01*
X49728905Y-68560000D01*
X49723864Y-68560000D01*
X49723864Y-68060000D01*
X51223864Y-68060001D01*
G37*
G36*
X49728905Y-67260000D02*
G01*
X49729356Y-67186095D01*
X49769975Y-67050274D01*
X49847082Y-66931312D01*
X49954479Y-66838774D01*
X50083532Y-66780097D01*
X50223865Y-66760000D01*
X50723864Y-66760000D01*
X50736080Y-66760149D01*
X50875881Y-66783669D01*
X51003460Y-66845482D01*
X51108564Y-66940617D01*
X51182741Y-67061427D01*
X51220030Y-67198200D01*
X51218897Y-67260000D01*
X51223864Y-67260000D01*
X51223864Y-67760000D01*
X49723864Y-67759999D01*
X49723864Y-67260000D01*
X49728905Y-67260000D01*
G37*
X52540000Y-94450000D03*
D19*
X55924864Y-60672500D03*
D20*
X53384864Y-60672500D03*
X55924864Y-63212500D03*
X53384864Y-63212500D03*
X55924864Y-65752500D03*
X53384864Y-65752500D03*
X55924864Y-68292500D03*
X53384864Y-68292500D03*
X55924864Y-70832500D03*
X53384864Y-70832500D03*
D21*
X107473864Y-89860000D03*
D22*
X110013864Y-89860000D03*
X112553864Y-89860000D03*
X115093864Y-89860000D03*
X117633864Y-89860000D03*
M02*
