%TF.GenerationSoftware,KiCad,Pcbnew,5.99.0-unknown-71ab42e60~106~ubuntu18.04.1*%
%TF.CreationDate,2021-01-06T07:49:34+01:00*%
%TF.ProjectId,tosta,746f7374-612e-46b6-9963-61645f706362,A*%
%TF.SameCoordinates,Original*%
%TF.FileFunction,Copper,L2,Bot*%
%TF.FilePolarity,Positive*%
%FSLAX46Y46*%
G04 Gerber Fmt 4.6, Leading zero omitted, Abs format (unit mm)*
G04 Created by KiCad (PCBNEW 5.99.0-unknown-71ab42e60~106~ubuntu18.04.1) date 2021-01-06 07:49:34*
%MOMM*%
%LPD*%
G01*
G04 APERTURE LIST*
G04 Aperture macros list*
%AMRoundRect*
0 Rectangle with rounded corners*
0 $1 Rounding radius*
0 $2 $3 $4 $5 $6 $7 $8 $9 X,Y pos of 4 corners*
0 Add a 4 corners polygon primitive as box body*
4,1,4,$2,$3,$4,$5,$6,$7,$8,$9,$2,$3,0*
0 Add four circle primitives for the rounded corners*
1,1,$1+$1,$2,$3,0*
1,1,$1+$1,$4,$5,0*
1,1,$1+$1,$6,$7,0*
1,1,$1+$1,$8,$9,0*
0 Add four rect primitives between the rounded corners*
20,1,$1+$1,$2,$3,$4,$5,0*
20,1,$1+$1,$4,$5,$6,$7,0*
20,1,$1+$1,$6,$7,$8,$9,0*
20,1,$1+$1,$8,$9,$2,$3,0*%
G04 Aperture macros list end*
%TA.AperFunction,ComponentPad*%
%ADD10O,2.000000X4.500000*%
%TD*%
%TA.AperFunction,SMDPad,CuDef*%
%ADD11R,1.000000X3.000000*%
%TD*%
%TA.AperFunction,ComponentPad*%
%ADD12C,2.000000*%
%TD*%
%TA.AperFunction,ComponentPad*%
%ADD13R,2.000000X2.000000*%
%TD*%
%TA.AperFunction,ComponentPad*%
%ADD14R,2.500000X3.000000*%
%TD*%
%TA.AperFunction,ComponentPad*%
%ADD15C,1.800000*%
%TD*%
%TA.AperFunction,SMDPad,CuDef*%
%ADD16RoundRect,0.125000X-0.530330X0.353553X0.353553X-0.530330X0.530330X-0.353553X-0.353553X0.530330X0*%
%TD*%
%TA.AperFunction,SMDPad,CuDef*%
%ADD17RoundRect,0.125000X-0.530330X-0.353553X-0.353553X-0.530330X0.530330X0.353553X0.353553X0.530330X0*%
%TD*%
%TA.AperFunction,SMDPad,CuDef*%
%ADD18R,0.900000X0.800000*%
%TD*%
%TA.AperFunction,SMDPad,CuDef*%
%ADD19RoundRect,0.250000X0.425000X-0.537500X0.425000X0.537500X-0.425000X0.537500X-0.425000X-0.537500X0*%
%TD*%
%TA.AperFunction,SMDPad,CuDef*%
%ADD20RoundRect,0.250000X0.537500X0.425000X-0.537500X0.425000X-0.537500X-0.425000X0.537500X-0.425000X0*%
%TD*%
%TA.AperFunction,SMDPad,CuDef*%
%ADD21RoundRect,0.250000X-0.450000X0.325000X-0.450000X-0.325000X0.450000X-0.325000X0.450000X0.325000X0*%
%TD*%
%TA.AperFunction,ComponentPad*%
%ADD22R,1.727200X1.727200*%
%TD*%
%TA.AperFunction,ComponentPad*%
%ADD23O,1.727200X1.727200*%
%TD*%
%TA.AperFunction,SMDPad,CuDef*%
%ADD24RoundRect,0.250000X-0.537500X-0.425000X0.537500X-0.425000X0.537500X0.425000X-0.537500X0.425000X0*%
%TD*%
%TA.AperFunction,ComponentPad*%
%ADD25R,1.700000X1.700000*%
%TD*%
%TA.AperFunction,ComponentPad*%
%ADD26O,1.700000X1.700000*%
%TD*%
%TA.AperFunction,SMDPad,CuDef*%
%ADD27RoundRect,0.250000X0.088388X-0.548008X0.548008X-0.088388X-0.088388X0.548008X-0.548008X0.088388X0*%
%TD*%
%TA.AperFunction,SMDPad,CuDef*%
%ADD28RoundRect,0.250000X0.350000X0.450000X-0.350000X0.450000X-0.350000X-0.450000X0.350000X-0.450000X0*%
%TD*%
%TA.AperFunction,SMDPad,CuDef*%
%ADD29RoundRect,0.250000X-0.079550X-0.680590X0.680590X0.079550X0.079550X0.680590X-0.680590X-0.079550X0*%
%TD*%
%TA.AperFunction,SMDPad,CuDef*%
%ADD30RoundRect,0.250000X-0.475000X0.337500X-0.475000X-0.337500X0.475000X-0.337500X0.475000X0.337500X0*%
%TD*%
%TA.AperFunction,ViaPad*%
%ADD31C,1.600000*%
%TD*%
%TA.AperFunction,ViaPad*%
%ADD32C,0.800000*%
%TD*%
%TA.AperFunction,Conductor*%
%ADD33C,0.500000*%
%TD*%
%TA.AperFunction,Conductor*%
%ADD34C,0.250000*%
%TD*%
G04 APERTURE END LIST*
D10*
X102723864Y-72440000D03*
D11*
X63473864Y-72440000D03*
D10*
X62223864Y-52440000D03*
X102723864Y-52440000D03*
D11*
X101473864Y-52440000D03*
D12*
X65223864Y-55940000D03*
D10*
X62223864Y-72440000D03*
D11*
X101473864Y-72440000D03*
D12*
X99723864Y-82440000D03*
D11*
X63473864Y-52440000D03*
D12*
X69223864Y-91050000D03*
X62723864Y-91050000D03*
X69223864Y-95550000D03*
X62723864Y-95550000D03*
X91223864Y-91050000D03*
X84723864Y-91050000D03*
X91223864Y-95550000D03*
X84723864Y-95550000D03*
X102223864Y-91050000D03*
X95723864Y-91050000D03*
X102223864Y-95550000D03*
X95723864Y-95550000D03*
X80223864Y-91050000D03*
X73723864Y-91050000D03*
X80223864Y-95550000D03*
X73723864Y-95550000D03*
D13*
X109973864Y-70702102D03*
D12*
X114973864Y-70702102D03*
X112473864Y-70702102D03*
D14*
X106873864Y-63202102D03*
X118073864Y-63202102D03*
D12*
X109973864Y-56202102D03*
X114973864Y-56202102D03*
X107323864Y-77010000D03*
D15*
X107323864Y-80710000D03*
D12*
X117623864Y-77010000D03*
X107323864Y-83510000D03*
D15*
X117623864Y-80710000D03*
D12*
X117623864Y-83510000D03*
D16*
X80341794Y-67087728D03*
X80907480Y-66522043D03*
X81473165Y-65956357D03*
X82038850Y-65390672D03*
X82604536Y-64824986D03*
X83170221Y-64259301D03*
X83735907Y-63693616D03*
X84301592Y-63127930D03*
D17*
X86246136Y-63127930D03*
X86811821Y-63693616D03*
X87377507Y-64259301D03*
X87943192Y-64824986D03*
X88508878Y-65390672D03*
X89074563Y-65956357D03*
X89640248Y-66522043D03*
X90205934Y-67087728D03*
D16*
X90205934Y-69032272D03*
X89640248Y-69597957D03*
X89074563Y-70163643D03*
X88508878Y-70729328D03*
X87943192Y-71295014D03*
X87377507Y-71860699D03*
X86811821Y-72426384D03*
X86246136Y-72992070D03*
D17*
X84301592Y-72992070D03*
X83735907Y-72426384D03*
X83170221Y-71860699D03*
X82604536Y-71295014D03*
X82038850Y-70729328D03*
X81473165Y-70163643D03*
X80907480Y-69597957D03*
X80341794Y-69032272D03*
D18*
X76673864Y-79510000D03*
X76673864Y-81410000D03*
X74673864Y-80460000D03*
D19*
X61473864Y-60297500D03*
X61473864Y-57422500D03*
D20*
X76174734Y-55760000D03*
X73299734Y-55760000D03*
D21*
X79169952Y-77435000D03*
X79169952Y-79485000D03*
D22*
X55924864Y-60672500D03*
D23*
X53384864Y-60672500D03*
X55924864Y-63212500D03*
X53384864Y-63212500D03*
X55924864Y-65752500D03*
X53384864Y-65752500D03*
X55924864Y-68292500D03*
X53384864Y-68292500D03*
X55924864Y-70832500D03*
X53384864Y-70832500D03*
D21*
X72673864Y-78360000D03*
X72673864Y-80410000D03*
D20*
X74073864Y-85060000D03*
X71198864Y-85060000D03*
D24*
X89594183Y-52460000D03*
X92469183Y-52460000D03*
D25*
X107473864Y-89860000D03*
D26*
X110013864Y-89860000D03*
X112553864Y-89860000D03*
X115093864Y-89860000D03*
X117633864Y-89860000D03*
D27*
X80004992Y-63355177D03*
X81454560Y-61905609D03*
D28*
X78890137Y-85060000D03*
X76890137Y-85060000D03*
D29*
X78057398Y-61676466D03*
X80090330Y-59643534D03*
D30*
X60260000Y-86820000D03*
X60260000Y-88895000D03*
D31*
X80050000Y-55760000D03*
X60273864Y-79660000D03*
D32*
X60273864Y-85060000D03*
D31*
X61473864Y-62060000D03*
X87673864Y-52460000D03*
D32*
X72673864Y-76260000D03*
X84873864Y-64760000D03*
X97973864Y-66160000D03*
D31*
X78060000Y-55760000D03*
D32*
X88473864Y-63260000D03*
X84473864Y-54660000D03*
X85473864Y-56860000D03*
X90273864Y-63660000D03*
X89273864Y-54660000D03*
X88473864Y-67660000D03*
X80273864Y-74660000D03*
X84473864Y-70260000D03*
X68673864Y-70260000D03*
X83273864Y-69260000D03*
X70073864Y-69260000D03*
X68673864Y-73260000D03*
X66073864Y-64460000D03*
X82073864Y-68060000D03*
X73873865Y-63459999D03*
X87273864Y-68460000D03*
X87273864Y-74860000D03*
D33*
X82604536Y-64824986D02*
X82604536Y-64790672D01*
X82604536Y-64790672D02*
X81473864Y-63660000D01*
D34*
X71198864Y-85060000D02*
X60208528Y-85060000D01*
X60260000Y-85073864D02*
X60273864Y-85060000D01*
X60260000Y-86820000D02*
X60260000Y-85073864D01*
D33*
X61473864Y-60297500D02*
X61473864Y-62060000D01*
X82038850Y-65390672D02*
X77308178Y-60660000D01*
X55924864Y-60672500D02*
X61098864Y-60672500D01*
X87673864Y-52460000D02*
X89594183Y-52460000D01*
X61836364Y-60660000D02*
X77308178Y-60660000D01*
D34*
X72673864Y-78360000D02*
X72673864Y-76260000D01*
X97973864Y-66160000D02*
X105431762Y-66160000D01*
X105431762Y-66160000D02*
X109973864Y-70702102D01*
X84873864Y-64760000D02*
X84802291Y-64760000D01*
X84802291Y-64760000D02*
X83735907Y-63693616D01*
X109531762Y-65260000D02*
X114973864Y-70702102D01*
X89074563Y-65956357D02*
X89770920Y-65260000D01*
X89770920Y-65260000D02*
X109531762Y-65260000D01*
X96566076Y-56202102D02*
X109973864Y-56202102D01*
X87943192Y-64824986D02*
X96566076Y-56202102D01*
D33*
X78060000Y-55760000D02*
X76174734Y-55760000D01*
D34*
X67473864Y-71260000D02*
X76169522Y-71260000D01*
X53384864Y-70832500D02*
X54657364Y-69560000D01*
X54657364Y-69560000D02*
X65773864Y-69560000D01*
X76169522Y-71260000D02*
X80341794Y-67087728D01*
X65773864Y-69560000D02*
X67473864Y-71260000D01*
X76673864Y-79510000D02*
X79248864Y-79510000D01*
X81273864Y-72625686D02*
X81273864Y-86460000D01*
X82604536Y-71295014D02*
X81273864Y-72625686D01*
X81273864Y-86460000D02*
X79073864Y-88660000D01*
X79073864Y-88660000D02*
X71473864Y-88660000D01*
X71473864Y-88660000D02*
X69223864Y-90910000D01*
X82073864Y-72957056D02*
X82073864Y-89200000D01*
X82073864Y-89200000D02*
X80223864Y-91050000D01*
X83170221Y-71860699D02*
X82073864Y-72957056D01*
X83073864Y-73088427D02*
X83073864Y-89400000D01*
X83735907Y-72426384D02*
X83073864Y-73088427D01*
X83073864Y-89400000D02*
X84723864Y-91050000D01*
X86811821Y-72426384D02*
X88473864Y-74088427D01*
X88473864Y-83800000D02*
X95473864Y-90800000D01*
X88473864Y-74088427D02*
X88473864Y-83800000D01*
X88376808Y-63260000D02*
X87377507Y-64259301D01*
X88473864Y-63260000D02*
X88376808Y-63260000D01*
X84473864Y-54660000D02*
X86246136Y-56432272D01*
X86246136Y-56432272D02*
X86246136Y-63127930D01*
X85473864Y-61955658D02*
X84301592Y-63127930D01*
X85473864Y-56860000D02*
X85473864Y-61955658D01*
X88543192Y-65390672D02*
X90273864Y-63660000D01*
X89273864Y-61260000D02*
X86840248Y-63693616D01*
X89273864Y-61260000D02*
X89273864Y-54660000D01*
X72673864Y-80410000D02*
X74623864Y-80410000D01*
X114723864Y-80710000D02*
X103046136Y-69032272D01*
X103046136Y-69032272D02*
X90205934Y-69032272D01*
X117623864Y-80710000D02*
X114723864Y-80710000D01*
X96439550Y-78660000D02*
X88508878Y-70729328D01*
X107073864Y-80460000D02*
X106473864Y-80460000D01*
X106473864Y-80460000D02*
X104673864Y-78660000D01*
X104673864Y-78660000D02*
X96439550Y-78660000D01*
X97052291Y-77010000D02*
X89640248Y-69597957D01*
X107323864Y-77010000D02*
X97052291Y-77010000D01*
X117623864Y-77010000D02*
X112623864Y-77010000D01*
X102701592Y-67087728D02*
X90205934Y-67087728D01*
X112623864Y-77010000D02*
X102701592Y-67087728D01*
X95725336Y-80208528D02*
X103422392Y-80208528D01*
X87377507Y-71860699D02*
X95725336Y-80208528D01*
X103422392Y-80208528D02*
X106723864Y-83510000D01*
X78873864Y-77138912D02*
X78873864Y-73860000D01*
X82004536Y-70729328D02*
X82038850Y-70729328D01*
X78873864Y-73860000D02*
X82004536Y-70729328D01*
X77114066Y-72260000D02*
X80341794Y-69032272D01*
X64173864Y-75360000D02*
X67273864Y-72260000D01*
X60452364Y-75360000D02*
X64173864Y-75360000D01*
X67273864Y-72260000D02*
X77114066Y-72260000D01*
X55924864Y-70832500D02*
X60452364Y-75360000D01*
X80073864Y-85060000D02*
X78890137Y-85060000D01*
X88473864Y-67660000D02*
X88502291Y-67660000D01*
X80673864Y-84460000D02*
X80073864Y-85060000D01*
X80673864Y-75060000D02*
X80273864Y-74660000D01*
X80673864Y-75060000D02*
X80673864Y-84460000D01*
X88502291Y-67660000D02*
X89640248Y-66522043D01*
X65423864Y-67010000D02*
X54642364Y-67010000D01*
X65473864Y-67060000D02*
X65423864Y-67010000D01*
X54642364Y-67010000D02*
X53384864Y-65752500D01*
X86908178Y-70260000D02*
X84473864Y-70260000D01*
X87943192Y-71295014D02*
X86908178Y-70260000D01*
X65473864Y-67060000D02*
X68673864Y-70260000D01*
X66673864Y-65860000D02*
X70073864Y-69260000D01*
X88170920Y-69260000D02*
X83273864Y-69260000D01*
X89074563Y-70163643D02*
X88170920Y-69260000D01*
X56073864Y-65860000D02*
X66673864Y-65860000D01*
X66073864Y-64460000D02*
X54632364Y-64460000D01*
X54632364Y-64460000D02*
X53384864Y-63212500D01*
X68673864Y-73260000D02*
X77245437Y-73260000D01*
X80907480Y-69597957D02*
X77245437Y-73260000D01*
X81473165Y-70163643D02*
X82073864Y-69562944D01*
X73873865Y-63459999D02*
X56172363Y-63459999D01*
X82073864Y-69562944D02*
X82073864Y-68060000D01*
X89873864Y-93860000D02*
X112160000Y-93860000D01*
X112160000Y-93860000D02*
X114160000Y-91860000D01*
X114160000Y-91860000D02*
X115633864Y-91860000D01*
X115633864Y-91860000D02*
X117633864Y-89860000D01*
X84301592Y-88287728D02*
X89873864Y-93860000D01*
X84301592Y-72992070D02*
X84301592Y-88287728D01*
X90733864Y-93320000D02*
X111600000Y-93320000D01*
X111600000Y-93320000D02*
X114775000Y-90145000D01*
X86246136Y-72992070D02*
X86246136Y-88832272D01*
X86246136Y-88832272D02*
X90733864Y-93320000D01*
X83170221Y-64356357D02*
X87273864Y-68460000D01*
X87273864Y-84810501D02*
X95223363Y-92760000D01*
X95223363Y-92760000D02*
X104973864Y-92760000D01*
X104973864Y-92760000D02*
X107473864Y-90260000D01*
X87273864Y-74860000D02*
X87273864Y-84810501D01*
X76890137Y-85060000D02*
X74073864Y-85060000D01*
%TA.AperFunction,Conductor*%
G36*
X120512148Y-47878954D02*
G01*
X120592930Y-47932930D01*
X120647070Y-47987070D01*
X120701046Y-48067852D01*
X120720000Y-48163140D01*
X120720000Y-97556860D01*
X120701046Y-97652148D01*
X120647070Y-97732930D01*
X120592930Y-97787070D01*
X120512148Y-97841046D01*
X120416860Y-97860000D01*
X48163140Y-97860000D01*
X48067852Y-97841046D01*
X47987070Y-97787070D01*
X47932930Y-97732930D01*
X47878954Y-97652148D01*
X47860000Y-97556860D01*
X47860000Y-96740161D01*
X61893010Y-96740161D01*
X61897122Y-96746314D01*
X61898129Y-96747020D01*
X62086354Y-96857009D01*
X62104728Y-96865812D01*
X62308383Y-96943581D01*
X62327950Y-96949265D01*
X62541573Y-96992728D01*
X62561795Y-96995139D01*
X62779654Y-97003128D01*
X62800003Y-97002204D01*
X63016241Y-96974503D01*
X63036163Y-96970269D01*
X63244971Y-96907623D01*
X63263938Y-96900190D01*
X63459710Y-96804282D01*
X63477205Y-96793853D01*
X63537181Y-96751072D01*
X63547445Y-96740161D01*
X68393010Y-96740161D01*
X68397122Y-96746314D01*
X68398129Y-96747020D01*
X68586354Y-96857009D01*
X68604728Y-96865812D01*
X68808383Y-96943581D01*
X68827950Y-96949265D01*
X69041573Y-96992728D01*
X69061795Y-96995139D01*
X69279654Y-97003128D01*
X69300003Y-97002204D01*
X69516241Y-96974503D01*
X69536163Y-96970269D01*
X69744971Y-96907623D01*
X69763938Y-96900190D01*
X69959710Y-96804282D01*
X69977205Y-96793853D01*
X70037181Y-96751072D01*
X70047445Y-96740161D01*
X72893010Y-96740161D01*
X72897122Y-96746314D01*
X72898129Y-96747020D01*
X73086354Y-96857009D01*
X73104728Y-96865812D01*
X73308383Y-96943581D01*
X73327950Y-96949265D01*
X73541573Y-96992728D01*
X73561795Y-96995139D01*
X73779654Y-97003128D01*
X73800003Y-97002204D01*
X74016241Y-96974503D01*
X74036163Y-96970269D01*
X74244971Y-96907623D01*
X74263938Y-96900190D01*
X74459710Y-96804282D01*
X74477205Y-96793853D01*
X74537181Y-96751072D01*
X74547445Y-96740161D01*
X79393010Y-96740161D01*
X79397122Y-96746314D01*
X79398129Y-96747020D01*
X79586354Y-96857009D01*
X79604728Y-96865812D01*
X79808383Y-96943581D01*
X79827950Y-96949265D01*
X80041573Y-96992728D01*
X80061795Y-96995139D01*
X80279654Y-97003128D01*
X80300003Y-97002204D01*
X80516241Y-96974503D01*
X80536163Y-96970269D01*
X80744971Y-96907623D01*
X80763938Y-96900190D01*
X80959710Y-96804282D01*
X80977205Y-96793853D01*
X81037181Y-96751072D01*
X81047445Y-96740161D01*
X83893010Y-96740161D01*
X83897122Y-96746314D01*
X83898129Y-96747020D01*
X84086354Y-96857009D01*
X84104728Y-96865812D01*
X84308383Y-96943581D01*
X84327950Y-96949265D01*
X84541573Y-96992728D01*
X84561795Y-96995139D01*
X84779654Y-97003128D01*
X84800003Y-97002204D01*
X85016241Y-96974503D01*
X85036163Y-96970269D01*
X85244971Y-96907623D01*
X85263938Y-96900190D01*
X85459710Y-96804282D01*
X85477205Y-96793853D01*
X85537181Y-96751072D01*
X85547445Y-96740161D01*
X90393010Y-96740161D01*
X90397122Y-96746314D01*
X90398129Y-96747020D01*
X90586354Y-96857009D01*
X90604728Y-96865812D01*
X90808383Y-96943581D01*
X90827950Y-96949265D01*
X91041573Y-96992728D01*
X91061795Y-96995139D01*
X91279654Y-97003128D01*
X91300003Y-97002204D01*
X91516241Y-96974503D01*
X91536163Y-96970269D01*
X91744971Y-96907623D01*
X91763938Y-96900190D01*
X91959710Y-96804282D01*
X91977205Y-96793853D01*
X92037181Y-96751072D01*
X92047445Y-96740161D01*
X94893010Y-96740161D01*
X94897122Y-96746314D01*
X94898129Y-96747020D01*
X95086354Y-96857009D01*
X95104728Y-96865812D01*
X95308383Y-96943581D01*
X95327950Y-96949265D01*
X95541573Y-96992728D01*
X95561795Y-96995139D01*
X95779654Y-97003128D01*
X95800003Y-97002204D01*
X96016241Y-96974503D01*
X96036163Y-96970269D01*
X96244971Y-96907623D01*
X96263938Y-96900190D01*
X96459710Y-96804282D01*
X96477205Y-96793853D01*
X96537181Y-96751072D01*
X96547445Y-96740161D01*
X101393010Y-96740161D01*
X101397122Y-96746314D01*
X101398129Y-96747020D01*
X101586354Y-96857009D01*
X101604728Y-96865812D01*
X101808383Y-96943581D01*
X101827950Y-96949265D01*
X102041573Y-96992728D01*
X102061795Y-96995139D01*
X102279654Y-97003128D01*
X102300003Y-97002204D01*
X102516241Y-96974503D01*
X102536163Y-96970269D01*
X102744971Y-96907623D01*
X102763938Y-96900190D01*
X102959710Y-96804282D01*
X102977205Y-96793853D01*
X103037181Y-96751072D01*
X103051469Y-96735884D01*
X103047596Y-96727285D01*
X102241205Y-95920894D01*
X102223864Y-95909307D01*
X102206523Y-95920894D01*
X101404597Y-96722820D01*
X101393010Y-96740161D01*
X96547445Y-96740161D01*
X96551469Y-96735884D01*
X96547596Y-96727285D01*
X95741205Y-95920894D01*
X95723864Y-95909307D01*
X95706523Y-95920894D01*
X94904597Y-96722820D01*
X94893010Y-96740161D01*
X92047445Y-96740161D01*
X92051469Y-96735884D01*
X92047596Y-96727285D01*
X91241205Y-95920894D01*
X91223864Y-95909307D01*
X91206523Y-95920894D01*
X90404597Y-96722820D01*
X90393010Y-96740161D01*
X85547445Y-96740161D01*
X85551469Y-96735884D01*
X85547596Y-96727285D01*
X84741205Y-95920894D01*
X84723864Y-95909307D01*
X84706523Y-95920894D01*
X83904597Y-96722820D01*
X83893010Y-96740161D01*
X81047445Y-96740161D01*
X81051469Y-96735884D01*
X81047596Y-96727285D01*
X80241205Y-95920894D01*
X80223864Y-95909307D01*
X80206523Y-95920894D01*
X79404597Y-96722820D01*
X79393010Y-96740161D01*
X74547445Y-96740161D01*
X74551469Y-96735884D01*
X74547596Y-96727285D01*
X73741205Y-95920894D01*
X73723864Y-95909307D01*
X73706523Y-95920894D01*
X72904597Y-96722820D01*
X72893010Y-96740161D01*
X70047445Y-96740161D01*
X70051469Y-96735884D01*
X70047596Y-96727285D01*
X69241205Y-95920894D01*
X69223864Y-95909307D01*
X69206523Y-95920894D01*
X68404597Y-96722820D01*
X68393010Y-96740161D01*
X63547445Y-96740161D01*
X63551469Y-96735884D01*
X63547596Y-96727285D01*
X62741205Y-95920894D01*
X62723864Y-95909307D01*
X62706523Y-95920894D01*
X61904597Y-96722820D01*
X61893010Y-96740161D01*
X47860000Y-96740161D01*
X47860000Y-94418499D01*
X49634747Y-94418499D01*
X49650314Y-94701356D01*
X49652030Y-94709984D01*
X49652031Y-94709990D01*
X49680648Y-94853856D01*
X49705580Y-94979197D01*
X49799443Y-95246480D01*
X49833259Y-95311578D01*
X49925972Y-95490060D01*
X49925975Y-95490066D01*
X49930030Y-95497871D01*
X49935149Y-95505034D01*
X49935150Y-95505036D01*
X50089616Y-95721190D01*
X50089620Y-95721195D01*
X50094736Y-95728354D01*
X50140437Y-95776261D01*
X50284188Y-95926952D01*
X50284193Y-95926957D01*
X50290273Y-95933330D01*
X50297194Y-95938786D01*
X50297195Y-95938787D01*
X50505823Y-96103256D01*
X50505827Y-96103259D01*
X50512742Y-96108710D01*
X50520355Y-96113132D01*
X50520358Y-96113134D01*
X50572293Y-96143300D01*
X50757702Y-96250994D01*
X50765864Y-96254300D01*
X51012103Y-96354038D01*
X51012108Y-96354040D01*
X51020266Y-96357344D01*
X51055000Y-96365972D01*
X51286656Y-96423516D01*
X51286661Y-96423517D01*
X51295196Y-96425637D01*
X51303951Y-96426534D01*
X51531548Y-96449853D01*
X51531556Y-96449853D01*
X51537867Y-96450500D01*
X53510616Y-96450500D01*
X53514991Y-96450190D01*
X53514997Y-96450190D01*
X53575818Y-96445883D01*
X53722577Y-96435492D01*
X53999517Y-96375869D01*
X54265292Y-96277819D01*
X54514601Y-96143300D01*
X54521673Y-96138077D01*
X54521677Y-96138074D01*
X54735394Y-95980219D01*
X54742468Y-95974994D01*
X54779249Y-95938787D01*
X54938068Y-95782443D01*
X54944348Y-95776261D01*
X55116212Y-95551065D01*
X55131000Y-95524658D01*
X61269887Y-95524658D01*
X61282435Y-95742290D01*
X61285272Y-95762472D01*
X61333197Y-95975134D01*
X61339289Y-95994574D01*
X61421306Y-96196555D01*
X61430493Y-96214743D01*
X61522195Y-96364387D01*
X61536355Y-96379705D01*
X61541932Y-96377647D01*
X61545390Y-96374921D01*
X62352970Y-95567341D01*
X62364557Y-95550000D01*
X63083171Y-95550000D01*
X63094758Y-95567341D01*
X63893389Y-96365972D01*
X63910730Y-96377559D01*
X63918684Y-96372244D01*
X63965084Y-96307671D01*
X63975567Y-96290225D01*
X64072163Y-96094779D01*
X64079658Y-96075849D01*
X64143034Y-95867254D01*
X64147338Y-95847347D01*
X64176263Y-95627637D01*
X64177289Y-95614461D01*
X64178702Y-95556626D01*
X64178321Y-95543395D01*
X64176781Y-95524658D01*
X67769887Y-95524658D01*
X67782435Y-95742290D01*
X67785272Y-95762472D01*
X67833197Y-95975134D01*
X67839289Y-95994574D01*
X67921306Y-96196555D01*
X67930493Y-96214743D01*
X68022195Y-96364387D01*
X68036355Y-96379705D01*
X68041932Y-96377647D01*
X68045390Y-96374921D01*
X68852970Y-95567341D01*
X68864557Y-95550000D01*
X69583171Y-95550000D01*
X69594758Y-95567341D01*
X70393389Y-96365972D01*
X70410730Y-96377559D01*
X70418684Y-96372244D01*
X70465084Y-96307671D01*
X70475567Y-96290225D01*
X70572163Y-96094779D01*
X70579658Y-96075849D01*
X70643034Y-95867254D01*
X70647338Y-95847347D01*
X70676263Y-95627637D01*
X70677289Y-95614461D01*
X70678702Y-95556626D01*
X70678321Y-95543395D01*
X70676781Y-95524658D01*
X72269887Y-95524658D01*
X72282435Y-95742290D01*
X72285272Y-95762472D01*
X72333197Y-95975134D01*
X72339289Y-95994574D01*
X72421306Y-96196555D01*
X72430493Y-96214743D01*
X72522195Y-96364387D01*
X72536355Y-96379705D01*
X72541932Y-96377647D01*
X72545390Y-96374921D01*
X73352970Y-95567341D01*
X73364557Y-95550000D01*
X74083171Y-95550000D01*
X74094758Y-95567341D01*
X74893389Y-96365972D01*
X74910730Y-96377559D01*
X74918684Y-96372244D01*
X74965084Y-96307671D01*
X74975567Y-96290225D01*
X75072163Y-96094779D01*
X75079658Y-96075849D01*
X75143034Y-95867254D01*
X75147338Y-95847347D01*
X75176263Y-95627637D01*
X75177289Y-95614461D01*
X75178702Y-95556626D01*
X75178321Y-95543395D01*
X75176781Y-95524658D01*
X78769887Y-95524658D01*
X78782435Y-95742290D01*
X78785272Y-95762472D01*
X78833197Y-95975134D01*
X78839289Y-95994574D01*
X78921306Y-96196555D01*
X78930493Y-96214743D01*
X79022195Y-96364387D01*
X79036355Y-96379705D01*
X79041932Y-96377647D01*
X79045390Y-96374921D01*
X79852970Y-95567341D01*
X79864557Y-95550000D01*
X80583171Y-95550000D01*
X80594758Y-95567341D01*
X81393389Y-96365972D01*
X81410730Y-96377559D01*
X81418684Y-96372244D01*
X81465084Y-96307671D01*
X81475567Y-96290225D01*
X81572163Y-96094779D01*
X81579658Y-96075849D01*
X81643034Y-95867254D01*
X81647338Y-95847347D01*
X81676263Y-95627637D01*
X81677289Y-95614461D01*
X81678702Y-95556626D01*
X81678321Y-95543395D01*
X81676781Y-95524658D01*
X83269887Y-95524658D01*
X83282435Y-95742290D01*
X83285272Y-95762472D01*
X83333197Y-95975134D01*
X83339289Y-95994574D01*
X83421306Y-96196555D01*
X83430493Y-96214743D01*
X83522195Y-96364387D01*
X83536355Y-96379705D01*
X83541932Y-96377647D01*
X83545390Y-96374921D01*
X84352970Y-95567341D01*
X84364557Y-95550000D01*
X85083171Y-95550000D01*
X85094758Y-95567341D01*
X85893389Y-96365972D01*
X85910730Y-96377559D01*
X85918684Y-96372244D01*
X85965084Y-96307671D01*
X85975567Y-96290225D01*
X86072163Y-96094779D01*
X86079658Y-96075849D01*
X86143034Y-95867254D01*
X86147338Y-95847347D01*
X86176263Y-95627637D01*
X86177289Y-95614461D01*
X86178702Y-95556626D01*
X86178321Y-95543395D01*
X86160163Y-95322545D01*
X86156836Y-95302446D01*
X86103729Y-95091016D01*
X86097165Y-95071733D01*
X86010237Y-94871812D01*
X86000608Y-94853856D01*
X85924744Y-94736587D01*
X85910216Y-94721622D01*
X85903240Y-94724391D01*
X85902123Y-94725294D01*
X85094758Y-95532659D01*
X85083171Y-95550000D01*
X84364557Y-95550000D01*
X84352970Y-95532659D01*
X83554306Y-94733995D01*
X83536965Y-94722408D01*
X83529752Y-94727228D01*
X83464508Y-94822873D01*
X83454447Y-94840583D01*
X83362656Y-95038329D01*
X83355628Y-95057430D01*
X83297367Y-95267511D01*
X83293550Y-95287525D01*
X83270384Y-95504285D01*
X83269887Y-95524658D01*
X81676781Y-95524658D01*
X81660163Y-95322545D01*
X81656836Y-95302446D01*
X81603729Y-95091016D01*
X81597165Y-95071733D01*
X81510237Y-94871812D01*
X81500608Y-94853856D01*
X81424744Y-94736587D01*
X81410216Y-94721622D01*
X81403240Y-94724391D01*
X81402123Y-94725294D01*
X80594758Y-95532659D01*
X80583171Y-95550000D01*
X79864557Y-95550000D01*
X79852970Y-95532659D01*
X79054306Y-94733995D01*
X79036965Y-94722408D01*
X79029752Y-94727228D01*
X78964508Y-94822873D01*
X78954447Y-94840583D01*
X78862656Y-95038329D01*
X78855628Y-95057430D01*
X78797367Y-95267511D01*
X78793550Y-95287525D01*
X78770384Y-95504285D01*
X78769887Y-95524658D01*
X75176781Y-95524658D01*
X75160163Y-95322545D01*
X75156836Y-95302446D01*
X75103729Y-95091016D01*
X75097165Y-95071733D01*
X75010237Y-94871812D01*
X75000608Y-94853856D01*
X74924744Y-94736587D01*
X74910216Y-94721622D01*
X74903240Y-94724391D01*
X74902123Y-94725294D01*
X74094758Y-95532659D01*
X74083171Y-95550000D01*
X73364557Y-95550000D01*
X73352970Y-95532659D01*
X72554306Y-94733995D01*
X72536965Y-94722408D01*
X72529752Y-94727228D01*
X72464508Y-94822873D01*
X72454447Y-94840583D01*
X72362656Y-95038329D01*
X72355628Y-95057430D01*
X72297367Y-95267511D01*
X72293550Y-95287525D01*
X72270384Y-95504285D01*
X72269887Y-95524658D01*
X70676781Y-95524658D01*
X70660163Y-95322545D01*
X70656836Y-95302446D01*
X70603729Y-95091016D01*
X70597165Y-95071733D01*
X70510237Y-94871812D01*
X70500608Y-94853856D01*
X70424744Y-94736587D01*
X70410216Y-94721622D01*
X70403240Y-94724391D01*
X70402123Y-94725294D01*
X69594758Y-95532659D01*
X69583171Y-95550000D01*
X68864557Y-95550000D01*
X68852970Y-95532659D01*
X68054306Y-94733995D01*
X68036965Y-94722408D01*
X68029752Y-94727228D01*
X67964508Y-94822873D01*
X67954447Y-94840583D01*
X67862656Y-95038329D01*
X67855628Y-95057430D01*
X67797367Y-95267511D01*
X67793550Y-95287525D01*
X67770384Y-95504285D01*
X67769887Y-95524658D01*
X64176781Y-95524658D01*
X64160163Y-95322545D01*
X64156836Y-95302446D01*
X64103729Y-95091016D01*
X64097165Y-95071733D01*
X64010237Y-94871812D01*
X64000608Y-94853856D01*
X63924744Y-94736587D01*
X63910216Y-94721622D01*
X63903240Y-94724391D01*
X63902123Y-94725294D01*
X63094758Y-95532659D01*
X63083171Y-95550000D01*
X62364557Y-95550000D01*
X62352970Y-95532659D01*
X61554306Y-94733995D01*
X61536965Y-94722408D01*
X61529752Y-94727228D01*
X61464508Y-94822873D01*
X61454447Y-94840583D01*
X61362656Y-95038329D01*
X61355628Y-95057430D01*
X61297367Y-95267511D01*
X61293550Y-95287525D01*
X61270384Y-95504285D01*
X61269887Y-95524658D01*
X55131000Y-95524658D01*
X55141990Y-95505036D01*
X55250331Y-95311578D01*
X55254631Y-95303900D01*
X55356843Y-95039698D01*
X55407100Y-94822873D01*
X55418822Y-94772303D01*
X55418823Y-94772298D01*
X55420809Y-94763729D01*
X55445253Y-94481501D01*
X55438758Y-94363480D01*
X61895783Y-94363480D01*
X61900297Y-94372880D01*
X62706523Y-95179106D01*
X62723864Y-95190693D01*
X62741205Y-95179106D01*
X63541412Y-94378899D01*
X63551714Y-94363480D01*
X68395783Y-94363480D01*
X68400297Y-94372880D01*
X69206523Y-95179106D01*
X69223864Y-95190693D01*
X69241205Y-95179106D01*
X70041412Y-94378899D01*
X70051714Y-94363480D01*
X72895783Y-94363480D01*
X72900297Y-94372880D01*
X73706523Y-95179106D01*
X73723864Y-95190693D01*
X73741205Y-95179106D01*
X74541412Y-94378899D01*
X74551714Y-94363480D01*
X79395783Y-94363480D01*
X79400297Y-94372880D01*
X80206523Y-95179106D01*
X80223864Y-95190693D01*
X80241205Y-95179106D01*
X81041412Y-94378899D01*
X81051714Y-94363480D01*
X83895783Y-94363480D01*
X83900297Y-94372880D01*
X84706523Y-95179106D01*
X84723864Y-95190693D01*
X84741205Y-95179106D01*
X85541412Y-94378899D01*
X85552999Y-94361558D01*
X85546570Y-94351937D01*
X85537069Y-94344433D01*
X85520100Y-94333160D01*
X85329245Y-94227802D01*
X85310676Y-94219456D01*
X85105173Y-94146684D01*
X85085472Y-94141479D01*
X84870855Y-94103250D01*
X84850570Y-94101332D01*
X84632594Y-94098669D01*
X84612262Y-94100091D01*
X84396767Y-94133066D01*
X84376960Y-94137785D01*
X84169753Y-94205511D01*
X84150958Y-94213411D01*
X83957590Y-94314072D01*
X83940360Y-94324923D01*
X83909701Y-94347942D01*
X83895783Y-94363480D01*
X81051714Y-94363480D01*
X81052999Y-94361558D01*
X81046570Y-94351937D01*
X81037069Y-94344433D01*
X81020100Y-94333160D01*
X80829245Y-94227802D01*
X80810676Y-94219456D01*
X80605173Y-94146684D01*
X80585472Y-94141479D01*
X80370855Y-94103250D01*
X80350570Y-94101332D01*
X80132594Y-94098669D01*
X80112262Y-94100091D01*
X79896767Y-94133066D01*
X79876960Y-94137785D01*
X79669753Y-94205511D01*
X79650958Y-94213411D01*
X79457590Y-94314072D01*
X79440360Y-94324923D01*
X79409701Y-94347942D01*
X79395783Y-94363480D01*
X74551714Y-94363480D01*
X74552999Y-94361558D01*
X74546570Y-94351937D01*
X74537069Y-94344433D01*
X74520100Y-94333160D01*
X74329245Y-94227802D01*
X74310676Y-94219456D01*
X74105173Y-94146684D01*
X74085472Y-94141479D01*
X73870855Y-94103250D01*
X73850570Y-94101332D01*
X73632594Y-94098669D01*
X73612262Y-94100091D01*
X73396767Y-94133066D01*
X73376960Y-94137785D01*
X73169753Y-94205511D01*
X73150958Y-94213411D01*
X72957590Y-94314072D01*
X72940360Y-94324923D01*
X72909701Y-94347942D01*
X72895783Y-94363480D01*
X70051714Y-94363480D01*
X70052999Y-94361558D01*
X70046570Y-94351937D01*
X70037069Y-94344433D01*
X70020100Y-94333160D01*
X69829245Y-94227802D01*
X69810676Y-94219456D01*
X69605173Y-94146684D01*
X69585472Y-94141479D01*
X69370855Y-94103250D01*
X69350570Y-94101332D01*
X69132594Y-94098669D01*
X69112262Y-94100091D01*
X68896767Y-94133066D01*
X68876960Y-94137785D01*
X68669753Y-94205511D01*
X68650958Y-94213411D01*
X68457590Y-94314072D01*
X68440360Y-94324923D01*
X68409701Y-94347942D01*
X68395783Y-94363480D01*
X63551714Y-94363480D01*
X63552999Y-94361558D01*
X63546570Y-94351937D01*
X63537069Y-94344433D01*
X63520100Y-94333160D01*
X63329245Y-94227802D01*
X63310676Y-94219456D01*
X63105173Y-94146684D01*
X63085472Y-94141479D01*
X62870855Y-94103250D01*
X62850570Y-94101332D01*
X62632594Y-94098669D01*
X62612262Y-94100091D01*
X62396767Y-94133066D01*
X62376960Y-94137785D01*
X62169753Y-94205511D01*
X62150958Y-94213411D01*
X61957590Y-94314072D01*
X61940360Y-94324923D01*
X61909701Y-94347942D01*
X61895783Y-94363480D01*
X55438758Y-94363480D01*
X55430985Y-94222250D01*
X55430170Y-94207435D01*
X55430170Y-94207432D01*
X55429686Y-94198644D01*
X55418316Y-94141479D01*
X55376137Y-93929434D01*
X55376136Y-93929431D01*
X55374420Y-93920803D01*
X55280557Y-93653520D01*
X55209037Y-93515839D01*
X55154028Y-93409940D01*
X55154025Y-93409934D01*
X55149970Y-93402129D01*
X55111957Y-93348935D01*
X54990384Y-93178810D01*
X54990380Y-93178805D01*
X54985264Y-93171646D01*
X54914803Y-93097784D01*
X54795812Y-92973048D01*
X54795807Y-92973043D01*
X54789727Y-92966670D01*
X54782805Y-92961213D01*
X54574177Y-92796744D01*
X54574173Y-92796741D01*
X54567258Y-92791290D01*
X54516705Y-92761926D01*
X54329911Y-92653428D01*
X54322298Y-92649006D01*
X54256071Y-92622181D01*
X54067897Y-92545962D01*
X54067892Y-92545960D01*
X54059734Y-92542656D01*
X53985157Y-92524131D01*
X53793344Y-92476484D01*
X53793339Y-92476483D01*
X53784804Y-92474363D01*
X53776049Y-92473466D01*
X53548452Y-92450147D01*
X53548444Y-92450147D01*
X53542133Y-92449500D01*
X51569384Y-92449500D01*
X51565009Y-92449810D01*
X51565003Y-92449810D01*
X51509120Y-92453767D01*
X51357423Y-92464508D01*
X51080483Y-92524131D01*
X50814708Y-92622181D01*
X50806961Y-92626361D01*
X50630507Y-92721570D01*
X50565399Y-92756700D01*
X50558327Y-92761923D01*
X50558323Y-92761926D01*
X50518568Y-92791290D01*
X50337532Y-92925006D01*
X50331265Y-92931175D01*
X50331263Y-92931177D01*
X50295208Y-92966670D01*
X50135652Y-93123739D01*
X49963788Y-93348935D01*
X49959492Y-93356605D01*
X49959490Y-93356609D01*
X49861423Y-93531721D01*
X49825369Y-93596100D01*
X49723157Y-93860302D01*
X49709134Y-93920803D01*
X49667907Y-94098669D01*
X49659191Y-94136271D01*
X49634747Y-94418499D01*
X47860000Y-94418499D01*
X47860000Y-91155383D01*
X61322320Y-91155383D01*
X61360113Y-91390021D01*
X61436900Y-91614938D01*
X61441937Y-91624196D01*
X61441938Y-91624198D01*
X61514191Y-91756995D01*
X61550485Y-91823701D01*
X61697621Y-92010341D01*
X61705457Y-92017409D01*
X61865283Y-92161570D01*
X61874100Y-92169523D01*
X61883006Y-92175164D01*
X62014611Y-92258522D01*
X62074876Y-92296694D01*
X62294209Y-92388218D01*
X62304487Y-92390582D01*
X62304489Y-92390582D01*
X62515558Y-92439117D01*
X62515562Y-92439118D01*
X62525827Y-92441478D01*
X62763108Y-92454952D01*
X62999266Y-92428254D01*
X63227550Y-92362147D01*
X63441432Y-92258522D01*
X63634797Y-92120342D01*
X63647858Y-92107167D01*
X63794682Y-91959055D01*
X63802115Y-91951557D01*
X63938602Y-91756995D01*
X64040357Y-91542216D01*
X64104469Y-91313364D01*
X64106475Y-91294124D01*
X64128499Y-91082799D01*
X64128499Y-91082794D01*
X64129105Y-91076982D01*
X64129364Y-91050000D01*
X64117260Y-90907348D01*
X64110162Y-90823695D01*
X64110161Y-90823690D01*
X64109270Y-90813188D01*
X64049563Y-90583148D01*
X63951951Y-90366456D01*
X63819224Y-90169308D01*
X63718028Y-90063228D01*
X63662461Y-90004979D01*
X63662457Y-90004976D01*
X63655176Y-89997343D01*
X63464500Y-89855476D01*
X63455104Y-89850699D01*
X63455101Y-89850697D01*
X63330219Y-89787204D01*
X63252647Y-89747764D01*
X63242583Y-89744639D01*
X63242578Y-89744637D01*
X63035750Y-89680415D01*
X63035746Y-89680414D01*
X63025675Y-89677287D01*
X62790072Y-89646060D01*
X62779545Y-89646455D01*
X62779541Y-89646455D01*
X62676787Y-89650313D01*
X62552577Y-89654976D01*
X62542260Y-89657141D01*
X62542258Y-89657141D01*
X62330300Y-89701614D01*
X62330295Y-89701615D01*
X62319979Y-89703780D01*
X62310172Y-89707653D01*
X62108735Y-89787204D01*
X62108731Y-89787206D01*
X62098929Y-89791077D01*
X62089923Y-89796542D01*
X62089917Y-89796545D01*
X61992803Y-89855476D01*
X61895749Y-89914370D01*
X61887785Y-89921281D01*
X61887782Y-89921283D01*
X61811844Y-89987178D01*
X61716246Y-90070134D01*
X61565555Y-90253916D01*
X61560345Y-90263069D01*
X61560342Y-90263073D01*
X61453198Y-90451298D01*
X61447983Y-90460460D01*
X61444386Y-90470370D01*
X61370489Y-90673950D01*
X61370487Y-90673956D01*
X61366892Y-90683861D01*
X61365016Y-90694238D01*
X61365015Y-90694240D01*
X61326479Y-90907348D01*
X61326478Y-90907354D01*
X61324602Y-90917731D01*
X61323850Y-90996010D01*
X61322697Y-91116164D01*
X61322320Y-91155383D01*
X47860000Y-91155383D01*
X47860000Y-89169526D01*
X59085000Y-89169526D01*
X59085000Y-89266319D01*
X59085900Y-89281258D01*
X59098547Y-89385769D01*
X59105654Y-89414702D01*
X59154921Y-89545083D01*
X59168728Y-89571493D01*
X59247671Y-89686356D01*
X59267378Y-89708709D01*
X59371438Y-89801422D01*
X59395914Y-89818434D01*
X59519088Y-89883651D01*
X59546906Y-89894329D01*
X59685572Y-89929160D01*
X59706408Y-89932404D01*
X59709424Y-89932499D01*
X59985473Y-89932499D01*
X60005931Y-89928430D01*
X60009999Y-89907973D01*
X60509999Y-89907973D01*
X60514068Y-89928431D01*
X60534526Y-89932500D01*
X60768819Y-89932500D01*
X60783758Y-89931600D01*
X60888269Y-89918953D01*
X60917202Y-89911846D01*
X61047583Y-89862579D01*
X61073993Y-89848772D01*
X61188856Y-89769829D01*
X61211209Y-89750122D01*
X61303925Y-89646059D01*
X61320932Y-89621588D01*
X61386147Y-89498420D01*
X61396832Y-89470587D01*
X61431661Y-89331928D01*
X61434905Y-89311092D01*
X61435000Y-89308076D01*
X61435000Y-89169527D01*
X61430931Y-89149069D01*
X61410473Y-89145000D01*
X60534527Y-89144999D01*
X60514069Y-89149068D01*
X60510000Y-89169526D01*
X60509999Y-89907973D01*
X60009999Y-89907973D01*
X60010000Y-89907972D01*
X60010001Y-89169527D01*
X60005932Y-89149069D01*
X59985474Y-89145000D01*
X59109527Y-89144999D01*
X59089069Y-89149068D01*
X59085000Y-89169526D01*
X47860000Y-89169526D01*
X47860000Y-88481924D01*
X59085000Y-88481924D01*
X59085000Y-88620473D01*
X59089069Y-88640931D01*
X59109527Y-88645000D01*
X60009996Y-88645001D01*
X60010006Y-88645000D01*
X61410473Y-88645001D01*
X61430931Y-88640932D01*
X61435000Y-88620474D01*
X61435000Y-88523681D01*
X61434100Y-88508742D01*
X61421453Y-88404231D01*
X61414346Y-88375298D01*
X61365079Y-88244917D01*
X61351272Y-88218507D01*
X61272329Y-88103644D01*
X61252622Y-88081292D01*
X61175352Y-88012447D01*
X61116815Y-87934907D01*
X61092407Y-87840868D01*
X61105844Y-87744647D01*
X61155081Y-87660892D01*
X61170540Y-87645022D01*
X61171044Y-87644548D01*
X61183720Y-87635339D01*
X61223495Y-87587259D01*
X61278470Y-87520806D01*
X61278472Y-87520802D01*
X61288456Y-87508734D01*
X61358418Y-87360061D01*
X61361353Y-87344676D01*
X61383301Y-87229621D01*
X61383301Y-87229618D01*
X61385500Y-87218092D01*
X61385500Y-86442922D01*
X61369906Y-86319485D01*
X61309419Y-86166711D01*
X61293966Y-86145441D01*
X61222045Y-86046451D01*
X61212839Y-86033780D01*
X61200770Y-86023796D01*
X61190045Y-86012375D01*
X61191427Y-86011077D01*
X61142530Y-85951019D01*
X61114691Y-85857938D01*
X61124591Y-85761288D01*
X61170724Y-85675785D01*
X61246066Y-85614445D01*
X61339147Y-85586606D01*
X61362585Y-85585500D01*
X69832486Y-85585500D01*
X69927774Y-85604454D01*
X70008556Y-85658430D01*
X70064000Y-85742837D01*
X70086945Y-85800789D01*
X70096151Y-85813459D01*
X70096152Y-85813462D01*
X70128466Y-85857938D01*
X70183525Y-85933720D01*
X70195591Y-85943702D01*
X70195594Y-85943705D01*
X70277034Y-86011077D01*
X70310130Y-86038456D01*
X70458803Y-86108417D01*
X70474187Y-86111352D01*
X70474191Y-86111353D01*
X70589233Y-86133299D01*
X70589236Y-86133299D01*
X70600772Y-86135500D01*
X71775942Y-86135500D01*
X71832627Y-86128339D01*
X71883835Y-86121870D01*
X71883837Y-86121869D01*
X71899379Y-86119906D01*
X72052153Y-86059419D01*
X72064823Y-86050213D01*
X72064826Y-86050212D01*
X72172413Y-85972045D01*
X72185084Y-85962839D01*
X72209174Y-85933720D01*
X72279836Y-85848304D01*
X72279837Y-85848303D01*
X72289821Y-85836234D01*
X72359782Y-85687561D01*
X72378882Y-85587434D01*
X72384665Y-85557121D01*
X72384665Y-85557118D01*
X72386864Y-85545592D01*
X72386864Y-84595422D01*
X72371270Y-84471985D01*
X72310783Y-84319211D01*
X72292620Y-84294211D01*
X72223409Y-84198951D01*
X72214203Y-84186280D01*
X72202137Y-84176298D01*
X72202134Y-84176295D01*
X72109039Y-84099281D01*
X72087598Y-84081544D01*
X71938925Y-84011583D01*
X71923541Y-84008648D01*
X71923537Y-84008647D01*
X71808495Y-83986701D01*
X71808492Y-83986701D01*
X71796956Y-83984500D01*
X70621786Y-83984500D01*
X70565101Y-83991661D01*
X70513893Y-83998130D01*
X70513891Y-83998131D01*
X70498349Y-84000094D01*
X70345575Y-84060581D01*
X70332905Y-84069787D01*
X70332902Y-84069788D01*
X70230442Y-84144230D01*
X70212644Y-84157161D01*
X70202662Y-84169227D01*
X70202661Y-84169228D01*
X70132101Y-84254520D01*
X70107907Y-84283766D01*
X70101236Y-84297943D01*
X70057201Y-84391520D01*
X69999479Y-84469669D01*
X69916244Y-84519780D01*
X69831900Y-84534500D01*
X60983787Y-84534500D01*
X60888499Y-84515546D01*
X60807103Y-84460953D01*
X60794069Y-84447827D01*
X60778593Y-84432243D01*
X60691800Y-84377162D01*
X60638734Y-84343485D01*
X60638731Y-84343484D01*
X60626972Y-84336021D01*
X60613327Y-84331162D01*
X60520036Y-84297943D01*
X60457801Y-84275782D01*
X60443986Y-84274135D01*
X60443983Y-84274134D01*
X60315096Y-84258766D01*
X60279487Y-84254520D01*
X60100895Y-84273290D01*
X60087716Y-84277777D01*
X60087714Y-84277777D01*
X60028478Y-84297943D01*
X59930899Y-84331162D01*
X59777949Y-84425257D01*
X59649646Y-84550900D01*
X59552368Y-84701846D01*
X59490949Y-84870593D01*
X59468443Y-85048753D01*
X59469801Y-85062604D01*
X59469801Y-85062607D01*
X59482671Y-85193868D01*
X59485966Y-85227473D01*
X59542649Y-85397869D01*
X59557961Y-85423152D01*
X59625042Y-85533915D01*
X59658192Y-85625239D01*
X59653870Y-85722298D01*
X59612734Y-85810315D01*
X59541046Y-85875889D01*
X59503720Y-85894418D01*
X59469211Y-85908081D01*
X59456541Y-85917287D01*
X59456538Y-85917288D01*
X59352912Y-85992577D01*
X59336280Y-86004661D01*
X59326298Y-86016727D01*
X59326295Y-86016730D01*
X59241530Y-86119194D01*
X59241528Y-86119198D01*
X59231544Y-86131266D01*
X59161582Y-86279939D01*
X59158647Y-86295323D01*
X59158647Y-86295324D01*
X59156817Y-86304920D01*
X59134500Y-86421908D01*
X59134500Y-87197078D01*
X59150094Y-87320515D01*
X59210581Y-87473289D01*
X59219787Y-87485959D01*
X59219788Y-87485962D01*
X59236333Y-87508734D01*
X59307161Y-87606220D01*
X59319227Y-87616202D01*
X59319229Y-87616204D01*
X59337217Y-87631084D01*
X59398557Y-87706427D01*
X59426395Y-87799508D01*
X59416493Y-87896158D01*
X59370359Y-87981660D01*
X59340933Y-88008568D01*
X59342408Y-88010241D01*
X59308791Y-88039878D01*
X59216075Y-88143941D01*
X59199068Y-88168412D01*
X59133853Y-88291580D01*
X59123168Y-88319413D01*
X59088339Y-88458072D01*
X59085095Y-88478908D01*
X59085000Y-88481924D01*
X47860000Y-88481924D01*
X47860000Y-81684525D01*
X75768864Y-81684525D01*
X75768864Y-81807646D01*
X75768952Y-81812351D01*
X75769700Y-81832358D01*
X75772729Y-81855363D01*
X75796163Y-81958036D01*
X75809646Y-81992390D01*
X75858802Y-82077530D01*
X75881809Y-82106379D01*
X75953871Y-82173244D01*
X75984370Y-82194038D01*
X76072939Y-82236690D01*
X76108200Y-82247567D01*
X76214649Y-82263611D01*
X76233183Y-82265000D01*
X76399337Y-82265000D01*
X76419795Y-82260931D01*
X76423864Y-82240473D01*
X76923863Y-82240473D01*
X76927932Y-82260931D01*
X76948389Y-82265000D01*
X77121510Y-82265000D01*
X77126215Y-82264912D01*
X77146222Y-82264164D01*
X77169227Y-82261135D01*
X77271900Y-82237701D01*
X77306254Y-82224218D01*
X77391394Y-82175062D01*
X77420243Y-82152055D01*
X77487108Y-82079993D01*
X77507902Y-82049494D01*
X77550554Y-81960925D01*
X77561431Y-81925664D01*
X77577475Y-81819215D01*
X77578864Y-81800681D01*
X77578864Y-81684527D01*
X77574795Y-81664069D01*
X77554337Y-81660000D01*
X76948391Y-81659999D01*
X76927933Y-81664068D01*
X76923864Y-81684525D01*
X76923863Y-82240473D01*
X76423864Y-82240473D01*
X76423865Y-81684527D01*
X76419796Y-81664069D01*
X76399339Y-81660000D01*
X75793391Y-81659999D01*
X75772933Y-81664068D01*
X75768864Y-81684525D01*
X47860000Y-81684525D01*
X47860000Y-60930756D01*
X52095166Y-60930756D01*
X52096156Y-60938270D01*
X52142970Y-61112982D01*
X52150382Y-61133346D01*
X52238328Y-61321947D01*
X52249158Y-61340704D01*
X52368521Y-61511172D01*
X52382444Y-61527766D01*
X52529598Y-61674920D01*
X52546187Y-61688839D01*
X52659050Y-61767867D01*
X52726234Y-61838049D01*
X52761446Y-61928598D01*
X52759327Y-62025730D01*
X52720198Y-62114657D01*
X52667811Y-62169381D01*
X52643182Y-62188280D01*
X52525841Y-62278319D01*
X52422172Y-62392250D01*
X52382944Y-62435361D01*
X52373988Y-62445203D01*
X52254088Y-62636341D01*
X52249955Y-62646622D01*
X52249953Y-62646626D01*
X52203304Y-62762670D01*
X52169930Y-62845690D01*
X52124175Y-63066633D01*
X52123609Y-63088248D01*
X52119552Y-63243171D01*
X52118268Y-63292187D01*
X52152397Y-63515223D01*
X52155989Y-63525714D01*
X52221618Y-63717399D01*
X52225483Y-63728689D01*
X52257447Y-63786117D01*
X52329822Y-63916150D01*
X52329825Y-63916155D01*
X52335216Y-63925840D01*
X52478127Y-64100443D01*
X52486557Y-64107643D01*
X52486559Y-64107645D01*
X52641266Y-64239778D01*
X52641270Y-64239781D01*
X52649698Y-64246979D01*
X52659267Y-64252571D01*
X52659276Y-64252577D01*
X52682493Y-64266143D01*
X52755203Y-64330582D01*
X52797718Y-64417941D01*
X52803566Y-64514920D01*
X52771856Y-64606754D01*
X52707417Y-64679464D01*
X52706456Y-64680132D01*
X52704846Y-64680963D01*
X52525841Y-64818319D01*
X52373988Y-64985203D01*
X52254088Y-65176341D01*
X52249955Y-65186622D01*
X52249953Y-65186626D01*
X52189431Y-65337180D01*
X52169930Y-65385690D01*
X52124175Y-65606633D01*
X52123885Y-65617715D01*
X52118653Y-65817495D01*
X52118268Y-65832187D01*
X52152397Y-66055223D01*
X52169813Y-66106090D01*
X52187169Y-66156782D01*
X52225483Y-66268689D01*
X52230879Y-66278383D01*
X52329822Y-66456150D01*
X52329825Y-66456155D01*
X52335216Y-66465840D01*
X52478127Y-66640443D01*
X52486557Y-66647643D01*
X52486559Y-66647645D01*
X52641266Y-66779778D01*
X52641270Y-66779781D01*
X52649698Y-66786979D01*
X52659267Y-66792571D01*
X52659276Y-66792577D01*
X52682493Y-66806143D01*
X52755203Y-66870582D01*
X52797718Y-66957941D01*
X52803566Y-67054920D01*
X52771856Y-67146754D01*
X52707417Y-67219464D01*
X52706456Y-67220132D01*
X52704846Y-67220963D01*
X52633405Y-67275782D01*
X52561233Y-67331162D01*
X52525841Y-67358319D01*
X52373988Y-67525203D01*
X52254088Y-67716341D01*
X52249955Y-67726622D01*
X52249953Y-67726626D01*
X52225661Y-67787055D01*
X52169930Y-67925690D01*
X52124175Y-68146633D01*
X52123885Y-68157715D01*
X52119091Y-68340772D01*
X52118268Y-68372187D01*
X52152397Y-68595223D01*
X52168454Y-68642121D01*
X52221317Y-68796520D01*
X52225483Y-68808689D01*
X52236745Y-68828922D01*
X52329822Y-68996150D01*
X52329825Y-68996155D01*
X52335216Y-69005840D01*
X52478127Y-69180443D01*
X52486557Y-69187643D01*
X52486559Y-69187645D01*
X52641266Y-69319778D01*
X52641270Y-69319781D01*
X52649698Y-69326979D01*
X52659267Y-69332571D01*
X52659276Y-69332577D01*
X52682493Y-69346143D01*
X52755203Y-69410582D01*
X52797718Y-69497941D01*
X52803566Y-69594920D01*
X52771856Y-69686754D01*
X52707417Y-69759464D01*
X52706456Y-69760132D01*
X52704846Y-69760963D01*
X52525841Y-69898319D01*
X52406019Y-70030001D01*
X52388824Y-70048899D01*
X52373988Y-70065203D01*
X52254088Y-70256341D01*
X52249955Y-70266622D01*
X52249953Y-70266626D01*
X52192848Y-70408679D01*
X52169930Y-70465690D01*
X52124175Y-70686633D01*
X52122911Y-70734901D01*
X52119433Y-70867714D01*
X52118268Y-70912187D01*
X52152397Y-71135223D01*
X52155989Y-71145714D01*
X52221317Y-71336520D01*
X52225483Y-71348689D01*
X52243170Y-71380466D01*
X52329822Y-71536150D01*
X52329825Y-71536155D01*
X52335216Y-71545840D01*
X52478127Y-71720443D01*
X52486557Y-71727643D01*
X52486559Y-71727645D01*
X52641266Y-71859778D01*
X52641270Y-71859781D01*
X52649698Y-71866979D01*
X52762797Y-71933068D01*
X52834936Y-71975223D01*
X52834939Y-71975225D01*
X52844508Y-71980816D01*
X52854913Y-71984624D01*
X52854918Y-71984626D01*
X52895731Y-71999561D01*
X53056397Y-72058356D01*
X53067316Y-72060262D01*
X53067317Y-72060262D01*
X53125044Y-72070337D01*
X53278668Y-72097149D01*
X53504297Y-72095968D01*
X53515205Y-72093946D01*
X53515208Y-72093946D01*
X53681186Y-72063184D01*
X53726150Y-72054850D01*
X53843702Y-72010431D01*
X53926843Y-71979015D01*
X53926847Y-71979013D01*
X53937216Y-71975095D01*
X53968480Y-71956384D01*
X54067956Y-71896848D01*
X54130822Y-71859223D01*
X54300850Y-71710899D01*
X54334612Y-71668757D01*
X54434993Y-71543461D01*
X54434996Y-71543457D01*
X54441924Y-71534809D01*
X54447215Y-71525064D01*
X54447629Y-71524441D01*
X54516147Y-71455562D01*
X54605808Y-71418146D01*
X54702963Y-71417890D01*
X54792820Y-71454834D01*
X54861699Y-71523352D01*
X54866971Y-71531954D01*
X54869822Y-71536149D01*
X54875216Y-71545840D01*
X55018127Y-71720443D01*
X55026557Y-71727643D01*
X55026559Y-71727645D01*
X55181266Y-71859778D01*
X55181270Y-71859781D01*
X55189698Y-71866979D01*
X55302797Y-71933068D01*
X55374936Y-71975223D01*
X55374939Y-71975225D01*
X55384508Y-71980816D01*
X55394913Y-71984624D01*
X55394918Y-71984626D01*
X55435731Y-71999561D01*
X55596397Y-72058356D01*
X55607316Y-72060262D01*
X55607317Y-72060262D01*
X55665044Y-72070337D01*
X55818668Y-72097149D01*
X56044297Y-72095968D01*
X56253675Y-72057162D01*
X56350819Y-72058434D01*
X56440084Y-72096786D01*
X56475119Y-72125923D01*
X58274786Y-73925591D01*
X60067772Y-75718577D01*
X60074989Y-75726104D01*
X60114211Y-75768757D01*
X60144362Y-75787451D01*
X60163673Y-75800723D01*
X60191939Y-75822179D01*
X60207722Y-75828428D01*
X60214766Y-75832397D01*
X60222160Y-75835689D01*
X60236590Y-75844636D01*
X60270667Y-75854536D01*
X60292848Y-75862131D01*
X60310034Y-75868936D01*
X60310037Y-75868937D01*
X60325821Y-75875186D01*
X60342706Y-75876960D01*
X60352989Y-75879486D01*
X60362334Y-75881167D01*
X60374867Y-75884809D01*
X60384277Y-75885500D01*
X60410898Y-75885500D01*
X60436926Y-75886864D01*
X60452146Y-75888464D01*
X60452148Y-75888464D01*
X60469027Y-75890238D01*
X60485760Y-75887408D01*
X60500900Y-75886932D01*
X60517949Y-75885500D01*
X64155448Y-75885500D01*
X64165874Y-75885718D01*
X64223788Y-75888145D01*
X64258316Y-75880046D01*
X64281366Y-75875774D01*
X64316526Y-75870958D01*
X64332106Y-75864216D01*
X64339885Y-75862044D01*
X64347449Y-75859141D01*
X64363978Y-75855264D01*
X64378852Y-75847087D01*
X64378855Y-75847086D01*
X64395054Y-75838181D01*
X64416113Y-75827864D01*
X64433099Y-75820513D01*
X64433102Y-75820511D01*
X64448677Y-75813771D01*
X64461869Y-75803088D01*
X64470904Y-75797616D01*
X64478721Y-75792183D01*
X64490161Y-75785894D01*
X64497303Y-75779729D01*
X64516125Y-75760907D01*
X64535494Y-75743468D01*
X64547387Y-75733837D01*
X64560582Y-75723152D01*
X64570417Y-75709312D01*
X64580782Y-75698275D01*
X64591826Y-75685206D01*
X67418603Y-72858430D01*
X67499385Y-72804454D01*
X67594673Y-72785500D01*
X67645094Y-72785500D01*
X67740382Y-72804454D01*
X67821164Y-72858430D01*
X67875140Y-72939212D01*
X67894094Y-73034500D01*
X67889808Y-73070449D01*
X67890949Y-73070593D01*
X67868443Y-73248753D01*
X67869801Y-73262604D01*
X67869801Y-73262607D01*
X67876390Y-73329808D01*
X67885966Y-73427473D01*
X67942649Y-73597869D01*
X68035675Y-73751472D01*
X68045346Y-73761486D01*
X68045347Y-73761488D01*
X68150746Y-73870632D01*
X68150749Y-73870635D01*
X68160419Y-73880648D01*
X68236171Y-73930219D01*
X68292858Y-73967314D01*
X68310682Y-73978978D01*
X68478996Y-74041573D01*
X68492792Y-74043414D01*
X68492793Y-74043414D01*
X68643202Y-74063483D01*
X68643205Y-74063483D01*
X68656995Y-74065323D01*
X68670852Y-74064062D01*
X68670856Y-74064062D01*
X68821969Y-74050310D01*
X68821973Y-74050309D01*
X68835832Y-74049048D01*
X69006620Y-73993556D01*
X69018576Y-73986429D01*
X69018580Y-73986427D01*
X69101463Y-73937018D01*
X69160869Y-73901605D01*
X69210669Y-73854181D01*
X69292745Y-73802195D01*
X69382384Y-73785500D01*
X77227021Y-73785500D01*
X77237447Y-73785718D01*
X77295361Y-73788145D01*
X77329889Y-73780046D01*
X77352939Y-73775774D01*
X77388099Y-73770958D01*
X77403679Y-73764216D01*
X77411458Y-73762044D01*
X77419022Y-73759141D01*
X77435551Y-73755264D01*
X77450425Y-73747087D01*
X77450428Y-73747086D01*
X77466627Y-73738181D01*
X77487686Y-73727864D01*
X77504672Y-73720513D01*
X77504675Y-73720511D01*
X77520250Y-73713771D01*
X77533442Y-73703088D01*
X77542477Y-73697616D01*
X77550294Y-73692183D01*
X77561734Y-73685894D01*
X77568876Y-73679729D01*
X77587698Y-73660907D01*
X77607067Y-73643468D01*
X77618960Y-73633837D01*
X77632155Y-73623152D01*
X77641990Y-73609312D01*
X77652355Y-73598275D01*
X77663399Y-73585206D01*
X80289469Y-70959137D01*
X80370251Y-70905161D01*
X80465539Y-70886207D01*
X80560827Y-70905161D01*
X80641604Y-70959134D01*
X80660517Y-70978046D01*
X80714490Y-71058824D01*
X80733444Y-71154112D01*
X80714490Y-71249400D01*
X80660514Y-71330182D01*
X78515288Y-73475408D01*
X78507761Y-73482625D01*
X78465108Y-73521847D01*
X78456162Y-73536276D01*
X78456159Y-73536279D01*
X78446419Y-73551987D01*
X78433135Y-73571316D01*
X78421950Y-73586052D01*
X78411685Y-73599576D01*
X78405435Y-73615363D01*
X78401466Y-73622406D01*
X78398175Y-73629798D01*
X78389229Y-73644226D01*
X78384494Y-73660524D01*
X78384491Y-73660531D01*
X78379333Y-73678286D01*
X78371735Y-73700480D01*
X78358678Y-73733458D01*
X78356903Y-73750342D01*
X78354385Y-73760594D01*
X78352699Y-73769964D01*
X78349056Y-73782503D01*
X78348365Y-73791913D01*
X78348365Y-73818525D01*
X78347001Y-73844553D01*
X78345569Y-73858181D01*
X78343626Y-73876663D01*
X78346456Y-73893397D01*
X78346932Y-73908527D01*
X78348365Y-73925591D01*
X78348364Y-76454671D01*
X78329410Y-76549959D01*
X78273975Y-76630168D01*
X78271232Y-76632161D01*
X78261246Y-76644233D01*
X78261243Y-76644235D01*
X78176482Y-76746694D01*
X78176480Y-76746698D01*
X78166496Y-76758766D01*
X78096534Y-76907439D01*
X78093599Y-76922823D01*
X78093599Y-76922824D01*
X78075853Y-77015855D01*
X78069452Y-77049408D01*
X78069452Y-77799578D01*
X78075547Y-77847824D01*
X78082507Y-77902914D01*
X78085046Y-77923015D01*
X78145533Y-78075789D01*
X78154739Y-78088459D01*
X78154740Y-78088462D01*
X78227485Y-78188586D01*
X78242113Y-78208720D01*
X78293285Y-78251053D01*
X78313083Y-78267431D01*
X78374422Y-78342774D01*
X78402260Y-78435855D01*
X78392358Y-78532504D01*
X78346223Y-78618007D01*
X78300725Y-78660733D01*
X78271232Y-78682161D01*
X78261250Y-78694227D01*
X78261247Y-78694230D01*
X78176482Y-78796694D01*
X78176480Y-78796698D01*
X78166496Y-78808766D01*
X78159825Y-78822941D01*
X78159825Y-78822942D01*
X78151081Y-78841523D01*
X78093358Y-78919671D01*
X78010123Y-78969781D01*
X77925781Y-78984500D01*
X77656991Y-78984500D01*
X77561703Y-78965546D01*
X77480921Y-78911570D01*
X77459447Y-78886426D01*
X77451920Y-78871653D01*
X77362211Y-78781944D01*
X77249170Y-78724347D01*
X77186165Y-78714368D01*
X77133526Y-78706030D01*
X77133522Y-78706030D01*
X77123864Y-78704500D01*
X76223864Y-78704500D01*
X76214206Y-78706030D01*
X76214202Y-78706030D01*
X76161563Y-78714368D01*
X76098558Y-78724347D01*
X75985517Y-78781944D01*
X75895808Y-78871653D01*
X75886913Y-78889111D01*
X75886912Y-78889112D01*
X75871342Y-78919671D01*
X75838211Y-78984694D01*
X75818364Y-79110000D01*
X75818364Y-79586957D01*
X75799410Y-79682245D01*
X75745434Y-79763027D01*
X75664652Y-79817003D01*
X75569364Y-79835957D01*
X75474076Y-79817003D01*
X75393294Y-79763027D01*
X75362211Y-79731944D01*
X75344752Y-79723048D01*
X75266628Y-79683242D01*
X75266627Y-79683242D01*
X75249170Y-79674347D01*
X75184310Y-79664074D01*
X75133526Y-79656030D01*
X75133522Y-79656030D01*
X75123864Y-79654500D01*
X74223864Y-79654500D01*
X74214206Y-79656030D01*
X74214202Y-79656030D01*
X74163418Y-79664074D01*
X74098558Y-79674347D01*
X74081101Y-79683242D01*
X74081100Y-79683242D01*
X74002976Y-79723048D01*
X73985517Y-79731944D01*
X73977269Y-79740192D01*
X73894811Y-79778204D01*
X73797731Y-79782017D01*
X73706582Y-79748389D01*
X73635242Y-79682443D01*
X73635099Y-79682245D01*
X73601703Y-79636280D01*
X73530733Y-79577569D01*
X73469394Y-79502226D01*
X73441556Y-79409145D01*
X73451458Y-79312496D01*
X73497593Y-79226993D01*
X73543091Y-79184267D01*
X73572584Y-79162839D01*
X73582566Y-79150773D01*
X73582569Y-79150770D01*
X73667334Y-79048306D01*
X73667336Y-79048302D01*
X73677320Y-79036234D01*
X73747282Y-78887561D01*
X73750317Y-78871653D01*
X73772165Y-78757121D01*
X73772165Y-78757118D01*
X73774364Y-78745592D01*
X73774364Y-77995422D01*
X73765217Y-77923015D01*
X73760734Y-77887529D01*
X73760733Y-77887527D01*
X73758770Y-77871985D01*
X73698283Y-77719211D01*
X73682830Y-77697941D01*
X73610909Y-77598951D01*
X73601703Y-77586280D01*
X73589637Y-77576298D01*
X73589634Y-77576295D01*
X73487169Y-77491530D01*
X73475098Y-77481544D01*
X73342344Y-77419074D01*
X73264195Y-77361352D01*
X73214084Y-77278118D01*
X73199364Y-77193773D01*
X73199364Y-76971667D01*
X73218318Y-76876379D01*
X73271998Y-76798130D01*
X73271881Y-76798032D01*
X73272891Y-76796828D01*
X73276652Y-76791346D01*
X73280827Y-76787370D01*
X73280828Y-76787369D01*
X73290913Y-76777765D01*
X73390289Y-76628192D01*
X73420007Y-76549959D01*
X73449115Y-76473333D01*
X73449115Y-76473331D01*
X73454058Y-76460320D01*
X73464423Y-76386571D01*
X73477962Y-76290234D01*
X73477962Y-76290231D01*
X73479050Y-76282491D01*
X73479364Y-76260000D01*
X73478103Y-76248753D01*
X73460899Y-76095380D01*
X73459347Y-76081543D01*
X73454769Y-76068396D01*
X73404868Y-75925100D01*
X73404866Y-75925097D01*
X73400290Y-75911955D01*
X73343151Y-75820513D01*
X73312504Y-75771467D01*
X73312502Y-75771465D01*
X73305129Y-75759665D01*
X73178593Y-75632243D01*
X73137958Y-75606455D01*
X73038734Y-75543485D01*
X73038731Y-75543484D01*
X73026972Y-75536021D01*
X73013327Y-75531162D01*
X72975830Y-75517810D01*
X72857801Y-75475782D01*
X72843986Y-75474135D01*
X72843983Y-75474134D01*
X72708890Y-75458026D01*
X72679487Y-75454520D01*
X72500895Y-75473290D01*
X72487716Y-75477777D01*
X72487714Y-75477777D01*
X72415897Y-75502226D01*
X72330899Y-75531162D01*
X72177949Y-75625257D01*
X72116731Y-75685206D01*
X72078903Y-75722250D01*
X72049646Y-75750900D01*
X72008030Y-75815476D01*
X71961198Y-75888145D01*
X71952368Y-75901846D01*
X71890949Y-76070593D01*
X71868443Y-76248753D01*
X71869801Y-76262604D01*
X71869801Y-76262607D01*
X71877004Y-76336068D01*
X71885966Y-76427473D01*
X71942649Y-76597869D01*
X71976958Y-76654519D01*
X72023209Y-76730888D01*
X72035675Y-76751472D01*
X72078479Y-76795796D01*
X72131038Y-76877507D01*
X72148365Y-76968769D01*
X72148364Y-77196225D01*
X72129410Y-77291513D01*
X72075433Y-77372294D01*
X71991027Y-77427738D01*
X71908075Y-77460581D01*
X71895405Y-77469787D01*
X71895402Y-77469788D01*
X71791776Y-77545077D01*
X71775144Y-77557161D01*
X71765162Y-77569227D01*
X71765159Y-77569230D01*
X71680394Y-77671694D01*
X71680392Y-77671698D01*
X71670408Y-77683766D01*
X71600446Y-77832439D01*
X71597511Y-77847823D01*
X71597511Y-77847824D01*
X71575721Y-77962054D01*
X71573364Y-77974408D01*
X71573364Y-78724578D01*
X71574345Y-78732341D01*
X71584000Y-78808766D01*
X71588958Y-78848015D01*
X71649445Y-79000789D01*
X71658651Y-79013459D01*
X71658652Y-79013462D01*
X71728791Y-79110000D01*
X71746025Y-79133720D01*
X71808617Y-79185500D01*
X71816995Y-79192431D01*
X71878334Y-79267774D01*
X71906172Y-79360855D01*
X71896270Y-79457504D01*
X71850135Y-79543007D01*
X71804637Y-79585733D01*
X71775144Y-79607161D01*
X71765162Y-79619227D01*
X71765159Y-79619230D01*
X71680394Y-79721694D01*
X71680392Y-79721698D01*
X71670408Y-79733766D01*
X71600446Y-79882439D01*
X71573364Y-80024408D01*
X71573364Y-80774578D01*
X71574345Y-80782341D01*
X71584404Y-80861964D01*
X71588958Y-80898015D01*
X71649445Y-81050789D01*
X71658651Y-81063459D01*
X71658652Y-81063462D01*
X71722135Y-81150838D01*
X71746025Y-81183720D01*
X71758091Y-81193702D01*
X71758094Y-81193705D01*
X71828284Y-81251770D01*
X71872630Y-81288456D01*
X71886805Y-81295126D01*
X71886806Y-81295127D01*
X71915076Y-81308430D01*
X72021303Y-81358417D01*
X72106186Y-81374609D01*
X72151743Y-81383300D01*
X72151746Y-81383300D01*
X72163272Y-81385499D01*
X72763527Y-81385500D01*
X73163442Y-81385500D01*
X73220127Y-81378339D01*
X73271335Y-81371870D01*
X73271337Y-81371869D01*
X73286879Y-81369906D01*
X73439653Y-81309419D01*
X73452323Y-81300213D01*
X73452326Y-81300212D01*
X73559913Y-81222045D01*
X73572584Y-81212839D01*
X73596326Y-81184140D01*
X73671670Y-81122802D01*
X73764752Y-81094966D01*
X73861401Y-81104869D01*
X73946903Y-81151005D01*
X73964252Y-81166791D01*
X73985517Y-81188056D01*
X74002975Y-81196951D01*
X74002976Y-81196952D01*
X74078632Y-81235500D01*
X74098558Y-81245653D01*
X74154124Y-81254454D01*
X74214202Y-81263970D01*
X74214206Y-81263970D01*
X74223864Y-81265500D01*
X75123864Y-81265500D01*
X75133522Y-81263970D01*
X75133526Y-81263970D01*
X75193604Y-81254454D01*
X75249170Y-81245653D01*
X75269097Y-81235500D01*
X75344752Y-81196952D01*
X75344753Y-81196951D01*
X75362211Y-81188056D01*
X75406127Y-81144140D01*
X75486909Y-81090164D01*
X75582197Y-81071210D01*
X75677485Y-81090164D01*
X75758267Y-81144140D01*
X75763763Y-81150838D01*
X75770730Y-81155492D01*
X75793391Y-81160000D01*
X76423860Y-81160001D01*
X76423870Y-81160000D01*
X77554337Y-81160001D01*
X77574795Y-81155932D01*
X77578864Y-81135474D01*
X77578864Y-81012354D01*
X77578776Y-81007649D01*
X77578028Y-80987642D01*
X77574999Y-80964637D01*
X77551565Y-80861964D01*
X77538082Y-80827610D01*
X77488926Y-80742470D01*
X77465919Y-80713621D01*
X77393856Y-80646755D01*
X77376902Y-80635196D01*
X77308849Y-80565857D01*
X77272511Y-80475754D01*
X77273420Y-80378603D01*
X77311437Y-80289195D01*
X77359955Y-80239205D01*
X77362211Y-80238056D01*
X77451920Y-80148347D01*
X77458521Y-80135392D01*
X77526887Y-80072193D01*
X77618037Y-80038566D01*
X77656991Y-80035500D01*
X77953062Y-80035500D01*
X78048350Y-80054454D01*
X78129132Y-80108430D01*
X78154507Y-80138141D01*
X78161922Y-80148347D01*
X78242113Y-80258720D01*
X78254179Y-80268702D01*
X78254182Y-80268705D01*
X78347277Y-80345719D01*
X78368718Y-80363456D01*
X78382893Y-80370126D01*
X78382894Y-80370127D01*
X78410342Y-80383043D01*
X78517391Y-80433417D01*
X78602274Y-80449609D01*
X78647831Y-80458300D01*
X78647834Y-80458300D01*
X78659360Y-80460499D01*
X79259615Y-80460500D01*
X79659530Y-80460500D01*
X79716215Y-80453339D01*
X79767423Y-80446870D01*
X79767425Y-80446869D01*
X79782967Y-80444906D01*
X79807699Y-80435114D01*
X79903273Y-80417658D01*
X79998252Y-80438105D01*
X80078176Y-80493343D01*
X80130878Y-80574961D01*
X80148365Y-80666627D01*
X80148365Y-83993564D01*
X80129411Y-84088852D01*
X80075435Y-84169634D01*
X79994653Y-84223610D01*
X79899365Y-84242564D01*
X79804077Y-84223610D01*
X79722095Y-84166950D01*
X79717976Y-84161280D01*
X79705904Y-84151294D01*
X79705902Y-84151291D01*
X79603443Y-84066530D01*
X79603439Y-84066528D01*
X79591371Y-84056544D01*
X79442698Y-83986582D01*
X79427314Y-83983647D01*
X79427313Y-83983647D01*
X79312258Y-83961699D01*
X79312255Y-83961699D01*
X79300729Y-83959500D01*
X78500559Y-83959500D01*
X78451585Y-83965687D01*
X78392666Y-83973130D01*
X78392664Y-83973131D01*
X78377122Y-83975094D01*
X78224348Y-84035581D01*
X78211678Y-84044787D01*
X78211675Y-84044788D01*
X78147341Y-84091530D01*
X78091417Y-84132161D01*
X78081433Y-84144230D01*
X78070012Y-84154955D01*
X78069033Y-84153913D01*
X78007137Y-84204306D01*
X77914056Y-84232145D01*
X77817407Y-84222244D01*
X77731904Y-84176111D01*
X77721983Y-84166795D01*
X77717976Y-84161280D01*
X77630425Y-84088852D01*
X77603443Y-84066530D01*
X77603439Y-84066528D01*
X77591371Y-84056544D01*
X77442698Y-83986582D01*
X77427314Y-83983647D01*
X77427313Y-83983647D01*
X77312258Y-83961699D01*
X77312255Y-83961699D01*
X77300729Y-83959500D01*
X76500559Y-83959500D01*
X76451585Y-83965687D01*
X76392666Y-83973130D01*
X76392664Y-83973131D01*
X76377122Y-83975094D01*
X76224348Y-84035581D01*
X76211678Y-84044787D01*
X76211675Y-84044788D01*
X76147341Y-84091530D01*
X76091417Y-84132161D01*
X76081435Y-84144227D01*
X76081432Y-84144230D01*
X76036164Y-84198951D01*
X75986681Y-84258766D01*
X75980011Y-84272941D01*
X75980010Y-84272942D01*
X75924211Y-84391520D01*
X75866489Y-84469669D01*
X75783255Y-84519780D01*
X75698910Y-84534500D01*
X75440242Y-84534500D01*
X75344954Y-84515546D01*
X75264172Y-84461570D01*
X75208727Y-84377162D01*
X75191549Y-84333774D01*
X75191548Y-84333773D01*
X75185783Y-84319211D01*
X75167620Y-84294211D01*
X75098409Y-84198951D01*
X75089203Y-84186280D01*
X75077137Y-84176298D01*
X75077134Y-84176295D01*
X74984039Y-84099281D01*
X74962598Y-84081544D01*
X74813925Y-84011583D01*
X74798541Y-84008648D01*
X74798537Y-84008647D01*
X74683495Y-83986701D01*
X74683492Y-83986701D01*
X74671956Y-83984500D01*
X73496786Y-83984500D01*
X73440101Y-83991661D01*
X73388893Y-83998130D01*
X73388891Y-83998131D01*
X73373349Y-84000094D01*
X73220575Y-84060581D01*
X73207905Y-84069787D01*
X73207902Y-84069788D01*
X73105442Y-84144230D01*
X73087644Y-84157161D01*
X73077662Y-84169227D01*
X73077661Y-84169228D01*
X73007101Y-84254520D01*
X72982907Y-84283766D01*
X72912946Y-84432439D01*
X72885864Y-84574408D01*
X72885864Y-85524578D01*
X72889262Y-85551472D01*
X72898581Y-85625239D01*
X72901458Y-85648015D01*
X72961945Y-85800789D01*
X72971151Y-85813459D01*
X72971152Y-85813462D01*
X73003466Y-85857938D01*
X73058525Y-85933720D01*
X73070591Y-85943702D01*
X73070594Y-85943705D01*
X73152034Y-86011077D01*
X73185130Y-86038456D01*
X73333803Y-86108417D01*
X73349187Y-86111352D01*
X73349191Y-86111353D01*
X73464233Y-86133299D01*
X73464236Y-86133299D01*
X73475772Y-86135500D01*
X74650942Y-86135500D01*
X74707627Y-86128339D01*
X74758835Y-86121870D01*
X74758837Y-86121869D01*
X74774379Y-86119906D01*
X74927153Y-86059419D01*
X74939823Y-86050213D01*
X74939826Y-86050212D01*
X75047413Y-85972045D01*
X75060084Y-85962839D01*
X75084174Y-85933720D01*
X75154836Y-85848304D01*
X75154837Y-85848303D01*
X75164821Y-85836234D01*
X75215527Y-85728480D01*
X75273249Y-85650331D01*
X75356484Y-85600220D01*
X75440828Y-85585500D01*
X75701361Y-85585500D01*
X75796649Y-85604454D01*
X75877431Y-85658430D01*
X75932875Y-85742837D01*
X75965718Y-85825789D01*
X75974924Y-85838459D01*
X75974925Y-85838462D01*
X76031038Y-85915694D01*
X76062298Y-85958720D01*
X76074364Y-85968702D01*
X76074367Y-85968705D01*
X76176831Y-86053470D01*
X76176835Y-86053472D01*
X76188903Y-86063456D01*
X76337576Y-86133418D01*
X76352960Y-86136353D01*
X76352961Y-86136353D01*
X76468016Y-86158301D01*
X76468019Y-86158301D01*
X76479545Y-86160500D01*
X77279715Y-86160500D01*
X77336400Y-86153339D01*
X77387608Y-86146870D01*
X77387610Y-86146869D01*
X77403152Y-86144906D01*
X77555926Y-86084419D01*
X77568596Y-86075213D01*
X77568599Y-86075212D01*
X77676186Y-85997045D01*
X77688857Y-85987839D01*
X77698841Y-85975770D01*
X77710262Y-85965045D01*
X77711241Y-85966087D01*
X77773137Y-85915694D01*
X77866218Y-85887855D01*
X77962867Y-85897756D01*
X78048370Y-85943889D01*
X78058291Y-85953205D01*
X78062298Y-85958720D01*
X78117832Y-86004661D01*
X78176831Y-86053470D01*
X78176835Y-86053472D01*
X78188903Y-86063456D01*
X78337576Y-86133418D01*
X78352960Y-86136353D01*
X78352961Y-86136353D01*
X78468016Y-86158301D01*
X78468019Y-86158301D01*
X78479545Y-86160500D01*
X79279715Y-86160500D01*
X79336400Y-86153339D01*
X79387608Y-86146870D01*
X79387610Y-86146869D01*
X79403152Y-86144906D01*
X79555926Y-86084419D01*
X79568596Y-86075213D01*
X79568599Y-86075212D01*
X79676186Y-85997045D01*
X79688857Y-85987839D01*
X79698839Y-85975773D01*
X79698842Y-85975770D01*
X79783607Y-85873305D01*
X79793593Y-85861234D01*
X79810273Y-85825789D01*
X79855562Y-85729545D01*
X79913284Y-85651396D01*
X79996519Y-85601285D01*
X80091289Y-85586783D01*
X80123788Y-85588145D01*
X80158316Y-85580046D01*
X80181366Y-85575774D01*
X80216526Y-85570958D01*
X80232106Y-85564216D01*
X80239885Y-85562044D01*
X80247449Y-85559141D01*
X80263978Y-85555264D01*
X80278852Y-85547087D01*
X80278855Y-85547086D01*
X80295054Y-85538181D01*
X80316113Y-85527864D01*
X80333099Y-85520513D01*
X80333102Y-85520511D01*
X80348677Y-85513771D01*
X80361868Y-85503089D01*
X80370371Y-85497939D01*
X80461695Y-85464787D01*
X80558754Y-85469107D01*
X80646771Y-85510241D01*
X80712347Y-85581927D01*
X80745499Y-85673251D01*
X80748365Y-85710921D01*
X80748365Y-86139190D01*
X80729411Y-86234478D01*
X80675435Y-86315260D01*
X78929126Y-88061570D01*
X78848344Y-88115546D01*
X78753056Y-88134500D01*
X71492280Y-88134500D01*
X71481854Y-88134282D01*
X71481461Y-88134266D01*
X71423939Y-88131855D01*
X71395848Y-88138443D01*
X71389410Y-88139953D01*
X71366349Y-88144227D01*
X71331202Y-88149042D01*
X71315618Y-88155786D01*
X71307821Y-88157963D01*
X71300277Y-88160859D01*
X71283750Y-88164735D01*
X71268876Y-88172912D01*
X71268874Y-88172913D01*
X71252668Y-88181823D01*
X71231609Y-88192140D01*
X71199051Y-88206229D01*
X71185857Y-88216913D01*
X71176811Y-88222392D01*
X71169004Y-88227818D01*
X71157566Y-88234106D01*
X71150424Y-88240271D01*
X71131597Y-88259098D01*
X71112229Y-88276536D01*
X71087146Y-88296848D01*
X71077311Y-88310688D01*
X71066943Y-88321728D01*
X71055904Y-88334791D01*
X69775218Y-89615477D01*
X69694436Y-89669453D01*
X69599148Y-89688407D01*
X69545678Y-89682598D01*
X69535746Y-89680414D01*
X69525675Y-89677287D01*
X69515226Y-89675902D01*
X69515221Y-89675901D01*
X69300522Y-89647445D01*
X69300521Y-89647445D01*
X69290072Y-89646060D01*
X69279545Y-89646455D01*
X69279541Y-89646455D01*
X69176787Y-89650313D01*
X69052577Y-89654976D01*
X69042260Y-89657141D01*
X69042258Y-89657141D01*
X68830300Y-89701614D01*
X68830295Y-89701615D01*
X68819979Y-89703780D01*
X68810172Y-89707653D01*
X68608735Y-89787204D01*
X68608731Y-89787206D01*
X68598929Y-89791077D01*
X68589923Y-89796542D01*
X68589917Y-89796545D01*
X68492803Y-89855476D01*
X68395749Y-89914370D01*
X68387785Y-89921281D01*
X68387782Y-89921283D01*
X68311844Y-89987178D01*
X68216246Y-90070134D01*
X68065555Y-90253916D01*
X68060345Y-90263069D01*
X68060342Y-90263073D01*
X67953198Y-90451298D01*
X67947983Y-90460460D01*
X67944386Y-90470370D01*
X67870489Y-90673950D01*
X67870487Y-90673956D01*
X67866892Y-90683861D01*
X67865016Y-90694238D01*
X67865015Y-90694240D01*
X67826479Y-90907348D01*
X67826478Y-90907354D01*
X67824602Y-90917731D01*
X67823850Y-90996010D01*
X67822697Y-91116164D01*
X67822320Y-91155383D01*
X67860113Y-91390021D01*
X67936900Y-91614938D01*
X67941937Y-91624196D01*
X67941938Y-91624198D01*
X68014191Y-91756995D01*
X68050485Y-91823701D01*
X68197621Y-92010341D01*
X68205457Y-92017409D01*
X68365283Y-92161570D01*
X68374100Y-92169523D01*
X68383006Y-92175164D01*
X68514611Y-92258522D01*
X68574876Y-92296694D01*
X68794209Y-92388218D01*
X68804487Y-92390582D01*
X68804489Y-92390582D01*
X69015558Y-92439117D01*
X69015562Y-92439118D01*
X69025827Y-92441478D01*
X69263108Y-92454952D01*
X69499266Y-92428254D01*
X69727550Y-92362147D01*
X69941432Y-92258522D01*
X70134797Y-92120342D01*
X70147858Y-92107167D01*
X70294682Y-91959055D01*
X70302115Y-91951557D01*
X70438602Y-91756995D01*
X70540357Y-91542216D01*
X70604469Y-91313364D01*
X70606475Y-91294124D01*
X70628499Y-91082799D01*
X70628499Y-91082794D01*
X70629105Y-91076982D01*
X70629364Y-91050000D01*
X70617260Y-90907348D01*
X70610162Y-90823695D01*
X70610161Y-90823690D01*
X70609270Y-90813188D01*
X70549563Y-90583148D01*
X70545233Y-90573536D01*
X70545231Y-90573530D01*
X70540773Y-90563632D01*
X70518920Y-90468967D01*
X70534958Y-90373144D01*
X70591734Y-90285299D01*
X71085957Y-89791077D01*
X71618604Y-89258430D01*
X71699386Y-89204454D01*
X71794674Y-89185500D01*
X73390794Y-89185500D01*
X73486082Y-89204454D01*
X73566864Y-89258430D01*
X73620840Y-89339212D01*
X73639794Y-89434500D01*
X73620840Y-89529788D01*
X73566864Y-89610570D01*
X73486082Y-89664546D01*
X73441937Y-89678191D01*
X73319979Y-89703780D01*
X73310172Y-89707653D01*
X73108735Y-89787204D01*
X73108731Y-89787206D01*
X73098929Y-89791077D01*
X73089923Y-89796542D01*
X73089917Y-89796545D01*
X72992803Y-89855476D01*
X72895749Y-89914370D01*
X72887785Y-89921281D01*
X72887782Y-89921283D01*
X72811844Y-89987178D01*
X72716246Y-90070134D01*
X72565555Y-90253916D01*
X72560345Y-90263069D01*
X72560342Y-90263073D01*
X72453198Y-90451298D01*
X72447983Y-90460460D01*
X72444386Y-90470370D01*
X72370489Y-90673950D01*
X72370487Y-90673956D01*
X72366892Y-90683861D01*
X72365016Y-90694238D01*
X72365015Y-90694240D01*
X72326479Y-90907348D01*
X72326478Y-90907354D01*
X72324602Y-90917731D01*
X72323850Y-90996010D01*
X72322697Y-91116164D01*
X72322320Y-91155383D01*
X72360113Y-91390021D01*
X72436900Y-91614938D01*
X72441937Y-91624196D01*
X72441938Y-91624198D01*
X72514191Y-91756995D01*
X72550485Y-91823701D01*
X72697621Y-92010341D01*
X72705457Y-92017409D01*
X72865283Y-92161570D01*
X72874100Y-92169523D01*
X72883006Y-92175164D01*
X73014611Y-92258522D01*
X73074876Y-92296694D01*
X73294209Y-92388218D01*
X73304487Y-92390582D01*
X73304489Y-92390582D01*
X73515558Y-92439117D01*
X73515562Y-92439118D01*
X73525827Y-92441478D01*
X73763108Y-92454952D01*
X73999266Y-92428254D01*
X74227550Y-92362147D01*
X74441432Y-92258522D01*
X74634797Y-92120342D01*
X74647858Y-92107167D01*
X74794682Y-91959055D01*
X74802115Y-91951557D01*
X74938602Y-91756995D01*
X75040357Y-91542216D01*
X75104469Y-91313364D01*
X75106475Y-91294124D01*
X75128499Y-91082799D01*
X75128499Y-91082794D01*
X75129105Y-91076982D01*
X75129364Y-91050000D01*
X75117260Y-90907348D01*
X75110162Y-90823695D01*
X75110161Y-90823690D01*
X75109270Y-90813188D01*
X75049563Y-90583148D01*
X74951951Y-90366456D01*
X74819224Y-90169308D01*
X74718028Y-90063228D01*
X74662461Y-90004979D01*
X74662457Y-90004976D01*
X74655176Y-89997343D01*
X74464500Y-89855476D01*
X74455104Y-89850699D01*
X74455101Y-89850697D01*
X74330219Y-89787204D01*
X74252647Y-89747764D01*
X74242583Y-89744639D01*
X74242578Y-89744637D01*
X74123469Y-89707653D01*
X74025675Y-89677287D01*
X74021035Y-89676672D01*
X73934368Y-89638719D01*
X73867061Y-89568656D01*
X73831690Y-89478168D01*
X73833639Y-89381033D01*
X73872612Y-89292037D01*
X73942675Y-89224730D01*
X74033163Y-89189359D01*
X74076831Y-89185500D01*
X79055448Y-89185500D01*
X79065874Y-89185718D01*
X79123788Y-89188145D01*
X79158316Y-89180046D01*
X79181366Y-89175774D01*
X79216526Y-89170958D01*
X79232106Y-89164216D01*
X79239885Y-89162044D01*
X79247449Y-89159141D01*
X79263978Y-89155264D01*
X79278852Y-89147087D01*
X79278855Y-89147086D01*
X79295054Y-89138181D01*
X79316113Y-89127864D01*
X79333099Y-89120513D01*
X79333102Y-89120511D01*
X79348677Y-89113771D01*
X79361869Y-89103088D01*
X79370904Y-89097616D01*
X79378721Y-89092183D01*
X79390161Y-89085894D01*
X79397303Y-89079729D01*
X79416125Y-89060907D01*
X79435494Y-89043468D01*
X79447387Y-89033837D01*
X79460582Y-89023152D01*
X79470417Y-89009312D01*
X79480782Y-88998275D01*
X79491826Y-88985206D01*
X81123295Y-87353738D01*
X81204077Y-87299762D01*
X81299365Y-87280808D01*
X81394653Y-87299762D01*
X81475435Y-87353738D01*
X81529411Y-87434520D01*
X81548365Y-87529808D01*
X81548365Y-88879191D01*
X81529411Y-88974479D01*
X81475435Y-89055260D01*
X81176180Y-89354516D01*
X80882074Y-89648622D01*
X80801292Y-89702599D01*
X80706004Y-89721553D01*
X80632165Y-89710353D01*
X80535750Y-89680415D01*
X80535746Y-89680414D01*
X80525675Y-89677287D01*
X80290072Y-89646060D01*
X80279545Y-89646455D01*
X80279541Y-89646455D01*
X80176787Y-89650313D01*
X80052577Y-89654976D01*
X80042260Y-89657141D01*
X80042258Y-89657141D01*
X79830300Y-89701614D01*
X79830295Y-89701615D01*
X79819979Y-89703780D01*
X79810172Y-89707653D01*
X79608735Y-89787204D01*
X79608731Y-89787206D01*
X79598929Y-89791077D01*
X79589923Y-89796542D01*
X79589917Y-89796545D01*
X79492803Y-89855476D01*
X79395749Y-89914370D01*
X79387785Y-89921281D01*
X79387782Y-89921283D01*
X79311844Y-89987178D01*
X79216246Y-90070134D01*
X79065555Y-90253916D01*
X79060345Y-90263069D01*
X79060342Y-90263073D01*
X78953198Y-90451298D01*
X78947983Y-90460460D01*
X78944386Y-90470370D01*
X78870489Y-90673950D01*
X78870487Y-90673956D01*
X78866892Y-90683861D01*
X78865016Y-90694238D01*
X78865015Y-90694240D01*
X78826479Y-90907348D01*
X78826478Y-90907354D01*
X78824602Y-90917731D01*
X78823850Y-90996010D01*
X78822697Y-91116164D01*
X78822320Y-91155383D01*
X78860113Y-91390021D01*
X78936900Y-91614938D01*
X78941937Y-91624196D01*
X78941938Y-91624198D01*
X79014191Y-91756995D01*
X79050485Y-91823701D01*
X79197621Y-92010341D01*
X79205457Y-92017409D01*
X79365283Y-92161570D01*
X79374100Y-92169523D01*
X79383006Y-92175164D01*
X79514611Y-92258522D01*
X79574876Y-92296694D01*
X79794209Y-92388218D01*
X79804487Y-92390582D01*
X79804489Y-92390582D01*
X80015558Y-92439117D01*
X80015562Y-92439118D01*
X80025827Y-92441478D01*
X80263108Y-92454952D01*
X80499266Y-92428254D01*
X80727550Y-92362147D01*
X80941432Y-92258522D01*
X81134797Y-92120342D01*
X81147858Y-92107167D01*
X81294682Y-91959055D01*
X81302115Y-91951557D01*
X81438602Y-91756995D01*
X81540357Y-91542216D01*
X81604469Y-91313364D01*
X81606475Y-91294124D01*
X81628499Y-91082799D01*
X81628499Y-91082794D01*
X81629105Y-91076982D01*
X81629364Y-91050000D01*
X81617260Y-90907348D01*
X81610162Y-90823695D01*
X81610161Y-90823690D01*
X81609270Y-90813188D01*
X81561515Y-90629197D01*
X81555922Y-90532204D01*
X81587873Y-90440453D01*
X81626460Y-90390572D01*
X82297949Y-89719084D01*
X82378730Y-89665108D01*
X82474018Y-89646154D01*
X82569306Y-89665108D01*
X82653770Y-89723806D01*
X82654136Y-89723440D01*
X82657355Y-89726659D01*
X82672960Y-89742265D01*
X82690392Y-89761625D01*
X82710713Y-89786718D01*
X82724551Y-89796552D01*
X82735594Y-89806922D01*
X82748656Y-89817960D01*
X83320788Y-90390092D01*
X83374764Y-90470874D01*
X83393718Y-90566162D01*
X83378776Y-90651121D01*
X83366892Y-90683861D01*
X83365016Y-90694238D01*
X83365015Y-90694240D01*
X83326479Y-90907348D01*
X83326478Y-90907354D01*
X83324602Y-90917731D01*
X83323850Y-90996010D01*
X83322697Y-91116164D01*
X83322320Y-91155383D01*
X83360113Y-91390021D01*
X83436900Y-91614938D01*
X83441937Y-91624196D01*
X83441938Y-91624198D01*
X83514191Y-91756995D01*
X83550485Y-91823701D01*
X83697621Y-92010341D01*
X83705457Y-92017409D01*
X83865283Y-92161570D01*
X83874100Y-92169523D01*
X83883006Y-92175164D01*
X84014611Y-92258522D01*
X84074876Y-92296694D01*
X84294209Y-92388218D01*
X84304487Y-92390582D01*
X84304489Y-92390582D01*
X84515558Y-92439117D01*
X84515562Y-92439118D01*
X84525827Y-92441478D01*
X84763108Y-92454952D01*
X84999266Y-92428254D01*
X85227550Y-92362147D01*
X85441432Y-92258522D01*
X85634797Y-92120342D01*
X85647858Y-92107167D01*
X85794682Y-91959055D01*
X85802115Y-91951557D01*
X85938602Y-91756995D01*
X86040357Y-91542216D01*
X86094589Y-91348631D01*
X86138546Y-91261989D01*
X86212313Y-91198763D01*
X86304660Y-91168579D01*
X86401529Y-91176033D01*
X86488171Y-91219990D01*
X86510427Y-91239731D01*
X88023218Y-92752523D01*
X89489272Y-94218577D01*
X89496489Y-94226104D01*
X89535711Y-94268757D01*
X89565862Y-94287451D01*
X89585173Y-94300723D01*
X89613439Y-94322179D01*
X89629222Y-94328428D01*
X89636266Y-94332397D01*
X89643660Y-94335689D01*
X89658090Y-94344636D01*
X89692167Y-94354536D01*
X89714348Y-94362131D01*
X89731534Y-94368936D01*
X89731537Y-94368937D01*
X89747321Y-94375186D01*
X89764206Y-94376960D01*
X89774489Y-94379486D01*
X89783832Y-94381167D01*
X89796367Y-94384809D01*
X89805777Y-94385500D01*
X89807914Y-94385500D01*
X89822225Y-94388075D01*
X89821861Y-94390097D01*
X89895581Y-94407588D01*
X89974333Y-94464484D01*
X90025316Y-94547187D01*
X90040770Y-94643105D01*
X90018341Y-94737636D01*
X89997636Y-94774310D01*
X89964506Y-94822878D01*
X89954446Y-94840586D01*
X89862656Y-95038329D01*
X89855628Y-95057430D01*
X89797367Y-95267511D01*
X89793550Y-95287525D01*
X89770384Y-95504285D01*
X89769887Y-95524658D01*
X89782435Y-95742290D01*
X89785272Y-95762472D01*
X89833197Y-95975134D01*
X89839289Y-95994574D01*
X89921306Y-96196555D01*
X89930493Y-96214743D01*
X90022195Y-96364387D01*
X90036355Y-96379705D01*
X90041932Y-96377647D01*
X90045390Y-96374921D01*
X91047794Y-95372517D01*
X91128576Y-95318541D01*
X91223864Y-95299587D01*
X91319152Y-95318541D01*
X91399934Y-95372517D01*
X92393389Y-96365972D01*
X92410730Y-96377559D01*
X92418684Y-96372244D01*
X92465084Y-96307671D01*
X92475567Y-96290225D01*
X92572163Y-96094779D01*
X92579658Y-96075849D01*
X92643034Y-95867254D01*
X92647338Y-95847347D01*
X92676263Y-95627637D01*
X92677289Y-95614461D01*
X92678702Y-95556626D01*
X92678321Y-95543395D01*
X92660163Y-95322545D01*
X92656836Y-95302446D01*
X92603729Y-95091016D01*
X92597165Y-95071733D01*
X92510237Y-94871812D01*
X92500608Y-94853856D01*
X92446198Y-94769751D01*
X92410354Y-94679450D01*
X92411795Y-94582306D01*
X92450302Y-94493108D01*
X92520012Y-94425435D01*
X92610313Y-94389591D01*
X92655263Y-94385500D01*
X94291591Y-94385500D01*
X94386879Y-94404454D01*
X94467661Y-94458430D01*
X94521637Y-94539212D01*
X94540591Y-94634500D01*
X94521637Y-94729788D01*
X94497289Y-94774819D01*
X94464507Y-94822876D01*
X94454446Y-94840586D01*
X94362656Y-95038329D01*
X94355628Y-95057430D01*
X94297367Y-95267511D01*
X94293550Y-95287525D01*
X94270384Y-95504285D01*
X94269887Y-95524658D01*
X94282435Y-95742290D01*
X94285272Y-95762472D01*
X94333197Y-95975134D01*
X94339289Y-95994574D01*
X94421306Y-96196555D01*
X94430493Y-96214743D01*
X94522195Y-96364387D01*
X94536355Y-96379705D01*
X94541932Y-96377647D01*
X94545390Y-96374921D01*
X95547794Y-95372517D01*
X95628576Y-95318541D01*
X95723864Y-95299587D01*
X95819152Y-95318541D01*
X95899934Y-95372517D01*
X96893389Y-96365972D01*
X96910730Y-96377559D01*
X96918684Y-96372244D01*
X96965084Y-96307671D01*
X96975567Y-96290225D01*
X97072163Y-96094779D01*
X97079658Y-96075849D01*
X97143034Y-95867254D01*
X97147338Y-95847347D01*
X97176263Y-95627637D01*
X97177289Y-95614461D01*
X97178702Y-95556626D01*
X97178321Y-95543395D01*
X97160163Y-95322545D01*
X97156836Y-95302446D01*
X97103729Y-95091016D01*
X97097165Y-95071733D01*
X97010237Y-94871812D01*
X97000608Y-94853856D01*
X96946198Y-94769751D01*
X96910354Y-94679450D01*
X96911795Y-94582306D01*
X96950302Y-94493108D01*
X97020012Y-94425435D01*
X97110313Y-94389591D01*
X97155263Y-94385500D01*
X100791591Y-94385500D01*
X100886879Y-94404454D01*
X100967661Y-94458430D01*
X101021637Y-94539212D01*
X101040591Y-94634500D01*
X101021637Y-94729788D01*
X100997289Y-94774819D01*
X100964507Y-94822876D01*
X100954446Y-94840586D01*
X100862656Y-95038329D01*
X100855628Y-95057430D01*
X100797367Y-95267511D01*
X100793550Y-95287525D01*
X100770384Y-95504285D01*
X100769887Y-95524658D01*
X100782435Y-95742290D01*
X100785272Y-95762472D01*
X100833197Y-95975134D01*
X100839289Y-95994574D01*
X100921306Y-96196555D01*
X100930493Y-96214743D01*
X101022195Y-96364387D01*
X101036355Y-96379705D01*
X101041932Y-96377647D01*
X101045390Y-96374921D01*
X102047794Y-95372517D01*
X102128576Y-95318541D01*
X102223864Y-95299587D01*
X102319152Y-95318541D01*
X102399934Y-95372517D01*
X103393389Y-96365972D01*
X103410730Y-96377559D01*
X103418684Y-96372244D01*
X103465084Y-96307671D01*
X103475567Y-96290225D01*
X103572163Y-96094779D01*
X103579658Y-96075849D01*
X103643034Y-95867254D01*
X103647338Y-95847347D01*
X103676263Y-95627637D01*
X103677289Y-95614461D01*
X103678702Y-95556626D01*
X103678321Y-95543395D01*
X103660163Y-95322545D01*
X103656836Y-95302446D01*
X103603729Y-95091016D01*
X103597165Y-95071733D01*
X103510237Y-94871812D01*
X103500608Y-94853856D01*
X103446198Y-94769751D01*
X103410354Y-94679450D01*
X103411795Y-94582306D01*
X103450302Y-94493108D01*
X103520012Y-94425435D01*
X103610313Y-94389591D01*
X103655263Y-94385500D01*
X112141584Y-94385500D01*
X112152010Y-94385718D01*
X112209924Y-94388145D01*
X112244452Y-94380046D01*
X112267502Y-94375774D01*
X112302662Y-94370958D01*
X112318242Y-94364216D01*
X112326021Y-94362044D01*
X112333585Y-94359141D01*
X112350114Y-94355264D01*
X112364988Y-94347087D01*
X112364991Y-94347086D01*
X112381190Y-94338181D01*
X112402249Y-94327864D01*
X112419235Y-94320513D01*
X112419238Y-94320511D01*
X112434813Y-94313771D01*
X112448005Y-94303088D01*
X112457040Y-94297616D01*
X112464857Y-94292183D01*
X112476297Y-94285894D01*
X112483439Y-94279729D01*
X112502261Y-94260907D01*
X112521630Y-94243468D01*
X112533523Y-94233837D01*
X112546718Y-94223152D01*
X112556553Y-94209312D01*
X112566918Y-94198275D01*
X112577962Y-94185206D01*
X112726572Y-94036596D01*
X112807354Y-93982620D01*
X112902642Y-93963666D01*
X112997930Y-93982620D01*
X113078712Y-94036596D01*
X113132688Y-94117378D01*
X113151642Y-94212666D01*
X113150713Y-94234151D01*
X113143234Y-94320513D01*
X113134747Y-94418499D01*
X113150314Y-94701356D01*
X113152030Y-94709984D01*
X113152031Y-94709990D01*
X113180648Y-94853856D01*
X113205580Y-94979197D01*
X113299443Y-95246480D01*
X113333259Y-95311578D01*
X113425972Y-95490060D01*
X113425975Y-95490066D01*
X113430030Y-95497871D01*
X113435149Y-95505034D01*
X113435150Y-95505036D01*
X113589616Y-95721190D01*
X113589620Y-95721195D01*
X113594736Y-95728354D01*
X113640437Y-95776261D01*
X113784188Y-95926952D01*
X113784193Y-95926957D01*
X113790273Y-95933330D01*
X113797194Y-95938786D01*
X113797195Y-95938787D01*
X114005823Y-96103256D01*
X114005827Y-96103259D01*
X114012742Y-96108710D01*
X114020355Y-96113132D01*
X114020358Y-96113134D01*
X114072293Y-96143300D01*
X114257702Y-96250994D01*
X114265864Y-96254300D01*
X114512103Y-96354038D01*
X114512108Y-96354040D01*
X114520266Y-96357344D01*
X114555000Y-96365972D01*
X114786656Y-96423516D01*
X114786661Y-96423517D01*
X114795196Y-96425637D01*
X114803951Y-96426534D01*
X115031548Y-96449853D01*
X115031556Y-96449853D01*
X115037867Y-96450500D01*
X117010616Y-96450500D01*
X117014991Y-96450190D01*
X117014997Y-96450190D01*
X117075818Y-96445883D01*
X117222577Y-96435492D01*
X117499517Y-96375869D01*
X117765292Y-96277819D01*
X118014601Y-96143300D01*
X118021673Y-96138077D01*
X118021677Y-96138074D01*
X118235394Y-95980219D01*
X118242468Y-95974994D01*
X118279249Y-95938787D01*
X118438068Y-95782443D01*
X118444348Y-95776261D01*
X118616212Y-95551065D01*
X118641990Y-95505036D01*
X118750331Y-95311578D01*
X118754631Y-95303900D01*
X118856843Y-95039698D01*
X118907100Y-94822873D01*
X118918822Y-94772303D01*
X118918823Y-94772298D01*
X118920809Y-94763729D01*
X118945253Y-94481501D01*
X118930985Y-94222250D01*
X118930170Y-94207435D01*
X118930170Y-94207432D01*
X118929686Y-94198644D01*
X118918316Y-94141479D01*
X118876137Y-93929434D01*
X118876136Y-93929431D01*
X118874420Y-93920803D01*
X118780557Y-93653520D01*
X118709037Y-93515839D01*
X118654028Y-93409940D01*
X118654025Y-93409934D01*
X118649970Y-93402129D01*
X118611957Y-93348935D01*
X118490384Y-93178810D01*
X118490380Y-93178805D01*
X118485264Y-93171646D01*
X118414803Y-93097784D01*
X118295812Y-92973048D01*
X118295807Y-92973043D01*
X118289727Y-92966670D01*
X118282805Y-92961213D01*
X118074177Y-92796744D01*
X118074173Y-92796741D01*
X118067258Y-92791290D01*
X118016705Y-92761926D01*
X117829911Y-92653428D01*
X117822298Y-92649006D01*
X117756071Y-92622181D01*
X117567897Y-92545962D01*
X117567892Y-92545960D01*
X117559734Y-92542656D01*
X117485157Y-92524131D01*
X117293344Y-92476484D01*
X117293339Y-92476483D01*
X117284804Y-92474363D01*
X117276049Y-92473466D01*
X117048452Y-92450147D01*
X117048444Y-92450147D01*
X117042133Y-92449500D01*
X116388672Y-92449500D01*
X116293384Y-92430546D01*
X116212602Y-92376570D01*
X116158626Y-92295788D01*
X116139672Y-92200500D01*
X116158626Y-92105212D01*
X116212602Y-92024430D01*
X117094339Y-91142693D01*
X117175121Y-91088717D01*
X117270409Y-91069763D01*
X117313220Y-91073471D01*
X117528806Y-91111097D01*
X117539887Y-91111039D01*
X117616401Y-91110638D01*
X117752017Y-91109928D01*
X117762915Y-91107908D01*
X117762917Y-91107908D01*
X117960595Y-91071271D01*
X117960597Y-91071270D01*
X117971493Y-91069251D01*
X118155233Y-90999821D01*
X118169918Y-90994272D01*
X118169919Y-90994272D01*
X118180297Y-90990350D01*
X118279651Y-90930888D01*
X118362316Y-90881414D01*
X118362317Y-90881413D01*
X118371828Y-90875721D01*
X118540034Y-90728986D01*
X118679597Y-90554783D01*
X118786105Y-90358619D01*
X118845819Y-90178062D01*
X118852711Y-90157221D01*
X118852711Y-90157220D01*
X118856192Y-90146695D01*
X118887643Y-89925708D01*
X118889364Y-89860000D01*
X118877177Y-89723439D01*
X118870508Y-89648715D01*
X118870507Y-89648712D01*
X118869522Y-89637670D01*
X118865123Y-89621588D01*
X118813547Y-89433060D01*
X118810622Y-89422368D01*
X118714526Y-89220899D01*
X118703335Y-89205324D01*
X118590742Y-89048635D01*
X118590741Y-89048633D01*
X118584271Y-89039630D01*
X118563789Y-89019781D01*
X118485623Y-88944033D01*
X118423976Y-88884293D01*
X118399727Y-88867998D01*
X118282331Y-88789112D01*
X118238706Y-88759797D01*
X118034317Y-88670077D01*
X117869900Y-88630604D01*
X117828056Y-88620558D01*
X117828053Y-88620558D01*
X117817271Y-88617969D01*
X117655899Y-88608664D01*
X117605496Y-88605758D01*
X117605494Y-88605758D01*
X117594428Y-88605120D01*
X117372831Y-88631936D01*
X117362236Y-88635195D01*
X117362233Y-88635196D01*
X117248850Y-88670077D01*
X117159485Y-88697569D01*
X116961133Y-88799946D01*
X116952340Y-88806693D01*
X116952337Y-88806695D01*
X116792839Y-88929082D01*
X116792833Y-88929087D01*
X116784046Y-88935830D01*
X116776589Y-88944025D01*
X116776587Y-88944027D01*
X116675374Y-89055260D01*
X116633821Y-89100926D01*
X116627935Y-89110309D01*
X116627932Y-89110313D01*
X116576476Y-89192341D01*
X116509783Y-89262989D01*
X116421131Y-89302738D01*
X116324017Y-89305535D01*
X116233224Y-89270955D01*
X116163334Y-89205324D01*
X116142098Y-89175770D01*
X116056856Y-89057144D01*
X116050742Y-89048635D01*
X116050741Y-89048633D01*
X116044271Y-89039630D01*
X116023789Y-89019781D01*
X115945623Y-88944033D01*
X115883976Y-88884293D01*
X115859727Y-88867998D01*
X115742331Y-88789112D01*
X115698706Y-88759797D01*
X115494317Y-88670077D01*
X115329900Y-88630604D01*
X115288056Y-88620558D01*
X115288053Y-88620558D01*
X115277271Y-88617969D01*
X115115899Y-88608664D01*
X115065496Y-88605758D01*
X115065494Y-88605758D01*
X115054428Y-88605120D01*
X114832831Y-88631936D01*
X114822236Y-88635195D01*
X114822233Y-88635196D01*
X114708850Y-88670077D01*
X114619485Y-88697569D01*
X114421133Y-88799946D01*
X114412340Y-88806693D01*
X114412337Y-88806695D01*
X114252839Y-88929082D01*
X114252833Y-88929087D01*
X114244046Y-88935830D01*
X114236589Y-88944025D01*
X114236587Y-88944027D01*
X114135374Y-89055260D01*
X114093821Y-89100926D01*
X114087934Y-89110311D01*
X114087930Y-89110316D01*
X114064445Y-89147754D01*
X113997753Y-89218402D01*
X113909100Y-89258150D01*
X113811986Y-89260947D01*
X113721193Y-89226366D01*
X113649544Y-89158254D01*
X113559789Y-89030070D01*
X113545866Y-89013476D01*
X113400388Y-88867998D01*
X113383794Y-88854075D01*
X113215268Y-88736072D01*
X113196515Y-88725244D01*
X113010048Y-88638293D01*
X112989705Y-88630889D01*
X112827551Y-88587440D01*
X112806741Y-88586076D01*
X112804852Y-88589905D01*
X112803864Y-88597412D01*
X112803863Y-89609996D01*
X112803864Y-89610006D01*
X112803863Y-91114380D01*
X112815686Y-91173817D01*
X112824712Y-91195606D01*
X112824715Y-91292761D01*
X112787539Y-91382522D01*
X112756568Y-91420263D01*
X111455262Y-92721570D01*
X111374480Y-92775546D01*
X111279192Y-92794500D01*
X106283672Y-92794500D01*
X106188384Y-92775546D01*
X106107602Y-92721570D01*
X106053626Y-92640788D01*
X106034672Y-92545500D01*
X106053626Y-92450212D01*
X106107602Y-92369430D01*
X106525476Y-91951557D01*
X107288603Y-91188430D01*
X107369385Y-91134454D01*
X107464673Y-91115500D01*
X108323864Y-91115500D01*
X108333522Y-91113970D01*
X108333526Y-91113970D01*
X108386165Y-91105632D01*
X108449170Y-91095653D01*
X108485815Y-91076982D01*
X108544752Y-91046952D01*
X108544753Y-91046951D01*
X108562211Y-91038056D01*
X108651920Y-90948347D01*
X108709517Y-90835306D01*
X108710563Y-90828704D01*
X108752976Y-90752970D01*
X108829273Y-90692822D01*
X108922780Y-90666450D01*
X109019262Y-90677869D01*
X109104029Y-90725341D01*
X109112966Y-90733689D01*
X109116844Y-90738427D01*
X109146562Y-90763809D01*
X109269063Y-90868435D01*
X109286576Y-90883393D01*
X109296147Y-90888986D01*
X109296150Y-90888988D01*
X109469724Y-90990416D01*
X109469729Y-90990418D01*
X109479298Y-90996010D01*
X109688917Y-91072720D01*
X109908806Y-91111097D01*
X109919887Y-91111039D01*
X109996401Y-91110638D01*
X110132017Y-91109928D01*
X110142915Y-91107908D01*
X110142917Y-91107908D01*
X110340595Y-91071271D01*
X110340597Y-91071270D01*
X110351493Y-91069251D01*
X110535233Y-90999821D01*
X110549918Y-90994272D01*
X110549919Y-90994272D01*
X110560297Y-90990350D01*
X110659651Y-90930888D01*
X110742316Y-90881414D01*
X110742317Y-90881413D01*
X110751828Y-90875721D01*
X110920034Y-90728986D01*
X111059597Y-90554783D01*
X111061633Y-90556414D01*
X111117185Y-90500563D01*
X111206844Y-90463143D01*
X111303998Y-90462882D01*
X111393857Y-90499820D01*
X111460046Y-90564406D01*
X111547943Y-90689935D01*
X111561862Y-90706524D01*
X111707340Y-90852002D01*
X111723934Y-90865925D01*
X111892460Y-90983928D01*
X111911213Y-90994756D01*
X112097680Y-91081707D01*
X112118023Y-91089111D01*
X112280177Y-91132560D01*
X112300987Y-91133924D01*
X112302876Y-91130095D01*
X112303864Y-91122588D01*
X112303865Y-90110004D01*
X112303864Y-90109994D01*
X112303865Y-88605620D01*
X112299796Y-88585162D01*
X112295605Y-88584329D01*
X112288103Y-88585316D01*
X112118023Y-88630889D01*
X112097680Y-88638293D01*
X111911213Y-88725244D01*
X111892460Y-88736072D01*
X111723934Y-88854075D01*
X111707340Y-88867998D01*
X111561862Y-89013476D01*
X111547939Y-89030070D01*
X111457833Y-89158755D01*
X111387652Y-89225939D01*
X111297103Y-89261152D01*
X111199971Y-89259033D01*
X111111044Y-89219904D01*
X111051656Y-89161237D01*
X110970748Y-89048642D01*
X110970741Y-89048634D01*
X110964271Y-89039630D01*
X110943789Y-89019781D01*
X110865623Y-88944033D01*
X110803976Y-88884293D01*
X110779727Y-88867998D01*
X110662331Y-88789112D01*
X110618706Y-88759797D01*
X110414317Y-88670077D01*
X110249900Y-88630604D01*
X110208056Y-88620558D01*
X110208053Y-88620558D01*
X110197271Y-88617969D01*
X110035899Y-88608664D01*
X109985496Y-88605758D01*
X109985494Y-88605758D01*
X109974428Y-88605120D01*
X109752831Y-88631936D01*
X109742236Y-88635195D01*
X109742233Y-88635196D01*
X109628850Y-88670077D01*
X109539485Y-88697569D01*
X109341133Y-88799946D01*
X109332340Y-88806693D01*
X109332337Y-88806695D01*
X109172839Y-88929082D01*
X109172833Y-88929087D01*
X109164046Y-88935830D01*
X109156586Y-88944028D01*
X109156581Y-88944033D01*
X109127493Y-88976000D01*
X109049344Y-89033722D01*
X108955054Y-89057144D01*
X108858979Y-89042699D01*
X108775745Y-88992588D01*
X108718023Y-88914439D01*
X108711698Y-88898463D01*
X108709517Y-88884694D01*
X108651920Y-88771653D01*
X108562211Y-88681944D01*
X108538921Y-88670077D01*
X108466628Y-88633242D01*
X108466627Y-88633242D01*
X108449170Y-88624347D01*
X108386165Y-88614368D01*
X108333526Y-88606030D01*
X108333522Y-88606030D01*
X108323864Y-88604500D01*
X106623864Y-88604500D01*
X106614206Y-88606030D01*
X106614202Y-88606030D01*
X106561563Y-88614368D01*
X106498558Y-88624347D01*
X106481101Y-88633242D01*
X106481100Y-88633242D01*
X106408807Y-88670077D01*
X106385517Y-88681944D01*
X106295808Y-88771653D01*
X106238211Y-88884694D01*
X106230112Y-88935830D01*
X106219950Y-88999989D01*
X106218364Y-89010000D01*
X106218364Y-90669192D01*
X106199410Y-90764480D01*
X106145434Y-90845262D01*
X104829126Y-92161570D01*
X104748344Y-92215546D01*
X104653056Y-92234500D01*
X103582462Y-92234500D01*
X103487174Y-92215546D01*
X103406392Y-92161570D01*
X103352416Y-92080788D01*
X103333462Y-91985500D01*
X103352416Y-91890212D01*
X103378615Y-91842506D01*
X103438602Y-91756995D01*
X103540357Y-91542216D01*
X103604469Y-91313364D01*
X103606475Y-91294124D01*
X103628499Y-91082799D01*
X103628499Y-91082794D01*
X103629105Y-91076982D01*
X103629364Y-91050000D01*
X103617260Y-90907348D01*
X103610162Y-90823695D01*
X103610161Y-90823690D01*
X103609270Y-90813188D01*
X103549563Y-90583148D01*
X103451951Y-90366456D01*
X103319224Y-90169308D01*
X103218028Y-90063228D01*
X103162461Y-90004979D01*
X103162457Y-90004976D01*
X103155176Y-89997343D01*
X102964500Y-89855476D01*
X102955104Y-89850699D01*
X102955101Y-89850697D01*
X102830219Y-89787204D01*
X102752647Y-89747764D01*
X102742583Y-89744639D01*
X102742578Y-89744637D01*
X102535750Y-89680415D01*
X102535746Y-89680414D01*
X102525675Y-89677287D01*
X102290072Y-89646060D01*
X102279545Y-89646455D01*
X102279541Y-89646455D01*
X102176787Y-89650313D01*
X102052577Y-89654976D01*
X102042260Y-89657141D01*
X102042258Y-89657141D01*
X101830300Y-89701614D01*
X101830295Y-89701615D01*
X101819979Y-89703780D01*
X101810172Y-89707653D01*
X101608735Y-89787204D01*
X101608731Y-89787206D01*
X101598929Y-89791077D01*
X101589923Y-89796542D01*
X101589917Y-89796545D01*
X101492803Y-89855476D01*
X101395749Y-89914370D01*
X101387785Y-89921281D01*
X101387782Y-89921283D01*
X101311844Y-89987178D01*
X101216246Y-90070134D01*
X101065555Y-90253916D01*
X101060345Y-90263069D01*
X101060342Y-90263073D01*
X100953198Y-90451298D01*
X100947983Y-90460460D01*
X100944386Y-90470370D01*
X100870489Y-90673950D01*
X100870487Y-90673956D01*
X100866892Y-90683861D01*
X100865016Y-90694238D01*
X100865015Y-90694240D01*
X100826479Y-90907348D01*
X100826478Y-90907354D01*
X100824602Y-90917731D01*
X100823850Y-90996010D01*
X100822697Y-91116164D01*
X100822320Y-91155383D01*
X100860113Y-91390021D01*
X100936900Y-91614938D01*
X100941937Y-91624196D01*
X100941938Y-91624198D01*
X101014191Y-91756995D01*
X101050485Y-91823701D01*
X101057018Y-91831988D01*
X101062818Y-91840784D01*
X101061697Y-91841523D01*
X101100620Y-91917912D01*
X101108242Y-92014768D01*
X101078219Y-92107167D01*
X101015122Y-92181044D01*
X100928556Y-92225152D01*
X100860968Y-92234500D01*
X97082462Y-92234500D01*
X96987174Y-92215546D01*
X96906392Y-92161570D01*
X96852416Y-92080788D01*
X96833462Y-91985500D01*
X96852416Y-91890212D01*
X96878615Y-91842506D01*
X96938602Y-91756995D01*
X97040357Y-91542216D01*
X97104469Y-91313364D01*
X97106475Y-91294124D01*
X97128499Y-91082799D01*
X97128499Y-91082794D01*
X97129105Y-91076982D01*
X97129364Y-91050000D01*
X97117260Y-90907348D01*
X97110162Y-90823695D01*
X97110161Y-90823690D01*
X97109270Y-90813188D01*
X97049563Y-90583148D01*
X96951951Y-90366456D01*
X96819224Y-90169308D01*
X96718028Y-90063228D01*
X96662461Y-90004979D01*
X96662457Y-90004976D01*
X96655176Y-89997343D01*
X96464500Y-89855476D01*
X96455104Y-89850699D01*
X96455101Y-89850697D01*
X96330219Y-89787204D01*
X96252647Y-89747764D01*
X96242583Y-89744639D01*
X96242578Y-89744637D01*
X96035750Y-89680415D01*
X96035746Y-89680414D01*
X96025675Y-89677287D01*
X95790072Y-89646060D01*
X95779545Y-89646455D01*
X95779541Y-89646455D01*
X95676787Y-89650313D01*
X95552577Y-89654976D01*
X95542260Y-89657141D01*
X95542258Y-89657141D01*
X95506967Y-89664546D01*
X95319979Y-89703780D01*
X95310178Y-89707651D01*
X95309940Y-89707722D01*
X95213224Y-89716947D01*
X95120340Y-89688457D01*
X95062325Y-89645292D01*
X89072294Y-83655262D01*
X89018318Y-83574480D01*
X88999364Y-83479192D01*
X88999364Y-74826864D01*
X89018318Y-74731576D01*
X89072294Y-74650794D01*
X89153076Y-74596818D01*
X89248364Y-74577864D01*
X89343652Y-74596818D01*
X89424434Y-74650794D01*
X92439136Y-77665497D01*
X95340744Y-80567105D01*
X95347961Y-80574632D01*
X95387183Y-80617285D01*
X95417334Y-80635979D01*
X95436645Y-80649251D01*
X95464911Y-80670707D01*
X95480694Y-80676956D01*
X95487738Y-80680925D01*
X95495132Y-80684217D01*
X95509562Y-80693164D01*
X95543639Y-80703064D01*
X95565820Y-80710659D01*
X95583006Y-80717464D01*
X95583009Y-80717465D01*
X95598793Y-80723714D01*
X95615678Y-80725488D01*
X95625961Y-80728014D01*
X95635306Y-80729695D01*
X95647839Y-80733337D01*
X95657249Y-80734028D01*
X95683870Y-80734028D01*
X95709898Y-80735392D01*
X95725118Y-80736992D01*
X95725120Y-80736992D01*
X95741999Y-80738766D01*
X95758732Y-80735936D01*
X95773872Y-80735460D01*
X95790921Y-80734028D01*
X98945325Y-80734028D01*
X99040613Y-80752982D01*
X99121395Y-80806958D01*
X99175371Y-80887740D01*
X99194325Y-80983028D01*
X99175371Y-81078316D01*
X99121395Y-81159098D01*
X99074500Y-81195901D01*
X98895749Y-81304370D01*
X98887785Y-81311281D01*
X98887782Y-81311283D01*
X98841154Y-81351745D01*
X98716246Y-81460134D01*
X98565555Y-81643916D01*
X98560345Y-81653069D01*
X98560342Y-81653073D01*
X98455026Y-81838087D01*
X98447983Y-81850460D01*
X98444386Y-81860370D01*
X98370489Y-82063950D01*
X98370487Y-82063956D01*
X98366892Y-82073861D01*
X98365016Y-82084238D01*
X98365015Y-82084240D01*
X98326479Y-82297348D01*
X98326478Y-82297354D01*
X98324602Y-82307731D01*
X98322320Y-82545383D01*
X98360113Y-82780021D01*
X98363519Y-82789996D01*
X98363519Y-82789998D01*
X98401318Y-82900716D01*
X98436900Y-83004938D01*
X98441937Y-83014196D01*
X98441938Y-83014198D01*
X98509899Y-83139106D01*
X98550485Y-83213701D01*
X98697621Y-83400341D01*
X98705457Y-83407409D01*
X98855559Y-83542799D01*
X98874100Y-83559523D01*
X98883006Y-83565164D01*
X99014611Y-83648522D01*
X99074876Y-83686694D01*
X99294209Y-83778218D01*
X99304487Y-83780582D01*
X99304489Y-83780582D01*
X99515558Y-83829117D01*
X99515562Y-83829118D01*
X99525827Y-83831478D01*
X99763108Y-83844952D01*
X99999266Y-83818254D01*
X100227550Y-83752147D01*
X100441432Y-83648522D01*
X100634797Y-83510342D01*
X100802115Y-83341557D01*
X100938602Y-83146995D01*
X101040357Y-82932216D01*
X101104469Y-82703364D01*
X101106353Y-82685294D01*
X101128499Y-82472799D01*
X101128499Y-82472794D01*
X101129105Y-82466982D01*
X101129364Y-82440000D01*
X101120785Y-82338899D01*
X101110162Y-82213695D01*
X101110161Y-82213690D01*
X101109270Y-82203188D01*
X101049563Y-81973148D01*
X100951951Y-81756456D01*
X100819224Y-81559308D01*
X100718028Y-81453228D01*
X100662461Y-81394979D01*
X100662457Y-81394976D01*
X100655176Y-81387343D01*
X100464500Y-81245476D01*
X100455104Y-81240699D01*
X100455101Y-81240697D01*
X100400308Y-81212839D01*
X100384863Y-81204987D01*
X100308514Y-81144906D01*
X100260968Y-81060180D01*
X100249465Y-80963708D01*
X100275755Y-80870178D01*
X100335836Y-80793828D01*
X100420562Y-80746282D01*
X100497714Y-80734028D01*
X103101584Y-80734028D01*
X103196872Y-80752982D01*
X103277654Y-80806958D01*
X105849957Y-83379262D01*
X105903931Y-83460041D01*
X105922874Y-83557719D01*
X105922320Y-83615383D01*
X105960113Y-83850021D01*
X106036900Y-84074938D01*
X106041937Y-84084196D01*
X106041938Y-84084198D01*
X106114191Y-84216995D01*
X106150485Y-84283701D01*
X106157018Y-84291988D01*
X106279209Y-84446985D01*
X106297621Y-84470341D01*
X106305457Y-84477409D01*
X106436294Y-84595422D01*
X106474100Y-84629523D01*
X106483006Y-84635164D01*
X106614611Y-84718522D01*
X106674876Y-84756694D01*
X106894209Y-84848218D01*
X106904487Y-84850582D01*
X106904489Y-84850582D01*
X107115558Y-84899117D01*
X107115562Y-84899118D01*
X107125827Y-84901478D01*
X107363108Y-84914952D01*
X107599266Y-84888254D01*
X107827550Y-84822147D01*
X108041432Y-84718522D01*
X108067125Y-84700161D01*
X116793010Y-84700161D01*
X116797122Y-84706314D01*
X116798129Y-84707020D01*
X116986354Y-84817009D01*
X117004728Y-84825812D01*
X117208383Y-84903581D01*
X117227950Y-84909265D01*
X117441573Y-84952728D01*
X117461795Y-84955139D01*
X117679654Y-84963128D01*
X117700003Y-84962204D01*
X117916241Y-84934503D01*
X117936163Y-84930269D01*
X118144971Y-84867623D01*
X118163938Y-84860190D01*
X118359710Y-84764282D01*
X118377205Y-84753853D01*
X118437181Y-84711072D01*
X118451469Y-84695884D01*
X118447596Y-84687285D01*
X117641205Y-83880894D01*
X117623864Y-83869307D01*
X117606523Y-83880894D01*
X116804597Y-84682820D01*
X116793010Y-84700161D01*
X108067125Y-84700161D01*
X108234797Y-84580342D01*
X108273638Y-84541161D01*
X108394682Y-84419055D01*
X108402115Y-84411557D01*
X108538602Y-84216995D01*
X108640357Y-84002216D01*
X108704469Y-83773364D01*
X108706681Y-83752147D01*
X108728499Y-83542799D01*
X108728499Y-83542794D01*
X108729105Y-83536982D01*
X108729220Y-83525018D01*
X108729308Y-83515855D01*
X108729308Y-83515851D01*
X108729364Y-83510000D01*
X108727214Y-83484658D01*
X116169887Y-83484658D01*
X116182435Y-83702290D01*
X116185272Y-83722472D01*
X116233197Y-83935134D01*
X116239289Y-83954574D01*
X116321306Y-84156555D01*
X116330493Y-84174743D01*
X116422195Y-84324387D01*
X116436355Y-84339705D01*
X116441932Y-84337647D01*
X116445390Y-84334921D01*
X117252970Y-83527341D01*
X117264557Y-83510000D01*
X117983171Y-83510000D01*
X117994758Y-83527341D01*
X118793389Y-84325972D01*
X118810730Y-84337559D01*
X118818684Y-84332244D01*
X118865084Y-84267671D01*
X118875567Y-84250225D01*
X118972163Y-84054779D01*
X118979658Y-84035849D01*
X119043034Y-83827254D01*
X119047338Y-83807347D01*
X119076263Y-83587637D01*
X119077289Y-83574461D01*
X119078702Y-83516626D01*
X119078321Y-83503395D01*
X119060163Y-83282545D01*
X119056836Y-83262446D01*
X119003729Y-83051016D01*
X118997165Y-83031733D01*
X118910237Y-82831812D01*
X118900608Y-82813856D01*
X118824744Y-82696587D01*
X118810216Y-82681622D01*
X118803240Y-82684391D01*
X118802123Y-82685294D01*
X117994758Y-83492659D01*
X117983171Y-83510000D01*
X117264557Y-83510000D01*
X117252970Y-83492659D01*
X116454306Y-82693995D01*
X116436965Y-82682408D01*
X116429752Y-82687228D01*
X116364508Y-82782873D01*
X116354447Y-82800583D01*
X116262656Y-82998329D01*
X116255628Y-83017430D01*
X116197367Y-83227511D01*
X116193550Y-83247525D01*
X116170384Y-83464285D01*
X116169887Y-83484658D01*
X108727214Y-83484658D01*
X108719356Y-83392054D01*
X108710162Y-83283695D01*
X108710161Y-83283690D01*
X108709270Y-83273188D01*
X108649563Y-83043148D01*
X108551951Y-82826456D01*
X108419224Y-82629308D01*
X108329110Y-82534845D01*
X108262461Y-82464979D01*
X108262457Y-82464976D01*
X108255176Y-82457343D01*
X108064500Y-82315476D01*
X107988619Y-82276896D01*
X107912269Y-82216814D01*
X107864724Y-82132087D01*
X107853221Y-82035616D01*
X107879511Y-81942086D01*
X107939593Y-81865736D01*
X107972269Y-81842622D01*
X107976614Y-81840596D01*
X108016952Y-81812351D01*
X108154122Y-81716304D01*
X108154125Y-81716301D01*
X108163023Y-81710071D01*
X108323935Y-81549159D01*
X108454460Y-81362750D01*
X108504960Y-81254454D01*
X108546039Y-81166359D01*
X108546039Y-81166358D01*
X108550633Y-81156507D01*
X108553742Y-81144906D01*
X108590520Y-81007649D01*
X108609531Y-80936698D01*
X108629364Y-80710000D01*
X108609531Y-80483302D01*
X108550633Y-80263493D01*
X108542499Y-80246049D01*
X108459052Y-80067097D01*
X108459051Y-80067095D01*
X108454460Y-80057250D01*
X108418479Y-80005864D01*
X108330168Y-79879742D01*
X108330165Y-79879739D01*
X108323935Y-79870841D01*
X108163023Y-79709929D01*
X108154125Y-79703699D01*
X108154122Y-79703696D01*
X107987401Y-79586957D01*
X107976614Y-79579404D01*
X107966769Y-79574813D01*
X107966767Y-79574812D01*
X107780223Y-79487825D01*
X107780222Y-79487825D01*
X107770371Y-79483231D01*
X107759868Y-79480417D01*
X107759866Y-79480416D01*
X107588509Y-79434501D01*
X107550562Y-79424333D01*
X107323864Y-79404500D01*
X107097166Y-79424333D01*
X107059219Y-79434501D01*
X106887862Y-79480416D01*
X106887860Y-79480417D01*
X106877357Y-79483231D01*
X106867506Y-79487825D01*
X106867505Y-79487825D01*
X106680961Y-79574812D01*
X106680959Y-79574813D01*
X106671114Y-79579404D01*
X106662217Y-79585634D01*
X106662208Y-79585639D01*
X106645419Y-79597395D01*
X106556492Y-79636524D01*
X106459360Y-79638643D01*
X106368811Y-79603430D01*
X106326530Y-79569496D01*
X105058480Y-78301448D01*
X105051262Y-78293921D01*
X105023506Y-78263737D01*
X105012017Y-78251243D01*
X104981871Y-78232551D01*
X104962545Y-78219269D01*
X104947806Y-78208082D01*
X104934288Y-78197821D01*
X104918507Y-78191573D01*
X104911449Y-78187596D01*
X104904061Y-78184307D01*
X104889638Y-78175364D01*
X104873341Y-78170630D01*
X104873338Y-78170628D01*
X104855566Y-78165465D01*
X104833377Y-78157868D01*
X104816192Y-78151064D01*
X104816191Y-78151064D01*
X104800406Y-78144814D01*
X104783521Y-78143039D01*
X104773227Y-78140511D01*
X104763891Y-78138831D01*
X104751361Y-78135191D01*
X104741951Y-78134500D01*
X104715330Y-78134500D01*
X104689301Y-78133136D01*
X104674081Y-78131536D01*
X104674079Y-78131536D01*
X104657201Y-78129762D01*
X104640468Y-78132592D01*
X104625328Y-78133068D01*
X104608279Y-78134500D01*
X96760359Y-78134500D01*
X96665071Y-78115546D01*
X96584289Y-78061570D01*
X93245832Y-74723113D01*
X89870057Y-71347339D01*
X89816081Y-71266557D01*
X89797127Y-71171269D01*
X89816081Y-71075981D01*
X89870059Y-70995199D01*
X89906123Y-70959135D01*
X89986905Y-70905160D01*
X90082193Y-70886207D01*
X90177481Y-70905162D01*
X90258260Y-70959137D01*
X93465592Y-74166470D01*
X96667699Y-77368577D01*
X96674916Y-77376104D01*
X96714138Y-77418757D01*
X96744289Y-77437451D01*
X96763600Y-77450723D01*
X96791866Y-77472179D01*
X96807649Y-77478428D01*
X96814693Y-77482397D01*
X96822087Y-77485689D01*
X96836517Y-77494636D01*
X96870594Y-77504536D01*
X96892775Y-77512131D01*
X96909961Y-77518936D01*
X96909964Y-77518937D01*
X96925748Y-77525186D01*
X96942633Y-77526960D01*
X96952916Y-77529486D01*
X96962261Y-77531167D01*
X96974794Y-77534809D01*
X96984204Y-77535500D01*
X97010825Y-77535500D01*
X97036853Y-77536864D01*
X97052073Y-77538464D01*
X97052075Y-77538464D01*
X97068954Y-77540238D01*
X97085689Y-77537408D01*
X97100823Y-77536932D01*
X97117875Y-77535500D01*
X105867450Y-77535500D01*
X105962738Y-77554454D01*
X106043520Y-77608430D01*
X106086172Y-77665496D01*
X106150485Y-77783701D01*
X106297621Y-77970341D01*
X106305457Y-77977409D01*
X106398381Y-78061225D01*
X106474100Y-78129523D01*
X106483006Y-78135164D01*
X106614611Y-78218522D01*
X106674876Y-78256694D01*
X106894209Y-78348218D01*
X106904487Y-78350582D01*
X106904489Y-78350582D01*
X107115558Y-78399117D01*
X107115562Y-78399118D01*
X107125827Y-78401478D01*
X107363108Y-78414952D01*
X107599266Y-78388254D01*
X107827550Y-78322147D01*
X108041432Y-78218522D01*
X108234797Y-78080342D01*
X108402115Y-77911557D01*
X108538602Y-77716995D01*
X108640357Y-77502216D01*
X108704469Y-77273364D01*
X108726587Y-77061147D01*
X108728499Y-77042799D01*
X108728499Y-77042794D01*
X108729105Y-77036982D01*
X108729364Y-77010000D01*
X108721967Y-76922824D01*
X108710162Y-76783695D01*
X108710161Y-76783690D01*
X108709270Y-76773188D01*
X108649563Y-76543148D01*
X108551951Y-76326456D01*
X108419224Y-76129308D01*
X108318028Y-76023228D01*
X108262461Y-75964979D01*
X108262457Y-75964976D01*
X108255176Y-75957343D01*
X108064500Y-75815476D01*
X108055104Y-75810699D01*
X108055101Y-75810697D01*
X107918334Y-75741161D01*
X107852647Y-75707764D01*
X107842583Y-75704639D01*
X107842578Y-75704637D01*
X107635750Y-75640415D01*
X107635746Y-75640414D01*
X107625675Y-75637287D01*
X107390072Y-75606060D01*
X107379545Y-75606455D01*
X107379541Y-75606455D01*
X107276787Y-75610313D01*
X107152577Y-75614976D01*
X107142260Y-75617141D01*
X107142258Y-75617141D01*
X106930300Y-75661614D01*
X106930295Y-75661615D01*
X106919979Y-75663780D01*
X106910172Y-75667653D01*
X106708735Y-75747204D01*
X106708731Y-75747206D01*
X106698929Y-75751077D01*
X106689923Y-75756542D01*
X106689917Y-75756545D01*
X106592803Y-75815476D01*
X106495749Y-75874370D01*
X106487785Y-75881281D01*
X106487782Y-75881283D01*
X106411844Y-75947178D01*
X106316246Y-76030134D01*
X106165555Y-76213916D01*
X106160343Y-76223072D01*
X106160339Y-76223078D01*
X106083150Y-76358680D01*
X106019539Y-76432115D01*
X105932667Y-76475617D01*
X105866753Y-76484500D01*
X97373100Y-76484500D01*
X97277812Y-76465546D01*
X97197030Y-76411570D01*
X94115268Y-73329808D01*
X91001428Y-70215969D01*
X90947452Y-70135187D01*
X90928498Y-70039899D01*
X90947452Y-69944611D01*
X91001428Y-69863830D01*
X91127659Y-69737598D01*
X91133658Y-69731599D01*
X91148927Y-69711484D01*
X91190870Y-69656226D01*
X91263579Y-69591786D01*
X91355413Y-69560076D01*
X91389205Y-69557772D01*
X101823799Y-69557772D01*
X101919087Y-69576726D01*
X101999869Y-69630702D01*
X102053845Y-69711484D01*
X102072799Y-69806772D01*
X102053845Y-69902060D01*
X101999869Y-69982842D01*
X101952974Y-70019645D01*
X101895749Y-70054370D01*
X101887787Y-70061279D01*
X101887783Y-70061282D01*
X101838032Y-70104454D01*
X101716246Y-70210135D01*
X101658196Y-70280932D01*
X101587388Y-70367290D01*
X101565555Y-70393917D01*
X101560345Y-70403070D01*
X101560342Y-70403074D01*
X101557152Y-70408679D01*
X101493541Y-70482114D01*
X101406670Y-70525617D01*
X101340754Y-70534500D01*
X100973864Y-70534500D01*
X100964206Y-70536030D01*
X100964202Y-70536030D01*
X100911563Y-70544368D01*
X100848558Y-70554347D01*
X100831101Y-70563242D01*
X100831100Y-70563242D01*
X100752976Y-70603048D01*
X100735517Y-70611944D01*
X100645808Y-70701653D01*
X100636913Y-70719111D01*
X100636912Y-70719112D01*
X100604452Y-70782820D01*
X100588211Y-70814694D01*
X100581284Y-70858430D01*
X100570717Y-70925147D01*
X100568364Y-70940000D01*
X100568364Y-73940000D01*
X100588211Y-74065306D01*
X100645808Y-74178347D01*
X100735517Y-74268056D01*
X100752975Y-74276951D01*
X100752976Y-74276952D01*
X100801834Y-74301846D01*
X100848558Y-74325653D01*
X100911563Y-74335632D01*
X100964202Y-74343970D01*
X100964206Y-74343970D01*
X100973864Y-74345500D01*
X101344363Y-74345500D01*
X101439651Y-74364454D01*
X101520433Y-74418430D01*
X101550908Y-74455433D01*
X101628505Y-74570692D01*
X101688158Y-74633224D01*
X101785268Y-74735021D01*
X101785272Y-74735024D01*
X101792553Y-74742657D01*
X101983229Y-74884524D01*
X101992625Y-74889301D01*
X101992628Y-74889303D01*
X102089155Y-74938380D01*
X102195082Y-74992236D01*
X102205146Y-74995361D01*
X102205151Y-74995363D01*
X102411979Y-75059585D01*
X102411983Y-75059586D01*
X102422054Y-75062713D01*
X102657657Y-75093940D01*
X102668184Y-75093545D01*
X102668188Y-75093545D01*
X102770966Y-75089686D01*
X102895151Y-75085024D01*
X102905468Y-75082859D01*
X102905470Y-75082859D01*
X103117428Y-75038386D01*
X103117433Y-75038385D01*
X103127749Y-75036220D01*
X103224860Y-74997869D01*
X103338993Y-74952796D01*
X103338997Y-74952794D01*
X103348799Y-74948923D01*
X103357805Y-74943458D01*
X103357811Y-74943455D01*
X103487177Y-74864953D01*
X103551979Y-74825630D01*
X103590675Y-74792052D01*
X103670120Y-74723113D01*
X103731482Y-74669866D01*
X103882173Y-74486084D01*
X103887383Y-74476931D01*
X103887386Y-74476927D01*
X103994530Y-74288702D01*
X103994531Y-74288699D01*
X103999745Y-74279540D01*
X104031448Y-74192201D01*
X104077239Y-74066050D01*
X104077241Y-74066044D01*
X104080836Y-74056139D01*
X104083712Y-74040238D01*
X104121666Y-73830344D01*
X104121666Y-73830341D01*
X104123126Y-73822269D01*
X104124364Y-73796019D01*
X104124364Y-71454808D01*
X104143318Y-71359520D01*
X104197294Y-71278738D01*
X104278076Y-71224762D01*
X104373364Y-71205808D01*
X104468652Y-71224762D01*
X104549434Y-71278738D01*
X109476460Y-76205765D01*
X114339272Y-81068577D01*
X114346489Y-81076104D01*
X114385711Y-81118757D01*
X114400139Y-81127703D01*
X114415856Y-81137448D01*
X114435186Y-81150733D01*
X114449920Y-81161917D01*
X114449922Y-81161918D01*
X114463439Y-81172178D01*
X114479219Y-81178426D01*
X114486274Y-81182401D01*
X114493664Y-81185691D01*
X114508090Y-81194636D01*
X114524392Y-81199372D01*
X114524396Y-81199374D01*
X114542154Y-81204533D01*
X114564344Y-81212130D01*
X114581533Y-81218936D01*
X114581539Y-81218938D01*
X114597321Y-81225186D01*
X114614206Y-81226961D01*
X114624497Y-81229488D01*
X114633835Y-81231168D01*
X114646367Y-81234809D01*
X114655777Y-81235500D01*
X114682407Y-81235500D01*
X114708434Y-81236864D01*
X114723646Y-81238463D01*
X114723648Y-81238463D01*
X114740527Y-81240237D01*
X114757266Y-81237406D01*
X114772405Y-81236930D01*
X114789442Y-81235500D01*
X116277134Y-81235500D01*
X116372422Y-81254454D01*
X116453204Y-81308430D01*
X116490765Y-81357382D01*
X116493268Y-81362750D01*
X116623793Y-81549159D01*
X116784705Y-81710071D01*
X116793603Y-81716301D01*
X116793606Y-81716304D01*
X116941657Y-81819970D01*
X117008840Y-81890151D01*
X117044053Y-81980701D01*
X117041934Y-82077832D01*
X117002805Y-82166760D01*
X116932624Y-82233943D01*
X116913812Y-82244804D01*
X116857595Y-82274069D01*
X116840360Y-82284923D01*
X116809701Y-82307942D01*
X116795783Y-82323480D01*
X116800297Y-82332880D01*
X117606523Y-83139106D01*
X117623864Y-83150693D01*
X117641205Y-83139106D01*
X118441412Y-82338899D01*
X118452999Y-82321558D01*
X118446570Y-82311937D01*
X118437069Y-82304433D01*
X118420100Y-82293160D01*
X118327999Y-82242317D01*
X118253738Y-82179672D01*
X118209103Y-82093378D01*
X118200889Y-81996570D01*
X118230347Y-81903989D01*
X118292992Y-81829728D01*
X118305517Y-81820358D01*
X118454117Y-81716308D01*
X118454124Y-81716302D01*
X118463023Y-81710071D01*
X118623935Y-81549159D01*
X118754460Y-81362750D01*
X118804960Y-81254454D01*
X118846039Y-81166359D01*
X118846039Y-81166358D01*
X118850633Y-81156507D01*
X118853742Y-81144906D01*
X118890520Y-81007649D01*
X118909531Y-80936698D01*
X118929364Y-80710000D01*
X118909531Y-80483302D01*
X118850633Y-80263493D01*
X118842499Y-80246049D01*
X118759052Y-80067097D01*
X118759051Y-80067095D01*
X118754460Y-80057250D01*
X118718479Y-80005864D01*
X118630168Y-79879742D01*
X118630165Y-79879739D01*
X118623935Y-79870841D01*
X118463023Y-79709929D01*
X118454125Y-79703699D01*
X118454122Y-79703696D01*
X118287401Y-79586957D01*
X118276614Y-79579404D01*
X118266769Y-79574813D01*
X118266767Y-79574812D01*
X118080223Y-79487825D01*
X118080222Y-79487825D01*
X118070371Y-79483231D01*
X118059868Y-79480417D01*
X118059866Y-79480416D01*
X117888509Y-79434501D01*
X117850562Y-79424333D01*
X117623864Y-79404500D01*
X117397166Y-79424333D01*
X117359219Y-79434501D01*
X117187862Y-79480416D01*
X117187860Y-79480417D01*
X117177357Y-79483231D01*
X117167506Y-79487825D01*
X117167505Y-79487825D01*
X116980961Y-79574812D01*
X116980959Y-79574813D01*
X116971114Y-79579404D01*
X116960327Y-79586957D01*
X116793606Y-79703696D01*
X116793603Y-79703699D01*
X116784705Y-79709929D01*
X116623793Y-79870841D01*
X116617563Y-79879739D01*
X116617560Y-79879742D01*
X116524337Y-80012879D01*
X116493268Y-80057250D01*
X116491091Y-80061918D01*
X116428718Y-80133043D01*
X116341583Y-80176015D01*
X116277134Y-80184500D01*
X115044674Y-80184500D01*
X114949386Y-80165546D01*
X114868604Y-80111570D01*
X112717604Y-77960570D01*
X112663628Y-77879788D01*
X112644674Y-77784500D01*
X112663628Y-77689212D01*
X112717604Y-77608430D01*
X112798386Y-77554454D01*
X112893674Y-77535500D01*
X116167450Y-77535500D01*
X116262738Y-77554454D01*
X116343520Y-77608430D01*
X116386172Y-77665496D01*
X116450485Y-77783701D01*
X116597621Y-77970341D01*
X116605457Y-77977409D01*
X116698381Y-78061225D01*
X116774100Y-78129523D01*
X116783006Y-78135164D01*
X116914611Y-78218522D01*
X116974876Y-78256694D01*
X117194209Y-78348218D01*
X117204487Y-78350582D01*
X117204489Y-78350582D01*
X117415558Y-78399117D01*
X117415562Y-78399118D01*
X117425827Y-78401478D01*
X117663108Y-78414952D01*
X117899266Y-78388254D01*
X118127550Y-78322147D01*
X118341432Y-78218522D01*
X118534797Y-78080342D01*
X118702115Y-77911557D01*
X118838602Y-77716995D01*
X118940357Y-77502216D01*
X119004469Y-77273364D01*
X119026587Y-77061147D01*
X119028499Y-77042799D01*
X119028499Y-77042794D01*
X119029105Y-77036982D01*
X119029364Y-77010000D01*
X119021967Y-76922824D01*
X119010162Y-76783695D01*
X119010161Y-76783690D01*
X119009270Y-76773188D01*
X118949563Y-76543148D01*
X118851951Y-76326456D01*
X118719224Y-76129308D01*
X118618028Y-76023228D01*
X118562461Y-75964979D01*
X118562457Y-75964976D01*
X118555176Y-75957343D01*
X118364500Y-75815476D01*
X118355104Y-75810699D01*
X118355101Y-75810697D01*
X118218334Y-75741161D01*
X118152647Y-75707764D01*
X118142583Y-75704639D01*
X118142578Y-75704637D01*
X117935750Y-75640415D01*
X117935746Y-75640414D01*
X117925675Y-75637287D01*
X117690072Y-75606060D01*
X117679545Y-75606455D01*
X117679541Y-75606455D01*
X117576787Y-75610313D01*
X117452577Y-75614976D01*
X117442260Y-75617141D01*
X117442258Y-75617141D01*
X117230300Y-75661614D01*
X117230295Y-75661615D01*
X117219979Y-75663780D01*
X117210172Y-75667653D01*
X117008735Y-75747204D01*
X117008731Y-75747206D01*
X116998929Y-75751077D01*
X116989923Y-75756542D01*
X116989917Y-75756545D01*
X116892803Y-75815476D01*
X116795749Y-75874370D01*
X116787785Y-75881281D01*
X116787782Y-75881283D01*
X116711844Y-75947178D01*
X116616246Y-76030134D01*
X116465555Y-76213916D01*
X116460343Y-76223072D01*
X116460339Y-76223078D01*
X116383150Y-76358680D01*
X116319539Y-76432115D01*
X116232667Y-76475617D01*
X116166753Y-76484500D01*
X112944673Y-76484500D01*
X112849385Y-76465546D01*
X112768603Y-76411570D01*
X108889705Y-72532672D01*
X108835729Y-72451890D01*
X108816775Y-72356602D01*
X108835729Y-72261314D01*
X108889705Y-72180532D01*
X108970487Y-72126556D01*
X109065775Y-72107602D01*
X110973864Y-72107602D01*
X110983522Y-72106072D01*
X110983526Y-72106072D01*
X111047316Y-72095968D01*
X111099170Y-72087755D01*
X111153129Y-72060262D01*
X111194752Y-72039054D01*
X111194753Y-72039053D01*
X111212211Y-72030158D01*
X111301920Y-71940449D01*
X111302721Y-71938877D01*
X111363565Y-71882633D01*
X111454715Y-71849006D01*
X111551795Y-71852820D01*
X111636484Y-71890968D01*
X111648128Y-71899121D01*
X111836354Y-72009111D01*
X111854728Y-72017914D01*
X112058383Y-72095683D01*
X112077950Y-72101367D01*
X112291573Y-72144830D01*
X112311795Y-72147241D01*
X112529654Y-72155230D01*
X112550003Y-72154306D01*
X112766241Y-72126605D01*
X112786163Y-72122371D01*
X112994971Y-72059725D01*
X113013938Y-72052292D01*
X113209710Y-71956384D01*
X113227205Y-71945955D01*
X113287181Y-71903174D01*
X113301469Y-71887986D01*
X113297596Y-71879387D01*
X112296381Y-70878172D01*
X112242405Y-70797390D01*
X112223451Y-70702102D01*
X112242405Y-70606814D01*
X112296381Y-70526032D01*
X112297794Y-70524619D01*
X112378576Y-70470643D01*
X112473864Y-70451689D01*
X112569152Y-70470643D01*
X112649934Y-70524619D01*
X113643389Y-71518074D01*
X113661740Y-71530336D01*
X113669184Y-71528855D01*
X113766339Y-71528854D01*
X113856098Y-71566033D01*
X113913306Y-71618915D01*
X113947621Y-71662443D01*
X113955457Y-71669511D01*
X114086244Y-71787479D01*
X114124100Y-71821625D01*
X114204536Y-71872573D01*
X114264611Y-71910624D01*
X114324876Y-71948796D01*
X114544209Y-72040320D01*
X114554487Y-72042684D01*
X114554489Y-72042684D01*
X114765558Y-72091219D01*
X114765562Y-72091220D01*
X114775827Y-72093580D01*
X115013108Y-72107054D01*
X115249266Y-72080356D01*
X115477550Y-72014249D01*
X115691432Y-71910624D01*
X115884797Y-71772444D01*
X116052115Y-71603659D01*
X116188602Y-71409097D01*
X116290357Y-71194318D01*
X116354469Y-70965466D01*
X116357206Y-70939212D01*
X116378499Y-70734901D01*
X116378499Y-70734896D01*
X116379105Y-70729084D01*
X116379364Y-70702102D01*
X116373093Y-70628192D01*
X116360162Y-70475797D01*
X116360161Y-70475792D01*
X116359270Y-70465290D01*
X116299563Y-70235250D01*
X116213148Y-70043414D01*
X116206281Y-70028170D01*
X116206280Y-70028169D01*
X116201951Y-70018558D01*
X116069224Y-69821410D01*
X115977101Y-69724841D01*
X115912461Y-69657081D01*
X115912457Y-69657078D01*
X115905176Y-69649445D01*
X115714500Y-69507578D01*
X115705104Y-69502801D01*
X115705101Y-69502799D01*
X115571937Y-69435095D01*
X115502647Y-69399866D01*
X115492583Y-69396741D01*
X115492578Y-69396739D01*
X115285750Y-69332517D01*
X115285746Y-69332516D01*
X115275675Y-69329389D01*
X115040072Y-69298162D01*
X115029545Y-69298557D01*
X115029541Y-69298557D01*
X114926787Y-69302415D01*
X114802577Y-69307078D01*
X114792260Y-69309243D01*
X114792258Y-69309243D01*
X114580296Y-69353717D01*
X114580293Y-69353718D01*
X114569979Y-69355882D01*
X114560179Y-69359752D01*
X114559943Y-69359823D01*
X114463227Y-69369049D01*
X114370343Y-69340560D01*
X114312326Y-69297394D01*
X109916365Y-64901435D01*
X109909148Y-64893908D01*
X109881404Y-64863737D01*
X109869915Y-64851243D01*
X109839769Y-64832551D01*
X109820443Y-64819269D01*
X109805704Y-64808082D01*
X109792186Y-64797821D01*
X109776405Y-64791573D01*
X109769347Y-64787596D01*
X109761959Y-64784307D01*
X109747536Y-64775364D01*
X109731239Y-64770630D01*
X109731236Y-64770628D01*
X109713464Y-64765465D01*
X109691275Y-64757868D01*
X109674090Y-64751064D01*
X109674089Y-64751064D01*
X109658304Y-64744814D01*
X109641419Y-64743039D01*
X109631125Y-64740511D01*
X109621789Y-64738831D01*
X109609259Y-64735191D01*
X109599849Y-64734500D01*
X109573228Y-64734500D01*
X109547199Y-64733136D01*
X109531979Y-64731536D01*
X109531977Y-64731536D01*
X109515099Y-64729762D01*
X109498366Y-64732592D01*
X109483226Y-64733068D01*
X109466177Y-64734500D01*
X108778364Y-64734500D01*
X108683076Y-64715546D01*
X108602294Y-64661570D01*
X108548318Y-64580788D01*
X108529364Y-64485500D01*
X108529364Y-61702102D01*
X116418364Y-61702102D01*
X116418364Y-64702102D01*
X116419894Y-64711760D01*
X116419894Y-64711764D01*
X116424714Y-64742192D01*
X116438211Y-64827408D01*
X116447106Y-64844865D01*
X116447106Y-64844866D01*
X116486912Y-64922990D01*
X116495808Y-64940449D01*
X116585517Y-65030158D01*
X116698558Y-65087755D01*
X116761563Y-65097734D01*
X116814202Y-65106072D01*
X116814206Y-65106072D01*
X116823864Y-65107602D01*
X119323864Y-65107602D01*
X119333522Y-65106072D01*
X119333526Y-65106072D01*
X119386165Y-65097734D01*
X119449170Y-65087755D01*
X119562211Y-65030158D01*
X119651920Y-64940449D01*
X119660816Y-64922990D01*
X119700622Y-64844866D01*
X119700622Y-64844865D01*
X119709517Y-64827408D01*
X119723014Y-64742192D01*
X119727834Y-64711764D01*
X119727834Y-64711760D01*
X119729364Y-64702102D01*
X119729364Y-61702102D01*
X119727264Y-61688839D01*
X119712947Y-61598452D01*
X119709517Y-61576796D01*
X119699957Y-61558032D01*
X119660816Y-61481214D01*
X119660815Y-61481213D01*
X119651920Y-61463755D01*
X119562211Y-61374046D01*
X119541231Y-61363356D01*
X119466628Y-61325344D01*
X119466627Y-61325344D01*
X119449170Y-61316449D01*
X119386165Y-61306470D01*
X119333526Y-61298132D01*
X119333522Y-61298132D01*
X119323864Y-61296602D01*
X116823864Y-61296602D01*
X116814206Y-61298132D01*
X116814202Y-61298132D01*
X116761563Y-61306470D01*
X116698558Y-61316449D01*
X116681101Y-61325344D01*
X116681100Y-61325344D01*
X116606497Y-61363356D01*
X116585517Y-61374046D01*
X116495808Y-61463755D01*
X116486913Y-61481213D01*
X116486912Y-61481214D01*
X116447772Y-61558032D01*
X116438211Y-61576796D01*
X116434781Y-61598452D01*
X116420465Y-61688839D01*
X116418364Y-61702102D01*
X108529364Y-61702102D01*
X108527264Y-61688839D01*
X108512947Y-61598452D01*
X108509517Y-61576796D01*
X108499957Y-61558032D01*
X108460816Y-61481214D01*
X108460815Y-61481213D01*
X108451920Y-61463755D01*
X108362211Y-61374046D01*
X108341231Y-61363356D01*
X108266628Y-61325344D01*
X108266627Y-61325344D01*
X108249170Y-61316449D01*
X108186165Y-61306470D01*
X108133526Y-61298132D01*
X108133522Y-61298132D01*
X108123864Y-61296602D01*
X105623864Y-61296602D01*
X105614206Y-61298132D01*
X105614202Y-61298132D01*
X105561563Y-61306470D01*
X105498558Y-61316449D01*
X105481101Y-61325344D01*
X105481100Y-61325344D01*
X105406497Y-61363356D01*
X105385517Y-61374046D01*
X105295808Y-61463755D01*
X105286913Y-61481213D01*
X105286912Y-61481214D01*
X105247772Y-61558032D01*
X105238211Y-61576796D01*
X105234781Y-61598452D01*
X105220465Y-61688839D01*
X105218364Y-61702102D01*
X105218364Y-64485500D01*
X105199410Y-64580788D01*
X105145434Y-64661570D01*
X105064652Y-64715546D01*
X104969364Y-64734500D01*
X90927873Y-64734500D01*
X90832585Y-64715546D01*
X90751803Y-64661570D01*
X90697827Y-64580788D01*
X90678873Y-64485500D01*
X90697827Y-64390212D01*
X90751803Y-64309430D01*
X90760567Y-64301785D01*
X90760869Y-64301605D01*
X90761911Y-64300613D01*
X90761921Y-64300604D01*
X90880830Y-64187367D01*
X90890913Y-64177765D01*
X90990289Y-64028192D01*
X91004156Y-63991686D01*
X91049115Y-63873333D01*
X91049115Y-63873331D01*
X91054058Y-63860320D01*
X91062874Y-63797589D01*
X91077962Y-63690234D01*
X91077962Y-63690231D01*
X91079050Y-63682491D01*
X91079364Y-63660000D01*
X91075431Y-63624931D01*
X91060899Y-63495380D01*
X91059347Y-63481543D01*
X91054769Y-63468396D01*
X91004868Y-63325100D01*
X91004866Y-63325097D01*
X91000290Y-63311955D01*
X90920045Y-63183536D01*
X90912504Y-63171467D01*
X90912502Y-63171465D01*
X90905129Y-63159665D01*
X90893881Y-63148338D01*
X90804214Y-63058043D01*
X90750520Y-62977074D01*
X90731899Y-62881720D01*
X90751185Y-62786498D01*
X90804827Y-62706519D01*
X93690330Y-59821017D01*
X96710815Y-56800532D01*
X96791597Y-56746556D01*
X96886885Y-56727602D01*
X108517450Y-56727602D01*
X108612738Y-56746556D01*
X108693520Y-56800532D01*
X108736172Y-56857598D01*
X108800485Y-56975803D01*
X108807018Y-56984090D01*
X108936647Y-57148522D01*
X108947621Y-57162443D01*
X109124100Y-57321625D01*
X109133006Y-57327266D01*
X109264611Y-57410624D01*
X109324876Y-57448796D01*
X109544209Y-57540320D01*
X109554487Y-57542684D01*
X109554489Y-57542684D01*
X109765558Y-57591219D01*
X109765562Y-57591220D01*
X109775827Y-57593580D01*
X110013108Y-57607054D01*
X110249266Y-57580356D01*
X110477550Y-57514249D01*
X110691432Y-57410624D01*
X110717125Y-57392263D01*
X114143010Y-57392263D01*
X114147122Y-57398416D01*
X114148129Y-57399122D01*
X114336354Y-57509111D01*
X114354728Y-57517914D01*
X114558383Y-57595683D01*
X114577950Y-57601367D01*
X114791573Y-57644830D01*
X114811795Y-57647241D01*
X115029654Y-57655230D01*
X115050003Y-57654306D01*
X115266241Y-57626605D01*
X115286163Y-57622371D01*
X115494971Y-57559725D01*
X115513938Y-57552292D01*
X115709710Y-57456384D01*
X115727205Y-57445955D01*
X115787181Y-57403174D01*
X115801469Y-57387986D01*
X115797596Y-57379387D01*
X114991205Y-56572996D01*
X114973864Y-56561409D01*
X114956523Y-56572996D01*
X114154597Y-57374922D01*
X114143010Y-57392263D01*
X110717125Y-57392263D01*
X110884797Y-57272444D01*
X111052115Y-57103659D01*
X111188602Y-56909097D01*
X111290357Y-56694318D01*
X111354469Y-56465466D01*
X111356010Y-56450688D01*
X111378499Y-56234901D01*
X111378499Y-56234896D01*
X111379105Y-56229084D01*
X111379220Y-56217120D01*
X111379308Y-56207957D01*
X111379308Y-56207953D01*
X111379364Y-56202102D01*
X111377214Y-56176760D01*
X113519887Y-56176760D01*
X113532435Y-56394392D01*
X113535272Y-56414574D01*
X113583197Y-56627236D01*
X113589289Y-56646676D01*
X113671306Y-56848657D01*
X113680493Y-56866845D01*
X113772195Y-57016489D01*
X113786355Y-57031807D01*
X113791932Y-57029749D01*
X113795390Y-57027023D01*
X114602970Y-56219443D01*
X114614557Y-56202102D01*
X115333171Y-56202102D01*
X115344758Y-56219443D01*
X116143389Y-57018074D01*
X116160730Y-57029661D01*
X116168684Y-57024346D01*
X116215084Y-56959773D01*
X116225567Y-56942327D01*
X116322163Y-56746881D01*
X116329658Y-56727951D01*
X116393034Y-56519356D01*
X116397338Y-56499449D01*
X116426263Y-56279739D01*
X116427289Y-56266563D01*
X116428702Y-56208728D01*
X116428321Y-56195497D01*
X116410163Y-55974647D01*
X116406836Y-55954548D01*
X116353729Y-55743118D01*
X116347165Y-55723835D01*
X116260237Y-55523914D01*
X116250608Y-55505958D01*
X116174744Y-55388689D01*
X116160216Y-55373724D01*
X116153240Y-55376493D01*
X116152123Y-55377396D01*
X115344758Y-56184761D01*
X115333171Y-56202102D01*
X114614557Y-56202102D01*
X114602970Y-56184761D01*
X113804306Y-55386097D01*
X113786965Y-55374510D01*
X113779752Y-55379330D01*
X113714508Y-55474975D01*
X113704447Y-55492685D01*
X113612656Y-55690431D01*
X113605628Y-55709532D01*
X113547367Y-55919613D01*
X113543550Y-55939627D01*
X113520384Y-56156387D01*
X113519887Y-56176760D01*
X111377214Y-56176760D01*
X111372056Y-56115974D01*
X111360162Y-55975797D01*
X111360161Y-55975792D01*
X111359270Y-55965290D01*
X111299563Y-55735250D01*
X111226863Y-55573861D01*
X111206281Y-55528170D01*
X111206280Y-55528169D01*
X111201951Y-55518558D01*
X111069224Y-55321410D01*
X110941355Y-55187370D01*
X110912461Y-55157081D01*
X110912457Y-55157078D01*
X110905176Y-55149445D01*
X110892982Y-55140372D01*
X110788604Y-55062713D01*
X110725258Y-55015582D01*
X114145783Y-55015582D01*
X114150297Y-55024982D01*
X114956523Y-55831208D01*
X114973864Y-55842795D01*
X114991205Y-55831208D01*
X115791412Y-55031001D01*
X115802999Y-55013660D01*
X115796570Y-55004039D01*
X115787069Y-54996535D01*
X115770100Y-54985262D01*
X115579245Y-54879904D01*
X115560676Y-54871558D01*
X115355173Y-54798786D01*
X115335472Y-54793581D01*
X115120855Y-54755352D01*
X115100570Y-54753434D01*
X114882594Y-54750771D01*
X114862262Y-54752193D01*
X114646767Y-54785168D01*
X114626960Y-54789887D01*
X114419753Y-54857613D01*
X114400958Y-54865513D01*
X114207590Y-54966174D01*
X114190360Y-54977025D01*
X114159701Y-55000044D01*
X114145783Y-55015582D01*
X110725258Y-55015582D01*
X110714500Y-55007578D01*
X110705104Y-55002801D01*
X110705101Y-55002799D01*
X110580219Y-54939306D01*
X110502647Y-54899866D01*
X110492583Y-54896741D01*
X110492578Y-54896739D01*
X110285750Y-54832517D01*
X110285746Y-54832516D01*
X110275675Y-54829389D01*
X110040072Y-54798162D01*
X110029545Y-54798557D01*
X110029541Y-54798557D01*
X109926787Y-54802415D01*
X109802577Y-54807078D01*
X109792260Y-54809243D01*
X109792258Y-54809243D01*
X109580300Y-54853716D01*
X109580295Y-54853717D01*
X109569979Y-54855882D01*
X109560172Y-54859755D01*
X109358735Y-54939306D01*
X109358731Y-54939308D01*
X109348929Y-54943179D01*
X109339923Y-54948644D01*
X109339917Y-54948647D01*
X109248635Y-55004039D01*
X109145749Y-55066472D01*
X109137785Y-55073383D01*
X109137782Y-55073385D01*
X109086067Y-55118261D01*
X108966246Y-55222236D01*
X108912101Y-55288271D01*
X108829764Y-55388689D01*
X108815555Y-55406018D01*
X108810343Y-55415174D01*
X108810339Y-55415180D01*
X108733150Y-55550782D01*
X108669539Y-55624217D01*
X108582667Y-55667719D01*
X108516753Y-55676602D01*
X96584468Y-55676602D01*
X96574042Y-55676384D01*
X96573701Y-55676370D01*
X96516151Y-55673958D01*
X96499625Y-55677834D01*
X96481626Y-55682055D01*
X96458563Y-55686329D01*
X96423414Y-55691144D01*
X96407834Y-55697886D01*
X96400049Y-55700060D01*
X96392491Y-55702961D01*
X96375961Y-55706838D01*
X96345045Y-55723835D01*
X96344881Y-55723925D01*
X96323809Y-55734248D01*
X96291263Y-55748331D01*
X96278069Y-55759015D01*
X96269021Y-55764495D01*
X96261210Y-55769923D01*
X96249778Y-55776208D01*
X96242635Y-55782373D01*
X96223804Y-55801204D01*
X96204435Y-55818643D01*
X96179358Y-55838950D01*
X96169523Y-55852790D01*
X96159153Y-55863832D01*
X96148119Y-55876889D01*
X92678948Y-59346061D01*
X89361642Y-62663367D01*
X89280860Y-62717343D01*
X89185572Y-62736297D01*
X89090284Y-62717343D01*
X89008891Y-62662753D01*
X88997871Y-62651656D01*
X88987117Y-62640827D01*
X88933423Y-62559859D01*
X88914801Y-62464506D01*
X88934086Y-62369284D01*
X88987730Y-62289302D01*
X89205802Y-62071231D01*
X89632429Y-61644604D01*
X89639932Y-61637409D01*
X89682621Y-61598153D01*
X89701315Y-61568002D01*
X89714587Y-61548691D01*
X89736043Y-61520425D01*
X89742292Y-61504642D01*
X89746261Y-61497598D01*
X89749553Y-61490204D01*
X89758500Y-61475774D01*
X89768400Y-61441697D01*
X89775995Y-61419516D01*
X89782800Y-61402330D01*
X89782801Y-61402327D01*
X89789050Y-61386543D01*
X89790824Y-61369658D01*
X89793350Y-61359375D01*
X89795031Y-61350030D01*
X89798673Y-61337497D01*
X89799364Y-61328087D01*
X89799364Y-61301466D01*
X89800728Y-61275438D01*
X89802328Y-61260218D01*
X89802328Y-61260216D01*
X89804102Y-61243337D01*
X89801272Y-61226604D01*
X89800796Y-61211464D01*
X89799364Y-61194415D01*
X89799364Y-55371667D01*
X89818318Y-55276379D01*
X89871998Y-55198130D01*
X89871881Y-55198032D01*
X89872891Y-55196828D01*
X89876652Y-55191346D01*
X89880827Y-55187370D01*
X89880828Y-55187369D01*
X89890913Y-55177765D01*
X89947526Y-55092555D01*
X89982584Y-55039789D01*
X89990289Y-55028192D01*
X89999935Y-55002799D01*
X90049115Y-54873333D01*
X90049115Y-54873331D01*
X90054058Y-54860320D01*
X90056818Y-54840681D01*
X90077962Y-54690234D01*
X90077962Y-54690231D01*
X90079050Y-54682491D01*
X90079364Y-54660000D01*
X90078103Y-54648753D01*
X90060899Y-54495380D01*
X90059347Y-54481543D01*
X90054769Y-54468396D01*
X90004868Y-54325100D01*
X90004866Y-54325097D01*
X90000290Y-54311955D01*
X89905129Y-54159665D01*
X89778593Y-54032243D01*
X89719489Y-53994735D01*
X89649195Y-53927676D01*
X89609911Y-53838818D01*
X89607622Y-53741690D01*
X89642676Y-53651079D01*
X89709738Y-53580781D01*
X89798596Y-53541497D01*
X89852914Y-53535500D01*
X90171262Y-53535500D01*
X90227947Y-53528339D01*
X90279155Y-53521870D01*
X90279157Y-53521869D01*
X90294699Y-53519906D01*
X90447473Y-53459419D01*
X90460143Y-53450213D01*
X90460146Y-53450212D01*
X90567733Y-53372045D01*
X90580404Y-53362839D01*
X90590386Y-53350773D01*
X90590389Y-53350770D01*
X90668694Y-53256114D01*
X90685140Y-53236234D01*
X90755101Y-53087561D01*
X90758262Y-53070994D01*
X90760655Y-53058446D01*
X90797128Y-52968398D01*
X90865285Y-52899161D01*
X90954750Y-52861277D01*
X91051902Y-52860513D01*
X91141950Y-52896986D01*
X91211187Y-52965143D01*
X91247057Y-53045706D01*
X91252338Y-53067205D01*
X91301604Y-53197584D01*
X91315411Y-53223994D01*
X91394354Y-53338857D01*
X91414061Y-53361210D01*
X91518121Y-53453923D01*
X91542597Y-53470935D01*
X91665771Y-53536152D01*
X91693589Y-53546830D01*
X91832255Y-53581661D01*
X91853091Y-53584905D01*
X91856107Y-53585000D01*
X92194656Y-53585000D01*
X92215114Y-53580931D01*
X92219183Y-53560473D01*
X92219183Y-52734527D01*
X92719183Y-52734527D01*
X92719183Y-53560473D01*
X92723252Y-53580931D01*
X92743710Y-53585000D01*
X93040503Y-53585000D01*
X93055442Y-53584100D01*
X93159953Y-53571453D01*
X93188886Y-53564346D01*
X93319267Y-53515079D01*
X93345677Y-53501272D01*
X93460540Y-53422329D01*
X93482893Y-53402622D01*
X93575606Y-53298562D01*
X93592618Y-53274086D01*
X93657835Y-53150912D01*
X93668513Y-53123094D01*
X93703344Y-52984428D01*
X93706588Y-52963592D01*
X93706683Y-52960576D01*
X93706683Y-52734527D01*
X93702614Y-52714069D01*
X93682156Y-52710000D01*
X92743710Y-52710000D01*
X92723252Y-52714069D01*
X92719183Y-52734527D01*
X92219183Y-52734527D01*
X92219183Y-51359527D01*
X92719183Y-51359527D01*
X92719183Y-52185473D01*
X92723252Y-52205931D01*
X92743710Y-52210000D01*
X93682156Y-52210000D01*
X93702614Y-52205931D01*
X93706683Y-52185473D01*
X93706683Y-52001180D01*
X93705783Y-51986241D01*
X93693136Y-51881730D01*
X93686029Y-51852797D01*
X93636762Y-51722416D01*
X93622955Y-51696006D01*
X93544012Y-51581143D01*
X93524305Y-51558790D01*
X93420245Y-51466077D01*
X93395769Y-51449065D01*
X93272595Y-51383848D01*
X93244777Y-51373170D01*
X93106111Y-51338339D01*
X93085275Y-51335095D01*
X93082259Y-51335000D01*
X92743710Y-51335000D01*
X92723252Y-51339069D01*
X92719183Y-51359527D01*
X92219183Y-51359527D01*
X92215114Y-51339069D01*
X92194656Y-51335000D01*
X91897863Y-51335000D01*
X91882924Y-51335900D01*
X91778413Y-51348547D01*
X91749480Y-51355654D01*
X91619099Y-51404921D01*
X91592689Y-51418728D01*
X91477826Y-51497671D01*
X91455473Y-51517378D01*
X91362760Y-51621438D01*
X91345748Y-51645914D01*
X91280531Y-51769088D01*
X91269852Y-51796908D01*
X91249297Y-51878742D01*
X91207701Y-51966542D01*
X91135671Y-52031740D01*
X91044174Y-52064411D01*
X90947139Y-52059580D01*
X90859339Y-52017984D01*
X90794141Y-51945954D01*
X90768028Y-51883374D01*
X90766589Y-51871984D01*
X90706102Y-51719210D01*
X90689244Y-51696006D01*
X90618728Y-51598950D01*
X90609522Y-51586279D01*
X90597456Y-51576297D01*
X90597453Y-51576294D01*
X90501835Y-51497193D01*
X90482917Y-51481543D01*
X90450051Y-51466077D01*
X90413899Y-51449065D01*
X90334244Y-51411582D01*
X90231508Y-51391984D01*
X90203804Y-51386699D01*
X90203801Y-51386699D01*
X90192275Y-51384500D01*
X89017104Y-51384500D01*
X88960419Y-51391661D01*
X88909211Y-51398130D01*
X88909209Y-51398131D01*
X88893667Y-51400094D01*
X88740893Y-51460581D01*
X88707655Y-51484730D01*
X88690501Y-51497193D01*
X88602270Y-51537868D01*
X88505190Y-51541682D01*
X88414040Y-51508056D01*
X88408161Y-51504015D01*
X88407726Y-51503613D01*
X88388574Y-51491529D01*
X88230806Y-51391984D01*
X88230802Y-51391982D01*
X88221150Y-51385892D01*
X88093588Y-51335000D01*
X88026845Y-51308372D01*
X88026842Y-51308371D01*
X88016244Y-51304143D01*
X87799873Y-51261104D01*
X87698824Y-51259781D01*
X87590698Y-51258365D01*
X87590693Y-51258365D01*
X87579282Y-51258216D01*
X87568034Y-51260149D01*
X87568031Y-51260149D01*
X87373101Y-51293644D01*
X87373100Y-51293644D01*
X87361858Y-51295576D01*
X87154883Y-51371933D01*
X86965289Y-51484730D01*
X86956704Y-51492259D01*
X86808006Y-51622663D01*
X86808002Y-51622667D01*
X86799425Y-51630189D01*
X86747539Y-51696006D01*
X86669917Y-51794469D01*
X86669914Y-51794473D01*
X86662847Y-51803438D01*
X86560127Y-51998675D01*
X86556743Y-52009575D01*
X86556742Y-52009576D01*
X86539715Y-52064411D01*
X86494707Y-52209362D01*
X86493365Y-52220701D01*
X86476477Y-52363391D01*
X86468777Y-52428444D01*
X86469524Y-52439838D01*
X86479777Y-52596261D01*
X86483206Y-52648582D01*
X86486016Y-52659648D01*
X86486017Y-52659652D01*
X86520390Y-52794994D01*
X86537510Y-52862404D01*
X86629870Y-53062750D01*
X86757195Y-53242910D01*
X86765368Y-53250872D01*
X86765369Y-53250873D01*
X86770111Y-53255492D01*
X86915218Y-53396849D01*
X87098649Y-53519414D01*
X87301344Y-53606499D01*
X87312478Y-53609018D01*
X87312480Y-53609019D01*
X87505373Y-53652666D01*
X87505375Y-53652666D01*
X87516515Y-53655187D01*
X87637145Y-53659927D01*
X87725544Y-53663400D01*
X87725548Y-53663400D01*
X87736955Y-53663848D01*
X87879781Y-53643139D01*
X87943979Y-53633831D01*
X87943980Y-53633831D01*
X87955282Y-53632192D01*
X87966092Y-53628522D01*
X87966094Y-53628522D01*
X88153377Y-53564948D01*
X88153379Y-53564947D01*
X88164185Y-53561279D01*
X88199509Y-53541497D01*
X88346714Y-53459058D01*
X88356667Y-53453484D01*
X88380855Y-53433367D01*
X88466237Y-53387009D01*
X88562860Y-53376854D01*
X88656014Y-53404447D01*
X88679949Y-53420395D01*
X88680151Y-53420077D01*
X88693378Y-53428471D01*
X88705449Y-53438457D01*
X88719624Y-53445127D01*
X88719625Y-53445128D01*
X88839949Y-53501749D01*
X88839952Y-53501750D01*
X88849863Y-53506414D01*
X88849865Y-53506415D01*
X88854122Y-53508418D01*
X88853980Y-53508719D01*
X88928489Y-53550448D01*
X88988636Y-53626747D01*
X89015006Y-53720255D01*
X89003584Y-53816736D01*
X88956111Y-53901502D01*
X88897245Y-53951866D01*
X88777949Y-54025257D01*
X88649646Y-54150900D01*
X88597465Y-54231868D01*
X88560839Y-54288702D01*
X88552368Y-54301846D01*
X88547605Y-54314931D01*
X88547605Y-54314932D01*
X88496464Y-54455442D01*
X88490949Y-54470593D01*
X88468443Y-54648753D01*
X88469801Y-54662604D01*
X88469801Y-54662607D01*
X88478585Y-54752193D01*
X88485966Y-54827473D01*
X88542649Y-54997869D01*
X88562715Y-55031001D01*
X88622749Y-55130128D01*
X88635675Y-55151472D01*
X88649864Y-55166165D01*
X88678481Y-55195799D01*
X88731039Y-55277510D01*
X88748365Y-55368769D01*
X88748364Y-60939191D01*
X88729410Y-61034479D01*
X88675434Y-61115261D01*
X87444046Y-62346649D01*
X87363264Y-62400625D01*
X87267976Y-62419579D01*
X87172688Y-62400625D01*
X87091907Y-62346649D01*
X86951462Y-62206205D01*
X86945463Y-62200206D01*
X86935151Y-62192378D01*
X86870090Y-62142994D01*
X86805650Y-62070285D01*
X86773940Y-61978451D01*
X86771636Y-61944659D01*
X86771636Y-56450688D01*
X86771854Y-56440262D01*
X86773570Y-56399308D01*
X86774281Y-56382347D01*
X86766180Y-56347808D01*
X86761911Y-56324773D01*
X86757094Y-56289610D01*
X86750351Y-56274027D01*
X86748174Y-56266231D01*
X86745276Y-56258682D01*
X86741400Y-56242157D01*
X86724312Y-56211076D01*
X86713990Y-56190004D01*
X86706649Y-56173039D01*
X86706649Y-56173038D01*
X86699907Y-56157459D01*
X86689222Y-56144264D01*
X86683744Y-56135219D01*
X86678318Y-56127412D01*
X86672030Y-56115974D01*
X86665865Y-56108832D01*
X86647038Y-56090005D01*
X86629599Y-56070636D01*
X86619973Y-56058749D01*
X86609288Y-56045554D01*
X86595448Y-56035719D01*
X86584408Y-56025351D01*
X86571345Y-56014312D01*
X85963051Y-55406018D01*
X85348897Y-54791865D01*
X85294921Y-54711083D01*
X85277519Y-54643551D01*
X85260899Y-54495380D01*
X85259347Y-54481543D01*
X85254769Y-54468396D01*
X85204868Y-54325100D01*
X85204866Y-54325097D01*
X85200290Y-54311955D01*
X85105129Y-54159665D01*
X84978593Y-54032243D01*
X84848467Y-53949662D01*
X84838734Y-53943485D01*
X84838731Y-53943484D01*
X84826972Y-53936021D01*
X84813327Y-53931162D01*
X84730031Y-53901502D01*
X84657801Y-53875782D01*
X84643986Y-53874135D01*
X84643983Y-53874134D01*
X84530410Y-53860592D01*
X84479487Y-53854520D01*
X84300895Y-53873290D01*
X84287716Y-53877777D01*
X84287714Y-53877777D01*
X84218024Y-53901502D01*
X84130899Y-53931162D01*
X83977949Y-54025257D01*
X83849646Y-54150900D01*
X83797465Y-54231868D01*
X83760839Y-54288702D01*
X83752368Y-54301846D01*
X83747605Y-54314931D01*
X83747605Y-54314932D01*
X83696464Y-54455442D01*
X83690949Y-54470593D01*
X83668443Y-54648753D01*
X83669801Y-54662604D01*
X83669801Y-54662607D01*
X83678585Y-54752193D01*
X83685966Y-54827473D01*
X83742649Y-54997869D01*
X83835675Y-55151472D01*
X83845346Y-55161486D01*
X83845347Y-55161488D01*
X83950746Y-55270632D01*
X83950749Y-55270635D01*
X83960419Y-55280648D01*
X84110682Y-55378978D01*
X84278996Y-55441573D01*
X84292792Y-55443414D01*
X84292793Y-55443414D01*
X84456995Y-55465323D01*
X84456654Y-55467881D01*
X84530925Y-55484280D01*
X84606905Y-55536209D01*
X84960693Y-55889998D01*
X85014669Y-55970779D01*
X85033623Y-56066067D01*
X85014669Y-56161355D01*
X84958839Y-56243970D01*
X84949152Y-56253457D01*
X84876347Y-56324753D01*
X84849646Y-56350900D01*
X84752368Y-56501846D01*
X84747605Y-56514931D01*
X84747605Y-56514932D01*
X84704370Y-56633720D01*
X84690949Y-56670593D01*
X84668443Y-56848753D01*
X84669801Y-56862604D01*
X84669801Y-56862607D01*
X84678922Y-56955635D01*
X84685966Y-57027473D01*
X84742649Y-57197869D01*
X84749861Y-57209777D01*
X84823928Y-57332075D01*
X84835675Y-57351472D01*
X84862632Y-57379387D01*
X84878480Y-57395798D01*
X84931038Y-57477510D01*
X84948364Y-57568768D01*
X84948365Y-61634849D01*
X84929411Y-61730137D01*
X84875435Y-61810918D01*
X84669251Y-62017103D01*
X84556750Y-62129604D01*
X84475969Y-62183581D01*
X84380680Y-62202535D01*
X84285392Y-62183581D01*
X84230134Y-62151870D01*
X84208464Y-62135421D01*
X84192685Y-62129174D01*
X84192682Y-62129172D01*
X84090366Y-62088663D01*
X84090364Y-62088663D01*
X84074582Y-62082414D01*
X84057702Y-62080640D01*
X84057699Y-62080639D01*
X83948256Y-62069136D01*
X83948254Y-62069136D01*
X83931375Y-62067362D01*
X83789398Y-62091376D01*
X83659108Y-62152686D01*
X83610092Y-62192378D01*
X83373868Y-62428603D01*
X83368741Y-62435358D01*
X83368738Y-62435361D01*
X83356612Y-62451337D01*
X83309083Y-62513953D01*
X83302835Y-62529733D01*
X83302832Y-62529739D01*
X83295287Y-62548796D01*
X83242586Y-62630416D01*
X83169793Y-62682434D01*
X83107012Y-62711977D01*
X83107009Y-62711979D01*
X83093423Y-62718372D01*
X83044407Y-62758064D01*
X82808183Y-62994289D01*
X82803056Y-63001044D01*
X82803053Y-63001047D01*
X82791291Y-63016543D01*
X82743398Y-63079639D01*
X82729604Y-63114480D01*
X82676905Y-63196098D01*
X82604107Y-63248120D01*
X82527737Y-63284057D01*
X82478721Y-63323749D01*
X82242497Y-63559974D01*
X82177712Y-63645324D01*
X82175862Y-63649996D01*
X82117989Y-63717399D01*
X82059636Y-63751498D01*
X81976061Y-63786117D01*
X81956190Y-63797589D01*
X81945111Y-63810223D01*
X81930192Y-63854176D01*
X81881615Y-63938315D01*
X81804538Y-63997461D01*
X81710694Y-64022608D01*
X81614370Y-64009928D01*
X81530231Y-63961351D01*
X81518335Y-63950211D01*
X81273837Y-63705713D01*
X81219861Y-63624931D01*
X81200907Y-63529643D01*
X81203973Y-63490691D01*
X81205725Y-63479629D01*
X81208176Y-63464154D01*
X81204505Y-63425322D01*
X81214407Y-63328674D01*
X81260541Y-63243171D01*
X81335883Y-63181832D01*
X81428965Y-63153993D01*
X81468797Y-63155773D01*
X81468937Y-63153547D01*
X81513669Y-63156361D01*
X81652801Y-63148338D01*
X81682145Y-63143058D01*
X81815349Y-63102079D01*
X81842578Y-63089956D01*
X81965245Y-63016543D01*
X81982285Y-63004093D01*
X81984499Y-63002014D01*
X82073613Y-62912900D01*
X82085202Y-62895558D01*
X82073615Y-62878217D01*
X81277077Y-62081679D01*
X81223101Y-62000897D01*
X81204147Y-61905609D01*
X81813867Y-61905609D01*
X81825454Y-61922950D01*
X82427168Y-62524664D01*
X82444510Y-62536251D01*
X82461847Y-62524667D01*
X82521458Y-62465055D01*
X82531386Y-62453853D01*
X82596336Y-62371020D01*
X82611777Y-62345524D01*
X82669131Y-62218500D01*
X82678042Y-62190065D01*
X82703441Y-62053023D01*
X82705312Y-62023276D01*
X82697289Y-61884144D01*
X82692009Y-61854800D01*
X82651030Y-61721596D01*
X82638907Y-61694367D01*
X82565494Y-61571700D01*
X82553041Y-61554655D01*
X82550985Y-61552466D01*
X82373462Y-61374943D01*
X82356121Y-61363356D01*
X82338779Y-61374944D01*
X81825455Y-61888267D01*
X81813867Y-61905609D01*
X81204147Y-61905609D01*
X81223101Y-61810321D01*
X81277077Y-61729539D01*
X81454560Y-61552056D01*
X81985227Y-61021390D01*
X81996814Y-61004049D01*
X81985227Y-60986708D01*
X81837229Y-60838710D01*
X81826030Y-60828785D01*
X81743191Y-60763831D01*
X81717700Y-60748393D01*
X81590674Y-60691038D01*
X81562239Y-60682127D01*
X81425198Y-60656728D01*
X81395451Y-60654857D01*
X81278301Y-60661612D01*
X81182080Y-60648175D01*
X81098326Y-60598938D01*
X81039789Y-60521398D01*
X81015381Y-60427358D01*
X81028818Y-60331137D01*
X81078055Y-60247383D01*
X81087898Y-60236955D01*
X81289811Y-60035042D01*
X81299739Y-60023840D01*
X81364689Y-59941007D01*
X81380130Y-59915511D01*
X81437484Y-59788487D01*
X81446395Y-59760052D01*
X81471794Y-59623011D01*
X81473665Y-59593265D01*
X81465641Y-59454126D01*
X81460364Y-59424795D01*
X81419383Y-59291583D01*
X81407260Y-59264355D01*
X81333841Y-59141680D01*
X81321399Y-59124650D01*
X81319320Y-59122436D01*
X81159494Y-58962609D01*
X81142151Y-58951020D01*
X81124810Y-58962607D01*
X80266400Y-59821017D01*
X80185618Y-59874993D01*
X80090330Y-59893947D01*
X79995042Y-59874993D01*
X79914260Y-59821017D01*
X79135400Y-59042157D01*
X79118059Y-59030570D01*
X79100718Y-59042157D01*
X78890849Y-59252026D01*
X78880921Y-59263228D01*
X78815971Y-59346061D01*
X78800530Y-59371557D01*
X78743176Y-59498581D01*
X78734265Y-59527016D01*
X78708866Y-59664057D01*
X78706995Y-59693803D01*
X78715019Y-59832942D01*
X78720296Y-59862273D01*
X78761277Y-59995485D01*
X78773403Y-60022719D01*
X78816730Y-60095114D01*
X78849401Y-60186611D01*
X78844570Y-60283646D01*
X78802973Y-60371445D01*
X78730943Y-60436643D01*
X78639446Y-60469314D01*
X78542411Y-60464483D01*
X78479698Y-60438698D01*
X78470624Y-60431660D01*
X78319825Y-60366403D01*
X78157537Y-60340699D01*
X78141944Y-60342173D01*
X78141943Y-60342173D01*
X78113957Y-60344819D01*
X78046954Y-60351153D01*
X77950307Y-60341251D01*
X77864804Y-60295117D01*
X77847451Y-60279328D01*
X77820956Y-60252833D01*
X77817851Y-60249420D01*
X77813249Y-60242169D01*
X77767589Y-60199291D01*
X77761972Y-60193849D01*
X77740164Y-60172041D01*
X77733982Y-60167246D01*
X77728458Y-60162376D01*
X77722698Y-60157135D01*
X77693471Y-60129689D01*
X77679741Y-60122141D01*
X77673963Y-60117943D01*
X77660399Y-60109033D01*
X77654234Y-60105387D01*
X77641854Y-60095784D01*
X77605383Y-60080002D01*
X77584319Y-60069683D01*
X77563210Y-60058078D01*
X77549484Y-60050532D01*
X77534311Y-60046636D01*
X77527666Y-60044005D01*
X77512295Y-60038742D01*
X77505429Y-60036748D01*
X77491056Y-60030528D01*
X77451800Y-60024310D01*
X77428843Y-60019556D01*
X77390334Y-60009669D01*
X77387648Y-60009500D01*
X77377884Y-60009500D01*
X77353187Y-60007556D01*
X77344240Y-60007275D01*
X77328767Y-60004824D01*
X77313173Y-60006298D01*
X77313171Y-60006298D01*
X77290990Y-60008395D01*
X77267557Y-60009500D01*
X62798364Y-60009500D01*
X62703076Y-59990546D01*
X62622294Y-59936570D01*
X62568318Y-59855788D01*
X62549364Y-59760500D01*
X62549364Y-59720422D01*
X62533770Y-59596985D01*
X62505651Y-59525964D01*
X62479049Y-59458773D01*
X62479047Y-59458769D01*
X62473283Y-59444211D01*
X62420497Y-59371557D01*
X62385912Y-59323954D01*
X62385911Y-59323953D01*
X62376703Y-59311279D01*
X62364632Y-59301293D01*
X62364630Y-59301291D01*
X62262169Y-59216529D01*
X62250098Y-59206543D01*
X62101425Y-59136582D01*
X62086034Y-59133646D01*
X62072311Y-59131028D01*
X61982262Y-59094556D01*
X61913025Y-59026399D01*
X61875140Y-58936935D01*
X61874376Y-58839783D01*
X61910848Y-58749734D01*
X61979005Y-58680497D01*
X61999743Y-58671263D01*
X79477366Y-58671263D01*
X79488953Y-58688604D01*
X80072989Y-59272640D01*
X80090330Y-59284227D01*
X80107671Y-59272640D01*
X80771257Y-58609054D01*
X80782844Y-58591713D01*
X80771257Y-58574372D01*
X80640937Y-58444052D01*
X80629738Y-58434127D01*
X80546899Y-58369173D01*
X80521408Y-58353735D01*
X80394382Y-58296380D01*
X80365947Y-58287469D01*
X80228905Y-58262070D01*
X80199159Y-58260199D01*
X80060021Y-58268223D01*
X80030690Y-58273500D01*
X79897478Y-58314481D01*
X79870250Y-58326604D01*
X79747575Y-58400023D01*
X79730540Y-58412468D01*
X79728351Y-58414524D01*
X79488953Y-58653922D01*
X79477366Y-58671263D01*
X61999743Y-58671263D01*
X62059569Y-58644626D01*
X62081068Y-58639345D01*
X62211447Y-58590079D01*
X62237857Y-58576272D01*
X62352715Y-58497332D01*
X62375077Y-58477617D01*
X62467788Y-58373561D01*
X62484798Y-58349087D01*
X62550016Y-58225912D01*
X62560694Y-58198094D01*
X62595525Y-58059428D01*
X62598769Y-58038592D01*
X62598864Y-58035576D01*
X62598864Y-57697027D01*
X62594795Y-57676569D01*
X62574337Y-57672500D01*
X61723868Y-57672499D01*
X61723858Y-57672500D01*
X60373391Y-57672499D01*
X60352933Y-57676568D01*
X60348864Y-57697026D01*
X60348864Y-57993819D01*
X60349764Y-58008758D01*
X60362411Y-58113269D01*
X60369518Y-58142202D01*
X60418785Y-58272583D01*
X60432592Y-58298993D01*
X60511532Y-58413851D01*
X60531247Y-58436213D01*
X60635303Y-58528924D01*
X60659777Y-58545934D01*
X60782952Y-58611152D01*
X60810771Y-58621831D01*
X60892607Y-58642386D01*
X60980407Y-58683982D01*
X61045605Y-58756012D01*
X61078276Y-58847509D01*
X61073445Y-58944544D01*
X61031849Y-59032344D01*
X60959819Y-59097542D01*
X60897239Y-59123655D01*
X60885849Y-59125094D01*
X60733075Y-59185581D01*
X60720405Y-59194787D01*
X60720402Y-59194788D01*
X60641621Y-59252026D01*
X60600144Y-59282161D01*
X60590162Y-59294227D01*
X60590161Y-59294228D01*
X60547281Y-59346061D01*
X60495407Y-59408766D01*
X60425446Y-59557439D01*
X60409254Y-59642322D01*
X60401381Y-59683594D01*
X60398364Y-59699408D01*
X60398364Y-59773000D01*
X60379410Y-59868288D01*
X60325434Y-59949070D01*
X60244652Y-60003046D01*
X60149364Y-60022000D01*
X57440138Y-60022000D01*
X57344850Y-60003046D01*
X57264068Y-59949070D01*
X57210092Y-59868288D01*
X57195769Y-59808614D01*
X57193964Y-59808900D01*
X57190731Y-59788487D01*
X57174117Y-59683594D01*
X57164163Y-59664057D01*
X57125416Y-59588012D01*
X57125415Y-59588011D01*
X57116520Y-59570553D01*
X57026811Y-59480844D01*
X56974374Y-59454126D01*
X56931228Y-59432142D01*
X56931227Y-59432142D01*
X56913770Y-59423247D01*
X56850765Y-59413268D01*
X56798126Y-59404930D01*
X56798122Y-59404930D01*
X56788464Y-59403400D01*
X55061264Y-59403400D01*
X55051606Y-59404930D01*
X55051602Y-59404930D01*
X54998963Y-59413268D01*
X54935958Y-59423247D01*
X54918501Y-59432142D01*
X54918500Y-59432142D01*
X54875354Y-59454126D01*
X54822917Y-59480844D01*
X54733208Y-59570553D01*
X54724313Y-59588011D01*
X54724312Y-59588012D01*
X54688772Y-59657764D01*
X54628624Y-59734062D01*
X54543857Y-59781534D01*
X54447375Y-59792953D01*
X54353868Y-59766582D01*
X54290841Y-59720791D01*
X54240130Y-59670080D01*
X54223536Y-59656157D01*
X54053068Y-59536794D01*
X54034311Y-59525964D01*
X53845710Y-59438018D01*
X53825346Y-59430606D01*
X53658555Y-59385914D01*
X53637741Y-59384550D01*
X53635853Y-59388377D01*
X53634864Y-59395891D01*
X53634863Y-60422501D01*
X53634864Y-60422507D01*
X53634863Y-60673501D01*
X53615909Y-60768789D01*
X53561932Y-60849570D01*
X53481150Y-60903546D01*
X53385863Y-60922500D01*
X52116457Y-60922499D01*
X52095999Y-60926568D01*
X52095166Y-60930756D01*
X47860000Y-60930756D01*
X47860000Y-60419623D01*
X52096914Y-60419623D01*
X52100741Y-60421511D01*
X52108255Y-60422500D01*
X53110337Y-60422501D01*
X53130795Y-60418432D01*
X53134864Y-60397974D01*
X53134865Y-59404093D01*
X53130796Y-59383635D01*
X53126608Y-59382802D01*
X53119094Y-59383792D01*
X52944382Y-59430606D01*
X52924018Y-59438018D01*
X52735417Y-59525964D01*
X52716660Y-59536794D01*
X52546192Y-59656157D01*
X52529598Y-59670080D01*
X52382444Y-59817234D01*
X52368521Y-59833828D01*
X52249158Y-60004296D01*
X52238328Y-60023053D01*
X52150382Y-60211654D01*
X52142970Y-60232018D01*
X52098278Y-60398809D01*
X52096914Y-60419623D01*
X47860000Y-60419623D01*
X47860000Y-56809424D01*
X60348864Y-56809424D01*
X60348864Y-57147973D01*
X60352933Y-57168431D01*
X60373391Y-57172500D01*
X61199337Y-57172501D01*
X61219795Y-57168432D01*
X61223864Y-57147974D01*
X61223864Y-57147973D01*
X61723863Y-57147973D01*
X61727932Y-57168431D01*
X61748390Y-57172500D01*
X62574337Y-57172501D01*
X62594795Y-57168432D01*
X62598864Y-57147974D01*
X62598864Y-56851181D01*
X62597964Y-56836242D01*
X62585317Y-56731731D01*
X62578210Y-56702798D01*
X62528943Y-56572417D01*
X62515136Y-56546007D01*
X62436196Y-56431149D01*
X62416481Y-56408787D01*
X62312425Y-56316076D01*
X62287951Y-56299066D01*
X62164776Y-56233848D01*
X62136958Y-56223170D01*
X61998292Y-56188339D01*
X61977456Y-56185095D01*
X61974440Y-56185000D01*
X61748391Y-56185000D01*
X61727933Y-56189069D01*
X61723864Y-56209527D01*
X61723863Y-57147973D01*
X61223864Y-57147973D01*
X61223865Y-56209527D01*
X61219796Y-56189069D01*
X61199338Y-56185000D01*
X61015045Y-56185000D01*
X61000106Y-56185900D01*
X60895595Y-56198547D01*
X60866662Y-56205654D01*
X60736281Y-56254921D01*
X60709871Y-56268728D01*
X60595013Y-56347668D01*
X60572651Y-56367383D01*
X60479940Y-56471439D01*
X60462930Y-56495913D01*
X60397712Y-56619088D01*
X60387034Y-56646906D01*
X60352203Y-56785572D01*
X60348959Y-56806408D01*
X60348864Y-56809424D01*
X47860000Y-56809424D01*
X47860000Y-56045383D01*
X63822320Y-56045383D01*
X63860113Y-56280021D01*
X63863519Y-56289996D01*
X63863519Y-56289998D01*
X63895047Y-56382347D01*
X63936900Y-56504938D01*
X63941937Y-56514196D01*
X63941938Y-56514198D01*
X64009763Y-56638856D01*
X64050485Y-56713701D01*
X64197621Y-56900341D01*
X64205457Y-56907409D01*
X64353211Y-57040681D01*
X64374100Y-57059523D01*
X64383006Y-57065164D01*
X64514611Y-57148522D01*
X64574876Y-57186694D01*
X64794209Y-57278218D01*
X64804487Y-57280582D01*
X64804489Y-57280582D01*
X65015558Y-57329117D01*
X65015562Y-57329118D01*
X65025827Y-57331478D01*
X65263108Y-57344952D01*
X65499266Y-57318254D01*
X65727550Y-57252147D01*
X65941432Y-57148522D01*
X66134797Y-57010342D01*
X66184927Y-56959773D01*
X66252057Y-56892054D01*
X66302115Y-56841557D01*
X66438602Y-56646995D01*
X66540357Y-56432216D01*
X66604469Y-56203364D01*
X66605862Y-56190004D01*
X66622065Y-56034526D01*
X72062234Y-56034526D01*
X72062234Y-56218819D01*
X72063134Y-56233758D01*
X72075781Y-56338269D01*
X72082888Y-56367202D01*
X72132155Y-56497583D01*
X72145962Y-56523993D01*
X72224905Y-56638856D01*
X72244612Y-56661209D01*
X72348675Y-56753925D01*
X72373146Y-56770932D01*
X72496314Y-56836147D01*
X72524147Y-56846832D01*
X72662806Y-56881661D01*
X72683642Y-56884905D01*
X72686658Y-56885000D01*
X73025207Y-56885000D01*
X73045665Y-56880931D01*
X73049734Y-56860473D01*
X73049735Y-56034527D01*
X73045666Y-56014069D01*
X73025208Y-56010000D01*
X72086761Y-56009999D01*
X72066303Y-56014068D01*
X72062234Y-56034526D01*
X66622065Y-56034526D01*
X66628499Y-55972799D01*
X66628499Y-55972794D01*
X66629105Y-55966982D01*
X66629364Y-55940000D01*
X66618822Y-55815759D01*
X66610162Y-55713695D01*
X66610161Y-55713690D01*
X66609270Y-55703188D01*
X66549563Y-55473148D01*
X66453288Y-55259424D01*
X72062234Y-55259424D01*
X72062234Y-55485473D01*
X72066303Y-55505931D01*
X72086761Y-55510000D01*
X73025207Y-55510001D01*
X73025232Y-55509996D01*
X73549733Y-55509996D01*
X73549734Y-55510006D01*
X73549733Y-56860473D01*
X73553802Y-56880931D01*
X73574260Y-56885000D01*
X73871053Y-56885000D01*
X73885992Y-56884100D01*
X73990503Y-56871453D01*
X74019436Y-56864346D01*
X74149817Y-56815079D01*
X74176227Y-56801272D01*
X74291085Y-56722332D01*
X74313447Y-56702617D01*
X74406158Y-56598561D01*
X74423168Y-56574087D01*
X74488386Y-56450912D01*
X74499065Y-56423093D01*
X74519620Y-56341257D01*
X74561216Y-56253457D01*
X74633246Y-56188259D01*
X74724743Y-56155588D01*
X74821778Y-56160419D01*
X74909578Y-56202015D01*
X74974776Y-56274045D01*
X75000889Y-56336625D01*
X75002328Y-56348015D01*
X75062815Y-56500789D01*
X75072021Y-56513459D01*
X75072022Y-56513462D01*
X75106858Y-56561409D01*
X75159395Y-56633720D01*
X75171461Y-56643702D01*
X75171464Y-56643705D01*
X75244163Y-56703846D01*
X75286000Y-56738456D01*
X75300175Y-56745126D01*
X75300176Y-56745127D01*
X75318873Y-56753925D01*
X75434673Y-56808417D01*
X75450057Y-56811352D01*
X75450061Y-56811353D01*
X75565103Y-56833299D01*
X75565106Y-56833299D01*
X75576642Y-56835500D01*
X76751812Y-56835500D01*
X76808497Y-56828339D01*
X76859705Y-56821870D01*
X76859707Y-56821869D01*
X76875249Y-56819906D01*
X77028023Y-56759419D01*
X77063434Y-56733692D01*
X77151664Y-56693018D01*
X77248744Y-56689204D01*
X77339894Y-56722831D01*
X77348124Y-56728100D01*
X77484785Y-56819414D01*
X77687480Y-56906499D01*
X77698614Y-56909018D01*
X77698616Y-56909019D01*
X77891509Y-56952666D01*
X77891511Y-56952666D01*
X77902651Y-56955187D01*
X78019374Y-56959773D01*
X78111680Y-56963400D01*
X78111684Y-56963400D01*
X78123091Y-56963848D01*
X78271518Y-56942327D01*
X78330115Y-56933831D01*
X78330116Y-56933831D01*
X78341418Y-56932192D01*
X78352228Y-56928522D01*
X78352230Y-56928522D01*
X78539513Y-56864948D01*
X78539515Y-56864947D01*
X78550321Y-56861279D01*
X78568353Y-56851181D01*
X78732850Y-56759058D01*
X78742803Y-56753484D01*
X78912417Y-56612417D01*
X79053484Y-56442803D01*
X79077842Y-56399308D01*
X79155703Y-56260278D01*
X79155704Y-56260276D01*
X79161279Y-56250321D01*
X79166514Y-56234901D01*
X79228522Y-56052230D01*
X79228522Y-56052228D01*
X79232192Y-56041418D01*
X79236158Y-56014069D01*
X79262795Y-55830354D01*
X79262795Y-55830353D01*
X79263848Y-55823091D01*
X79265500Y-55760000D01*
X79245314Y-55540315D01*
X79185431Y-55327987D01*
X79121393Y-55198130D01*
X79092910Y-55140372D01*
X79092909Y-55140370D01*
X79087858Y-55130128D01*
X79078997Y-55118261D01*
X79026942Y-55048552D01*
X78955861Y-54953363D01*
X78793862Y-54803613D01*
X78784204Y-54797519D01*
X78616942Y-54691984D01*
X78616938Y-54691982D01*
X78607286Y-54685892D01*
X78479724Y-54635000D01*
X78412981Y-54608372D01*
X78412978Y-54608371D01*
X78402380Y-54604143D01*
X78186009Y-54561104D01*
X78084960Y-54559781D01*
X77976834Y-54558365D01*
X77976829Y-54558365D01*
X77965418Y-54558216D01*
X77954170Y-54560149D01*
X77954167Y-54560149D01*
X77759237Y-54593644D01*
X77759236Y-54593644D01*
X77747994Y-54595576D01*
X77541019Y-54671933D01*
X77351425Y-54784730D01*
X77351020Y-54785085D01*
X77267426Y-54823624D01*
X77170346Y-54827440D01*
X77075872Y-54791742D01*
X77075543Y-54791533D01*
X77063468Y-54781544D01*
X77049292Y-54774873D01*
X77049290Y-54774872D01*
X76964603Y-54735021D01*
X76914795Y-54711583D01*
X76899411Y-54708648D01*
X76899407Y-54708647D01*
X76784365Y-54686701D01*
X76784362Y-54686701D01*
X76772826Y-54684500D01*
X75597656Y-54684500D01*
X75552268Y-54690234D01*
X75489763Y-54698130D01*
X75489761Y-54698131D01*
X75474219Y-54700094D01*
X75321445Y-54760581D01*
X75308775Y-54769787D01*
X75308772Y-54769788D01*
X75211197Y-54840681D01*
X75188514Y-54857161D01*
X75178532Y-54869227D01*
X75178531Y-54869228D01*
X75103327Y-54960134D01*
X75083777Y-54983766D01*
X75013816Y-55132439D01*
X75010880Y-55147830D01*
X75008262Y-55161553D01*
X74971790Y-55251602D01*
X74903633Y-55320839D01*
X74814169Y-55358724D01*
X74717017Y-55359488D01*
X74626968Y-55323016D01*
X74557731Y-55254859D01*
X74521860Y-55174295D01*
X74516579Y-55152796D01*
X74467312Y-55022414D01*
X74453506Y-54996007D01*
X74374563Y-54881144D01*
X74354856Y-54858791D01*
X74250793Y-54766075D01*
X74226322Y-54749068D01*
X74103154Y-54683853D01*
X74075321Y-54673168D01*
X73936662Y-54638339D01*
X73915826Y-54635095D01*
X73912810Y-54635000D01*
X73574261Y-54635000D01*
X73553803Y-54639069D01*
X73549734Y-54659527D01*
X73549733Y-55509996D01*
X73025232Y-55509996D01*
X73045665Y-55505932D01*
X73049734Y-55485474D01*
X73049735Y-54659527D01*
X73045666Y-54639069D01*
X73025208Y-54635000D01*
X72728415Y-54635000D01*
X72713476Y-54635900D01*
X72608965Y-54648547D01*
X72580032Y-54655654D01*
X72449651Y-54704921D01*
X72423241Y-54718728D01*
X72308383Y-54797668D01*
X72286021Y-54817383D01*
X72193310Y-54921439D01*
X72176300Y-54945913D01*
X72111082Y-55069088D01*
X72100404Y-55096906D01*
X72065573Y-55235572D01*
X72062329Y-55256408D01*
X72062234Y-55259424D01*
X66453288Y-55259424D01*
X66451951Y-55256456D01*
X66319224Y-55059308D01*
X66208705Y-54943455D01*
X66162461Y-54894979D01*
X66162457Y-54894976D01*
X66155176Y-54887343D01*
X66125836Y-54865513D01*
X66074708Y-54827473D01*
X65964500Y-54745476D01*
X65955104Y-54740699D01*
X65955101Y-54740697D01*
X65846499Y-54685481D01*
X65752647Y-54637764D01*
X65742583Y-54634639D01*
X65742578Y-54634637D01*
X65535750Y-54570415D01*
X65535746Y-54570414D01*
X65525675Y-54567287D01*
X65290072Y-54536060D01*
X65279545Y-54536455D01*
X65279541Y-54536455D01*
X65176787Y-54540313D01*
X65052577Y-54544976D01*
X65042260Y-54547141D01*
X65042258Y-54547141D01*
X64830300Y-54591614D01*
X64830295Y-54591615D01*
X64819979Y-54593780D01*
X64810172Y-54597653D01*
X64608735Y-54677204D01*
X64608731Y-54677206D01*
X64598929Y-54681077D01*
X64589923Y-54686542D01*
X64589917Y-54686545D01*
X64484077Y-54750771D01*
X64395749Y-54804370D01*
X64387785Y-54811281D01*
X64387782Y-54811283D01*
X64333034Y-54858791D01*
X64216246Y-54960134D01*
X64177345Y-55007578D01*
X64074966Y-55132439D01*
X64065555Y-55143916D01*
X64060345Y-55153069D01*
X64060342Y-55153073D01*
X63953198Y-55341298D01*
X63947983Y-55350460D01*
X63930775Y-55397867D01*
X63870489Y-55563950D01*
X63870487Y-55563956D01*
X63866892Y-55573861D01*
X63865016Y-55584238D01*
X63865015Y-55584240D01*
X63826479Y-55797348D01*
X63826478Y-55797354D01*
X63824602Y-55807731D01*
X63823332Y-55940000D01*
X63822467Y-56030115D01*
X63822320Y-56045383D01*
X47860000Y-56045383D01*
X47860000Y-51238499D01*
X49634747Y-51238499D01*
X49641195Y-51355654D01*
X49649338Y-51503613D01*
X49650314Y-51521356D01*
X49652030Y-51529984D01*
X49652031Y-51529990D01*
X49699591Y-51769088D01*
X49705580Y-51799197D01*
X49743120Y-51906096D01*
X49775632Y-51998675D01*
X49799443Y-52066480D01*
X49833259Y-52131578D01*
X49925972Y-52310060D01*
X49925975Y-52310066D01*
X49930030Y-52317871D01*
X49935149Y-52325034D01*
X49935150Y-52325036D01*
X50089616Y-52541190D01*
X50089620Y-52541195D01*
X50094736Y-52548354D01*
X50140437Y-52596261D01*
X50284188Y-52746952D01*
X50284193Y-52746957D01*
X50290273Y-52753330D01*
X50297194Y-52758786D01*
X50297195Y-52758787D01*
X50505823Y-52923256D01*
X50505827Y-52923259D01*
X50512742Y-52928710D01*
X50520355Y-52933132D01*
X50520358Y-52933134D01*
X50714165Y-53045706D01*
X50757702Y-53070994D01*
X50765864Y-53074300D01*
X51012103Y-53174038D01*
X51012108Y-53174040D01*
X51020266Y-53177344D01*
X51028814Y-53179467D01*
X51028813Y-53179467D01*
X51286656Y-53243516D01*
X51286661Y-53243517D01*
X51295196Y-53245637D01*
X51303951Y-53246534D01*
X51531548Y-53269853D01*
X51531556Y-53269853D01*
X51537867Y-53270500D01*
X53510616Y-53270500D01*
X53514991Y-53270190D01*
X53514997Y-53270190D01*
X53575818Y-53265883D01*
X53722577Y-53255492D01*
X53999517Y-53195869D01*
X54265292Y-53097819D01*
X54330287Y-53062750D01*
X54506860Y-52967477D01*
X54506862Y-52967476D01*
X54514601Y-52963300D01*
X54521673Y-52958077D01*
X54521677Y-52958074D01*
X54735394Y-52800219D01*
X54742468Y-52794994D01*
X54779249Y-52758787D01*
X54938068Y-52602443D01*
X54944348Y-52596261D01*
X55116212Y-52371065D01*
X55141990Y-52325036D01*
X55250331Y-52131578D01*
X55254631Y-52123900D01*
X55356843Y-51859698D01*
X55406395Y-51645914D01*
X55418822Y-51592303D01*
X55418823Y-51592298D01*
X55420809Y-51583729D01*
X55445253Y-51301501D01*
X55433282Y-51083982D01*
X60823364Y-51083982D01*
X60823365Y-53748926D01*
X60823812Y-53754189D01*
X60833918Y-53873290D01*
X60838459Y-53926812D01*
X60898166Y-54156852D01*
X60995778Y-54373544D01*
X61128505Y-54570692D01*
X61189506Y-54634637D01*
X61285268Y-54735021D01*
X61285272Y-54735024D01*
X61292553Y-54742657D01*
X61301018Y-54748955D01*
X61301019Y-54748956D01*
X61304801Y-54751770D01*
X61483229Y-54884524D01*
X61492625Y-54889301D01*
X61492628Y-54889303D01*
X61555835Y-54921439D01*
X61695082Y-54992236D01*
X61705146Y-54995361D01*
X61705151Y-54995363D01*
X61911979Y-55059585D01*
X61911983Y-55059586D01*
X61922054Y-55062713D01*
X62157657Y-55093940D01*
X62168184Y-55093545D01*
X62168188Y-55093545D01*
X62270966Y-55089686D01*
X62395151Y-55085024D01*
X62405468Y-55082859D01*
X62405470Y-55082859D01*
X62617428Y-55038386D01*
X62617433Y-55038385D01*
X62627749Y-55036220D01*
X62700275Y-55007578D01*
X62838993Y-54952796D01*
X62838997Y-54952794D01*
X62848799Y-54948923D01*
X62857805Y-54943458D01*
X62857811Y-54943455D01*
X62995743Y-54859755D01*
X63051979Y-54825630D01*
X63070864Y-54809243D01*
X63183983Y-54711083D01*
X63231482Y-54669866D01*
X63340872Y-54536455D01*
X63375489Y-54494236D01*
X63375490Y-54494235D01*
X63382173Y-54486084D01*
X63387386Y-54476927D01*
X63387877Y-54476063D01*
X63390578Y-54471319D01*
X63454187Y-54397886D01*
X63541058Y-54354383D01*
X63606974Y-54345500D01*
X63973864Y-54345500D01*
X63983522Y-54343970D01*
X63983526Y-54343970D01*
X64036165Y-54335632D01*
X64099170Y-54325653D01*
X64120212Y-54314932D01*
X64194752Y-54276952D01*
X64194753Y-54276951D01*
X64212211Y-54268056D01*
X64301920Y-54178347D01*
X64315905Y-54150900D01*
X64350622Y-54082764D01*
X64350622Y-54082763D01*
X64359517Y-54065306D01*
X64379364Y-53940000D01*
X64379364Y-50940000D01*
X100568364Y-50940000D01*
X100568364Y-53940000D01*
X100588211Y-54065306D01*
X100597106Y-54082763D01*
X100597106Y-54082764D01*
X100631823Y-54150900D01*
X100645808Y-54178347D01*
X100735517Y-54268056D01*
X100752975Y-54276951D01*
X100752976Y-54276952D01*
X100827517Y-54314932D01*
X100848558Y-54325653D01*
X100911563Y-54335632D01*
X100964202Y-54343970D01*
X100964206Y-54343970D01*
X100973864Y-54345500D01*
X101344363Y-54345500D01*
X101439651Y-54364454D01*
X101520433Y-54418430D01*
X101550908Y-54455433D01*
X101628505Y-54570692D01*
X101689506Y-54634637D01*
X101785268Y-54735021D01*
X101785272Y-54735024D01*
X101792553Y-54742657D01*
X101801018Y-54748955D01*
X101801019Y-54748956D01*
X101804801Y-54751770D01*
X101983229Y-54884524D01*
X101992625Y-54889301D01*
X101992628Y-54889303D01*
X102055835Y-54921439D01*
X102195082Y-54992236D01*
X102205146Y-54995361D01*
X102205151Y-54995363D01*
X102411979Y-55059585D01*
X102411983Y-55059586D01*
X102422054Y-55062713D01*
X102657657Y-55093940D01*
X102668184Y-55093545D01*
X102668188Y-55093545D01*
X102770966Y-55089686D01*
X102895151Y-55085024D01*
X102905468Y-55082859D01*
X102905470Y-55082859D01*
X103117428Y-55038386D01*
X103117433Y-55038385D01*
X103127749Y-55036220D01*
X103200275Y-55007578D01*
X103338993Y-54952796D01*
X103338997Y-54952794D01*
X103348799Y-54948923D01*
X103357805Y-54943458D01*
X103357811Y-54943455D01*
X103495743Y-54859755D01*
X103551979Y-54825630D01*
X103570864Y-54809243D01*
X103683983Y-54711083D01*
X103731482Y-54669866D01*
X103840872Y-54536455D01*
X103875490Y-54494235D01*
X103875492Y-54494232D01*
X103882173Y-54486084D01*
X103887385Y-54476928D01*
X103887386Y-54476927D01*
X103994530Y-54288702D01*
X103994531Y-54288699D01*
X103999745Y-54279540D01*
X104031448Y-54192201D01*
X104077239Y-54066050D01*
X104077241Y-54066044D01*
X104080836Y-54056139D01*
X104087740Y-54017962D01*
X104121666Y-53830344D01*
X104121666Y-53830341D01*
X104123126Y-53822269D01*
X104124364Y-53796019D01*
X104124364Y-51238499D01*
X113134747Y-51238499D01*
X113141195Y-51355654D01*
X113149338Y-51503613D01*
X113150314Y-51521356D01*
X113152030Y-51529984D01*
X113152031Y-51529990D01*
X113199591Y-51769088D01*
X113205580Y-51799197D01*
X113243120Y-51906096D01*
X113275632Y-51998675D01*
X113299443Y-52066480D01*
X113333259Y-52131578D01*
X113425972Y-52310060D01*
X113425975Y-52310066D01*
X113430030Y-52317871D01*
X113435149Y-52325034D01*
X113435150Y-52325036D01*
X113589616Y-52541190D01*
X113589620Y-52541195D01*
X113594736Y-52548354D01*
X113640437Y-52596261D01*
X113784188Y-52746952D01*
X113784193Y-52746957D01*
X113790273Y-52753330D01*
X113797194Y-52758786D01*
X113797195Y-52758787D01*
X114005823Y-52923256D01*
X114005827Y-52923259D01*
X114012742Y-52928710D01*
X114020355Y-52933132D01*
X114020358Y-52933134D01*
X114214165Y-53045706D01*
X114257702Y-53070994D01*
X114265864Y-53074300D01*
X114512103Y-53174038D01*
X114512108Y-53174040D01*
X114520266Y-53177344D01*
X114528814Y-53179467D01*
X114528813Y-53179467D01*
X114786656Y-53243516D01*
X114786661Y-53243517D01*
X114795196Y-53245637D01*
X114803951Y-53246534D01*
X115031548Y-53269853D01*
X115031556Y-53269853D01*
X115037867Y-53270500D01*
X117010616Y-53270500D01*
X117014991Y-53270190D01*
X117014997Y-53270190D01*
X117075818Y-53265883D01*
X117222577Y-53255492D01*
X117499517Y-53195869D01*
X117765292Y-53097819D01*
X117830287Y-53062750D01*
X118006860Y-52967477D01*
X118006862Y-52967476D01*
X118014601Y-52963300D01*
X118021673Y-52958077D01*
X118021677Y-52958074D01*
X118235394Y-52800219D01*
X118242468Y-52794994D01*
X118279249Y-52758787D01*
X118438068Y-52602443D01*
X118444348Y-52596261D01*
X118616212Y-52371065D01*
X118641990Y-52325036D01*
X118750331Y-52131578D01*
X118754631Y-52123900D01*
X118856843Y-51859698D01*
X118906395Y-51645914D01*
X118918822Y-51592303D01*
X118918823Y-51592298D01*
X118920809Y-51583729D01*
X118945253Y-51301501D01*
X118929686Y-51018644D01*
X118917280Y-50956271D01*
X118876137Y-50749434D01*
X118876136Y-50749431D01*
X118874420Y-50740803D01*
X118826044Y-50603048D01*
X118783471Y-50481817D01*
X118783469Y-50481813D01*
X118780557Y-50473520D01*
X118695256Y-50309308D01*
X118654028Y-50229940D01*
X118654025Y-50229934D01*
X118649970Y-50222129D01*
X118611957Y-50168935D01*
X118490384Y-49998810D01*
X118490380Y-49998805D01*
X118485264Y-49991646D01*
X118347902Y-49847653D01*
X118295812Y-49793048D01*
X118295807Y-49793043D01*
X118289727Y-49786670D01*
X118282805Y-49781213D01*
X118074177Y-49616744D01*
X118074173Y-49616741D01*
X118067258Y-49611290D01*
X118016705Y-49581926D01*
X117829911Y-49473428D01*
X117822298Y-49469006D01*
X117756071Y-49442181D01*
X117567897Y-49365962D01*
X117567892Y-49365960D01*
X117559734Y-49362656D01*
X117485157Y-49344131D01*
X117293344Y-49296484D01*
X117293339Y-49296483D01*
X117284804Y-49294363D01*
X117276049Y-49293466D01*
X117048452Y-49270147D01*
X117048444Y-49270147D01*
X117042133Y-49269500D01*
X115069384Y-49269500D01*
X115065009Y-49269810D01*
X115065003Y-49269810D01*
X115004182Y-49274117D01*
X114857423Y-49284508D01*
X114580483Y-49344131D01*
X114314708Y-49442181D01*
X114065399Y-49576700D01*
X114058327Y-49581923D01*
X114058323Y-49581926D01*
X114018568Y-49611290D01*
X113837532Y-49745006D01*
X113831265Y-49751175D01*
X113831263Y-49751177D01*
X113695690Y-49884637D01*
X113635652Y-49943739D01*
X113463788Y-50168935D01*
X113459492Y-50176605D01*
X113459490Y-50176609D01*
X113389447Y-50301680D01*
X113325369Y-50416100D01*
X113223157Y-50680302D01*
X113159191Y-50956271D01*
X113134747Y-51238499D01*
X104124364Y-51238499D01*
X104124364Y-51131074D01*
X104114824Y-51018644D01*
X104110162Y-50963695D01*
X104110161Y-50963690D01*
X104109270Y-50953188D01*
X104049563Y-50723148D01*
X103951951Y-50506456D01*
X103819224Y-50309308D01*
X103718022Y-50203223D01*
X103662452Y-50144971D01*
X103662451Y-50144970D01*
X103655175Y-50137343D01*
X103464499Y-49995476D01*
X103455103Y-49990699D01*
X103455100Y-49990697D01*
X103330218Y-49927204D01*
X103252646Y-49887764D01*
X103242582Y-49884639D01*
X103242577Y-49884637D01*
X103035749Y-49820415D01*
X103035745Y-49820414D01*
X103025674Y-49817287D01*
X102790071Y-49786060D01*
X102779544Y-49786455D01*
X102779540Y-49786455D01*
X102676762Y-49790314D01*
X102552577Y-49794976D01*
X102542260Y-49797141D01*
X102542258Y-49797141D01*
X102330300Y-49841614D01*
X102330295Y-49841615D01*
X102319979Y-49843780D01*
X102310172Y-49847653D01*
X102108735Y-49927204D01*
X102108731Y-49927206D01*
X102098929Y-49931077D01*
X102089923Y-49936542D01*
X102089917Y-49936545D01*
X101920493Y-50039355D01*
X101895749Y-50054370D01*
X101887787Y-50061279D01*
X101887783Y-50061282D01*
X101807386Y-50131048D01*
X101716246Y-50210135D01*
X101709558Y-50218292D01*
X101627763Y-50318049D01*
X101565555Y-50393917D01*
X101560345Y-50403070D01*
X101560342Y-50403074D01*
X101557152Y-50408679D01*
X101493541Y-50482114D01*
X101406670Y-50525617D01*
X101340754Y-50534500D01*
X100973864Y-50534500D01*
X100964206Y-50536030D01*
X100964202Y-50536030D01*
X100911563Y-50544368D01*
X100848558Y-50554347D01*
X100831101Y-50563242D01*
X100831100Y-50563242D01*
X100752976Y-50603048D01*
X100735517Y-50611944D01*
X100645808Y-50701653D01*
X100588211Y-50814694D01*
X100568364Y-50940000D01*
X64379364Y-50940000D01*
X64359517Y-50814694D01*
X64301920Y-50701653D01*
X64212211Y-50611944D01*
X64194752Y-50603048D01*
X64116628Y-50563242D01*
X64116627Y-50563242D01*
X64099170Y-50554347D01*
X64036165Y-50544368D01*
X63983526Y-50536030D01*
X63983522Y-50536030D01*
X63973864Y-50534500D01*
X63603366Y-50534500D01*
X63508078Y-50515546D01*
X63427296Y-50461570D01*
X63396821Y-50424567D01*
X63319224Y-50309308D01*
X63218022Y-50203223D01*
X63162452Y-50144971D01*
X63162451Y-50144970D01*
X63155175Y-50137343D01*
X62964499Y-49995476D01*
X62955103Y-49990699D01*
X62955100Y-49990697D01*
X62830218Y-49927204D01*
X62752646Y-49887764D01*
X62742582Y-49884639D01*
X62742577Y-49884637D01*
X62535749Y-49820415D01*
X62535745Y-49820414D01*
X62525674Y-49817287D01*
X62290071Y-49786060D01*
X62279544Y-49786455D01*
X62279540Y-49786455D01*
X62176762Y-49790314D01*
X62052577Y-49794976D01*
X62042260Y-49797141D01*
X62042258Y-49797141D01*
X61830300Y-49841614D01*
X61830295Y-49841615D01*
X61819979Y-49843780D01*
X61810172Y-49847653D01*
X61608735Y-49927204D01*
X61608731Y-49927206D01*
X61598929Y-49931077D01*
X61589923Y-49936542D01*
X61589917Y-49936545D01*
X61420493Y-50039355D01*
X61395749Y-50054370D01*
X61387787Y-50061279D01*
X61387783Y-50061282D01*
X61307386Y-50131048D01*
X61216246Y-50210135D01*
X61209558Y-50218292D01*
X61127763Y-50318049D01*
X61065555Y-50393917D01*
X61060345Y-50403070D01*
X61060342Y-50403074D01*
X60969169Y-50563242D01*
X60947983Y-50600461D01*
X60944386Y-50610371D01*
X60870489Y-50813951D01*
X60870487Y-50813957D01*
X60866892Y-50823862D01*
X60865016Y-50834239D01*
X60865015Y-50834241D01*
X60826062Y-51049657D01*
X60824602Y-51057732D01*
X60823364Y-51083982D01*
X55433282Y-51083982D01*
X55429686Y-51018644D01*
X55417280Y-50956271D01*
X55376137Y-50749434D01*
X55376136Y-50749431D01*
X55374420Y-50740803D01*
X55326044Y-50603048D01*
X55283471Y-50481817D01*
X55283469Y-50481813D01*
X55280557Y-50473520D01*
X55195256Y-50309308D01*
X55154028Y-50229940D01*
X55154025Y-50229934D01*
X55149970Y-50222129D01*
X55111957Y-50168935D01*
X54990384Y-49998810D01*
X54990380Y-49998805D01*
X54985264Y-49991646D01*
X54847902Y-49847653D01*
X54795812Y-49793048D01*
X54795807Y-49793043D01*
X54789727Y-49786670D01*
X54782805Y-49781213D01*
X54574177Y-49616744D01*
X54574173Y-49616741D01*
X54567258Y-49611290D01*
X54516705Y-49581926D01*
X54329911Y-49473428D01*
X54322298Y-49469006D01*
X54256071Y-49442181D01*
X54067897Y-49365962D01*
X54067892Y-49365960D01*
X54059734Y-49362656D01*
X53985157Y-49344131D01*
X53793344Y-49296484D01*
X53793339Y-49296483D01*
X53784804Y-49294363D01*
X53776049Y-49293466D01*
X53548452Y-49270147D01*
X53548444Y-49270147D01*
X53542133Y-49269500D01*
X51569384Y-49269500D01*
X51565009Y-49269810D01*
X51565003Y-49269810D01*
X51504182Y-49274117D01*
X51357423Y-49284508D01*
X51080483Y-49344131D01*
X50814708Y-49442181D01*
X50565399Y-49576700D01*
X50558327Y-49581923D01*
X50558323Y-49581926D01*
X50518568Y-49611290D01*
X50337532Y-49745006D01*
X50331265Y-49751175D01*
X50331263Y-49751177D01*
X50195690Y-49884637D01*
X50135652Y-49943739D01*
X49963788Y-50168935D01*
X49959492Y-50176605D01*
X49959490Y-50176609D01*
X49889447Y-50301680D01*
X49825369Y-50416100D01*
X49723157Y-50680302D01*
X49659191Y-50956271D01*
X49634747Y-51238499D01*
X47860000Y-51238499D01*
X47860000Y-48163140D01*
X47878954Y-48067852D01*
X47932930Y-47987070D01*
X47987070Y-47932930D01*
X48067852Y-47878954D01*
X48163140Y-47860000D01*
X120416860Y-47860000D01*
X120512148Y-47878954D01*
G37*
%TD.AperFunction*%
M02*
