<?xml version="1.0" encoding="UTF-8" standalone="no"?>
<!-- Created with Inkscape (http://www.inkscape.org/) -->

<svg
   xmlns:dc="http://purl.org/dc/elements/1.1/"
   xmlns:cc="http://creativecommons.org/ns#"
   xmlns:rdf="http://www.w3.org/1999/02/22-rdf-syntax-ns#"
   xmlns:svg="http://www.w3.org/2000/svg"
   xmlns="http://www.w3.org/2000/svg"
   xmlns:sodipodi="http://sodipodi.sourceforge.net/DTD/sodipodi-0.dtd"
   xmlns:inkscape="http://www.inkscape.org/namespaces/inkscape"
   width="14.808943mm"
   height="5.2477651mm"
   viewBox="0 0 14.808943 5.2477653"
   version="1.1"
   id="svg8"
   inkscape:version="0.92.4 (unknown)"
   sodipodi:docname="cc_byncsa.plain.svg">
  <defs
     id="defs2" />
  <sodipodi:namedview
     id="base"
     pagecolor="#ffffff"
     bordercolor="#666666"
     borderopacity="1.0"
     inkscape:pageopacity="0.0"
     inkscape:pageshadow="2"
     inkscape:zoom="16.000001"
     inkscape:cx="29.151833"
     inkscape:cy="14.561761"
     inkscape:document-units="mm"
     inkscape:current-layer="layer1"
     showgrid="false"
     fit-margin-top="0.05"
     fit-margin-left="0.05"
     fit-margin-right="0.05"
     fit-margin-bottom="0.05"
     showborder="true"
     inkscape:showpageshadow="false"
     inkscape:window-width="2560"
     inkscape:window-height="1016"
     inkscape:window-x="0"
     inkscape:window-y="27"
     inkscape:window-maximized="1"
     inkscape:snap-grids="false"
     inkscape:snap-to-guides="true"
     inkscape:object-paths="true"
     showguides="true"
     inkscape:guide-bbox="true"
     inkscape:snap-midpoints="false"
     inkscape:snap-bbox="false"
     inkscape:bbox-paths="true"
     inkscape:bbox-nodes="true"
     inkscape:snap-global="false"
     inkscape:snap-smooth-nodes="true" />
  <metadata
     id="metadata5">
    <rdf:RDF>
      <cc:Work
         rdf:about="">
        <dc:format>image/svg+xml</dc:format>
        <dc:type
           rdf:resource="http://purl.org/dc/dcmitype/StillImage" />
        <dc:title></dc:title>
        <cc:license
           rdf:resource="http://creativecommons.org/licenses/by-nc-sa/4.0/" />
      </cc:Work>
      <cc:License
         rdf:about="http://creativecommons.org/licenses/by-nc-sa/4.0/">
        <cc:permits
           rdf:resource="http://creativecommons.org/ns#Reproduction" />
        <cc:permits
           rdf:resource="http://creativecommons.org/ns#Distribution" />
        <cc:requires
           rdf:resource="http://creativecommons.org/ns#Notice" />
        <cc:requires
           rdf:resource="http://creativecommons.org/ns#Attribution" />
        <cc:prohibits
           rdf:resource="http://creativecommons.org/ns#CommercialUse" />
        <cc:permits
           rdf:resource="http://creativecommons.org/ns#DerivativeWorks" />
        <cc:requires
           rdf:resource="http://creativecommons.org/ns#ShareAlike" />
      </cc:License>
    </rdf:RDF>
  </metadata>
  <g
     inkscape:label="SilkS"
     inkscape:groupmode="layer"
     id="layer1"
     transform="translate(-237.15609,-231.02636)">
    <g
       id="g183"
       transform="matrix(1.8825664,0,0,1.8825664,-209.35012,-208.48345)"
       style="stroke-width:0.5311898">
      <path
         id="path424-6"
         d="m 240.46787,234.07992 q 0,-0.0383 0.0226,-0.0679 0.0318,-0.0405 0.0826,-0.0405 0.0466,0 0.0785,0.032 0.0318,0.0322 0.0318,0.0765 0,0.0466 -0.0318,0.0788 -0.0297,0.0297 -0.0785,0.0297 -0.0508,0 -0.0785,-0.0362 -0.0282,-0.0362 -0.0282,-0.0722 z"
         style="font-style:normal;font-variant:normal;font-weight:normal;font-stretch:normal;font-size:0.76861113px;line-height:307.99999237%;font-family:aakar;-inkscape-font-specification:aakar;letter-spacing:-0.03301091px;word-spacing:0px;fill:#000000;fill-opacity:1;stroke:none;stroke-width:0.14054395px;stroke-linecap:butt;stroke-linejoin:miter;stroke-opacity:1"
         inkscape:connector-curvature="0" />
      <path
         sodipodi:nodetypes="ccscsccccccccccccscccscccccccccscccsccccccccscccsccccccscccscccccccccccccccccscccsccc"
         inkscape:connector-curvature="0"
         id="path2326"
         d="m 239.94588,235.81847 v 0.40564 h 5.04012 c 0.0146,0 0.0192,-0.007 0.0244,-0.0129 0.005,-0.007 0.008,-0.0129 0.008,-0.0211 v -0.37256 h -0.79554 l 0.0873,0.23426 h -0.0981 l -0.0327,-0.096 h -0.16162 l -0.0335,0.096 h -0.0956 l 0.0889,-0.23426 h -0.16919 c 0.007,0.003 0.0113,0.005 0.0174,0.008 0.0146,0.01 0.026,0.0219 0.0363,0.0375 0.0113,0.0161 0.0161,0.0348 0.0161,0.0591 0,0.0197 -0.005,0.0384 -0.0113,0.0552 -0.008,0.0169 -0.0191,0.0317 -0.0342,0.0441 -0.0161,0.0129 -0.0335,0.0214 -0.0559,0.0282 -0.0224,0.008 -0.0483,0.0113 -0.0775,0.0113 -0.0237,0 -0.0471,-0.003 -0.0695,-0.008 -0.0224,-0.007 -0.042,-0.0161 -0.0591,-0.0277 -0.0171,-0.0129 -0.0307,-0.0286 -0.0407,-0.0478 -0.0113,-0.0192 -0.0161,-0.0423 -0.0146,-0.0689 h 0.0921 c 0,0.0145 0.002,0.0267 0.008,0.0368 l 9.9e-4,9.9e-4 c 0.005,0.0113 0.0129,0.0181 0.0205,0.0244 0.008,0.007 0.0186,0.0113 0.0304,0.0146 0.0113,0.003 0.0236,0.005 0.0363,0.005 0.008,0 0.0174,-7.4e-4 0.0271,-0.002 0.01,-9.9e-4 0.0186,-0.005 0.0271,-0.008 0.008,-0.005 0.0161,-0.01 0.0211,-0.0168 0.005,-0.008 0.008,-0.0161 0.008,-0.0266 0,-0.0113 -0.005,-0.0209 -0.0113,-0.0282 -0.008,-0.008 -0.0174,-0.0146 -0.0292,-0.0184 -0.0129,-0.005 -0.026,-0.01 -0.0412,-0.0129 -0.0161,-0.003 -0.0309,-0.008 -0.0466,-0.0129 -0.0161,-0.005 -0.0313,-0.01 -0.0466,-0.0145 -0.0161,-0.007 -0.029,-0.0146 -0.0412,-0.0227 -0.003,-0.002 -0.005,-0.005 -0.007,-0.008 h -1.20446 c -5.6e-4,0.008 -0.002,0.0146 -0.002,0.0211 0,0.0183 0.002,0.0355 0.007,0.0526 0.005,0.0171 0.0113,0.0325 0.0204,0.046 0.01,0.0146 0.0214,0.0247 0.0363,0.033 0.0161,0.008 0.0329,0.0129 0.0542,0.0129 0.0289,0 0.0514,-0.008 0.0677,-0.0267 0.0163,-0.0178 0.0262,-0.0415 0.0297,-0.0704 h 0.0921 c -0.002,0.0269 -0.008,0.0515 -0.0189,0.0733 -0.0113,0.0217 -0.0231,0.0405 -0.0395,0.0559 -0.0164,0.0161 -0.0358,0.0272 -0.0581,0.0352 -0.0222,0.008 -0.0466,0.0129 -0.0733,0.0129 -0.033,0 -0.0631,-0.005 -0.0896,-0.0174 -0.0263,-0.0113 -0.0488,-0.0271 -0.0667,-0.0473 -0.0182,-0.0202 -0.0322,-0.0439 -0.0418,-0.071 -0.01,-0.0272 -0.0146,-0.0563 -0.0146,-0.0878 0,-0.008 0.003,-0.0164 0.003,-0.0231 h -0.0677 l -3.1e-4,0.23628 h -0.0949 l -0.1459,-0.23426 h -0.0347 v 0.23426 h -0.0889 l 1.5e-4,-0.23628 h -1.00594 l -0.042,0.0705 v 0.16539 h -0.0949 v -0.16757 l -0.0402,-0.0682 h -0.21367 c 0.0266,0.008 0.0468,0.0224 0.0599,0.0416 0.0129,0.0191 0.0201,0.0418 0.0201,0.0689 0,0.0217 -0.005,0.041 -0.0129,0.0569 -0.008,0.0161 -0.0199,0.0286 -0.0343,0.0385 -0.0146,0.0113 -0.0304,0.0179 -0.0489,0.0227 -0.0182,0.005 -0.0376,0.008 -0.0569,0.008 h -0.20936 l -9.4e-4,-0.23692 z"
         style="fill:#000000;fill-opacity:1;stroke:none;stroke-width:0.13966209" />
      <path
         inkscape:connector-curvature="0"
         id="path2324"
         d="m 242.05055,235.81847 0.0574,0.0926 h 9.9e-4 v -0.0926 z"
         style="fill:#000000;fill-opacity:1;stroke:none;stroke-width:0.13966209" />
      <path
         inkscape:connector-curvature="0"
         id="path2322"
         d="m 244.06791,235.81847 -0.0242,0.0678 h 0.11169 l -0.0234,-0.0678 z"
         style="fill:#000000;fill-opacity:1;stroke:none;stroke-width:0.13966209" />
      <path
         inkscape:connector-curvature="0"
         id="path2308"
         d="m 240.24851,235.86024 v 0.11814 l 0.102,5.6e-4 c 0.01,0 0.0179,-9.8e-4 0.0266,-0.003 0.008,-0.002 0.0163,-0.005 0.0227,-0.01 0.007,-0.005 0.0113,-0.0113 0.0161,-0.0174 0.005,-0.008 0.005,-0.0164 0.005,-0.0277 0,-0.0221 -0.007,-0.0377 -0.0189,-0.0473 -0.0129,-0.01 -0.0289,-0.0145 -0.0494,-0.0145 z"
         style="fill:#000000;fill-opacity:1;stroke:none;stroke-width:0.13966209" />
      <path
         sodipodi:nodetypes="cccccccccscccccccccccccccccccccssccccccccsccccccssccsccscccccsccssccccccccccsscc"
         inkscape:connector-curvature="0"
         id="path2317"
         d="m 239.9459,235.40849 -2e-5,0.40998 0.20879,-2e-5 v -0.19684 h 0.20282 5.5e-4 c 0.0204,3e-5 0.039,0.002 0.0559,0.005 0.0169,0.003 0.0313,0.01 0.0435,0.0181 0.0129,0.008 0.0214,0.0189 0.0282,0.0326 0.007,0.0146 0.0113,0.0309 0.0113,0.051 0,0.0217 -0.005,0.0397 -0.0146,0.0544 -0.01,0.0146 -0.0245,0.0265 -0.0441,0.0358 h 0.21368 l -0.11814,-0.19685 h 0.10636 l 0.10152,0.17027 0.10039,-0.17027 h 0.10571 l -0.11879,0.19685 h 1.00594 v -0.19685 h 0.0944 l 0.12266,0.19685 h 0.0586 v -0.19685 h 0.0889 v 0.19685 h 0.0678 c 0.002,-0.0239 0.005,-0.0478 0.0113,-0.0689 0.01,-0.0276 0.0237,-0.0516 0.0418,-0.072 0.0181,-0.0205 0.0403,-0.0365 0.0667,-0.0483 0.0264,-0.0113 0.0564,-0.0181 0.0896,-0.0181 0.0237,0 0.0461,0.003 0.0674,0.0113 0.0211,0.008 0.0402,0.0166 0.0569,0.0297 0.0168,0.0129 0.0304,0.0294 0.0412,0.0489 0.0113,0.0192 0.0178,0.0412 0.0204,0.0662 h -0.0921 c -0.002,-0.0113 -0.005,-0.0208 -0.0113,-0.0297 v -5.5e-4 c -0.005,-0.01 -0.0129,-0.0169 -0.0211,-0.0237 -0.008,-0.008 -0.0178,-0.0129 -0.0282,-0.0161 -0.0113,-0.005 -0.0219,-0.005 -0.0335,-0.005 -0.0214,0 -0.0392,0.005 -0.0542,0.0129 -0.0161,0.008 -0.0271,0.0192 -0.0363,0.033 -0.01,0.0146 -0.0163,0.0294 -0.0205,0.0473 -0.002,0.0113 -0.003,0.0227 -0.005,0.034 h 1.20446 c -0.008,-0.008 -0.0171,-0.0163 -0.0228,-0.0271 -0.008,-0.0146 -0.0113,-0.0309 -0.0113,-0.0504 0,-0.0221 0.005,-0.0412 0.0146,-0.0574 0.01,-0.0163 0.0216,-0.0297 0.0368,-0.0407 0.0161,-0.0113 0.0327,-0.0191 0.0519,-0.0242 0.0192,-0.005 0.0383,-0.008 0.0574,-0.008 0.0226,0 0.0444,0.002 0.0652,0.008 0.0207,0.005 0.0392,0.0129 0.0552,0.0242 0.0161,0.0113 0.0289,0.0259 0.0385,0.0434 0.01,0.0176 0.0146,0.0387 0.0146,0.0634 h -0.0921 c -8.3e-4,-0.0129 -0.003,-0.0234 -0.008,-0.0322 -0.005,-0.008 -0.0113,-0.0146 -0.0184,-0.0196 -0.008,-0.005 -0.0161,-0.008 -0.026,-0.0113 -0.01,-0.002 -0.0208,-0.003 -0.0326,-0.003 -0.008,0 -0.0161,8.9e-4 -0.0229,0.002 -0.008,0.002 -0.0146,0.005 -0.0205,0.008 -0.007,0.005 -0.0113,0.01 -0.0161,0.0161 -0.005,0.007 -0.007,0.0146 -0.007,0.0227 0,0.008 0.002,0.0161 0.005,0.0205 0.003,0.005 0.01,0.0113 0.0189,0.0146 0.01,0.005 0.0224,0.008 0.0389,0.0129 0.0168,0.005 0.0387,0.0113 0.0655,0.0168 0.008,0.002 0.0187,0.005 0.0331,0.008 0.008,0.002 0.0171,0.008 0.0255,0.0129 h 0.1692 l 0.0742,-0.19685 h 0.097 l 0.0737,0.19685 h 0.76247 c 0.0182,0 0.033,0.008 0.033,-9.8e-4 v -0.40855 z"
         style="fill:#000000;fill-opacity:1;stroke:none;stroke-width:0.13966209" />
      <path
         inkscape:connector-curvature="0"
         id="path2315"
         d="m 240.24904,235.6959 v 0.10039 h 0.0966 c 0.0169,0 0.0304,-0.005 0.0412,-0.0129 0.0113,-0.008 0.0168,-0.0214 0.0168,-0.0395 0,-0.0113 -0.002,-0.0181 -0.005,-0.0242 -0.003,-0.007 -0.008,-0.0113 -0.0145,-0.0161 -0.007,-0.003 -0.0129,-0.007 -0.0205,-0.008 -0.008,-9.9e-4 -0.0164,-0.002 -0.025,-0.002 z"
         style="fill:#000000;fill-opacity:1;stroke:none;stroke-width:0.13966209" />
      <path
         inkscape:connector-curvature="0"
         id="path2313"
         d="m 244.0999,235.72791 -0.032,0.0907 h 0.064 l -0.0308,-0.0907 z"
         style="fill:#000000;fill-opacity:1;stroke:none;stroke-width:0.13966209" />
      <path
         inkscape:connector-curvature="0"
         id="path3129"
         d="m 241.92256,235.76421 v 0.0544 h 0.0347 l -0.0335,-0.0544 z"
         style="fill:#000000;fill-opacity:1;stroke:none;stroke-width:0.13966209" />
      <path
         sodipodi:nodetypes="ccccc"
         inkscape:connector-curvature="0"
         id="path3172"
         d="m 241.75649,234.12914 c -0.0279,0.0345 -0.0662,0.05 -0.0673,0.13316 l 1.12959,0.50296 c 0.0563,-0.0358 0.0617,-0.0856 0.0551,-0.13848 z"
         style="fill:#000000;fill-opacity:1;fill-rule:evenodd;stroke:none;stroke-width:0.14054395px;stroke-linecap:butt;stroke-linejoin:miter;stroke-opacity:1" />
      <path
         style="stroke-width:0.08728811"
         d="m 242.27275,233.71014 c -0.20913,0 -0.38618,0.073 -0.53102,0.21889 -0.14881,0.15106 -0.22305,0.32972 -0.22305,0.53607 0,0.20635 0.0744,0.38373 0.22305,0.53223 0.14865,0.14849 0.32568,0.22271 0.53102,0.22271 0.2079,0 0.38807,-0.075 0.54054,-0.22457 0.14365,-0.14219 0.21548,-0.31902 0.21548,-0.53037 0,-0.21138 -0.0732,-0.39009 -0.21927,-0.53607 -0.14606,-0.14591 -0.32505,-0.21889 -0.53675,-0.21889 z m 0.002,0.1359 c 0.17137,0 0.31684,0.0604 0.43659,0.1812 0.12105,0.11943 0.18142,0.26541 0.18142,0.43786 0,0.1736 -0.0592,0.31766 -0.17771,0.43226 -0.1246,0.12315 -0.27152,0.18489 -0.4403,0.18489 -0.16884,0 -0.31437,-0.061 -0.43657,-0.18307 -0.12234,-0.12218 -0.18329,-0.26672 -0.18329,-0.43408 0,-0.16738 0.0616,-0.31331 0.1852,-0.43786 0.11831,-0.12089 0.2633,-0.1812 0.43466,-0.1812 z"
         id="path3170"
         inkscape:connector-curvature="0" />
      <path
         sodipodi:nodetypes="sscscscsscscscscsc"
         style="stroke-width:0.12191397"
         d="m 239.28777,234.03957 c 0.19682,0.19684 0.29527,0.43786 0.29527,0.72301 0,0.28517 -0.0969,0.52365 -0.29021,0.71543 -0.20536,0.20196 -0.44802,0.30293 -0.72806,0.30293 -0.27666,0 -0.51512,-0.10023 -0.71532,-0.30042 -0.20029,-0.20023 -0.30038,-0.43954 -0.30038,-0.71794 0,-0.27835 0.10007,-0.51936 0.30038,-0.72301 0.19514,-0.19692 0.43362,-0.29534 0.71532,-0.29534 0.28515,0 0.5261,0.0985 0.723,0.29534 z m -1.3058,0.1325 c -0.16645,0.1681 -0.24968,0.36502 -0.24968,0.59086 0,0.22585 0.0823,0.42107 0.24709,0.58572 0.16479,0.16471 0.36087,0.24707 0.58841,0.24707 0.22756,0 0.42532,-0.0831 0.59348,-0.24956 0.15962,-0.15446 0.23941,-0.3489 0.23941,-0.58323 0,-0.23254 -0.0811,-0.42996 -0.24333,-0.59211 -0.16216,-0.16213 -0.35867,-0.24323 -0.58956,-0.24323 -0.23089,0 -0.42628,0.0815 -0.58582,0.24448 z"
         id="path3160"
         inkscape:connector-curvature="0" />
      <path
         sodipodi:nodetypes="csscssccscssc"
         inkscape:connector-curvature="0"
         d="m 245.01933,235.40824 v -1.77234 c 0,-0.0808 -0.0659,-0.14623 -0.14623,-0.14623 h -1e-5 -7.52061 c -0.0807,0 -0.14397,0.0655 -0.14639,0.14623 l 1.2e-4,1.77259 0.066,-2.3e-4 v -1.77235 c 0,-0.0443 0.036,-0.0802 0.0581,-0.0802 h 7.54274 c 0.0443,0 0.0802,0.036 0.0802,0.0802 v 1.77235"
         id="path120"
         style="fill:#000000;fill-opacity:1;stroke:none;stroke-width:0.13966209" />
      <path
         inkscape:connector-curvature="0"
         id="path3164"
         d="m 238.41994,234.66351 c -0.0254,-0.0554 -0.0634,-0.0831 -0.11427,-0.0831 -0.0898,0 -0.1346,0.0604 -0.1346,0.18123 0,0.1209 0.0448,0.18122 0.1346,0.18122 0.0594,0 0.10168,-0.0294 0.12702,-0.0883 l 0.12444,0.0662 c -0.0594,0.10539 -0.14832,0.158 -0.26691,0.158 -0.0914,0 -0.16481,-0.028 -0.21983,-0.0843 -0.0551,-0.0562 -0.0826,-0.13364 -0.0826,-0.23204 0,-0.0969 0.0286,-0.17376 0.0853,-0.23071 0.0568,-0.0569 0.12766,-0.0856 0.21225,-0.0856 0.1254,0 0.21516,0.0496 0.26949,0.14817 z"
         style="stroke-width:0.12191397" />
      <path
         inkscape:connector-curvature="0"
         id="path5708_5_"
         d="m 239.00532,234.66351 c -0.0255,-0.0554 -0.0628,-0.0831 -0.11202,-0.0831 -0.0914,0 -0.13735,0.0604 -0.13735,0.18123 0,0.1209 0.0458,0.18122 0.13735,0.18122 0.0594,0 0.10103,-0.0294 0.1246,-0.0883 l 0.12718,0.0662 c -0.0592,0.10539 -0.14816,0.158 -0.26648,0.158 -0.0914,0 -0.16446,-0.028 -0.21952,-0.0843 -0.0551,-0.0562 -0.0825,-0.13364 -0.0825,-0.23204 0,-0.0969 0.0279,-0.17376 0.0838,-0.23071 0.0558,-0.0569 0.12685,-0.0856 0.21314,-0.0856 0.12508,0 0.21485,0.0496 0.26894,0.14817 z"
         style="stroke-width:0.12191397" />
      <path
         inkscape:connector-curvature="0"
         d="m 240.77877,234.27853 c 0,-0.0269 -0.0219,-0.0489 -0.0489,-0.0489 h -0.30883 c -0.0269,0 -0.0489,0.0218 -0.0489,0.0489 v 0.30878 h 0.0861 v 0.36566 h 0.23403 v -0.36566 h 0.0862 v -0.30878 z"
         id="path132"
         style="stroke-width:0.13966209" />
      <path
         style="clip-rule:evenodd;fill-rule:evenodd;stroke-width:0.13966209"
         id="path136"
         d="m 240.57461,233.71048 c -0.20907,0 -0.38615,0.073 -0.53103,0.21891 -0.14881,0.15092 -0.22302,0.32969 -0.22302,0.53603 0,0.2063 0.0744,0.38376 0.22302,0.53227 0.14881,0.14848 0.32574,0.22268 0.53103,0.22268 0.20789,0 0.38809,-0.0749 0.54059,-0.22462 0.14365,-0.14219 0.21541,-0.31892 0.21541,-0.53033 0,-0.21142 -0.073,-0.39007 -0.2192,-0.53603 -0.14623,-0.1459 -0.32505,-0.21891 -0.5368,-0.21891 z m 0.002,0.1359 c 0.17137,0 0.31684,0.0606 0.43652,0.18124 0.12104,0.11944 0.18149,0.26551 0.18149,0.43786 0,0.17362 -0.0592,0.31769 -0.17771,0.43222 -0.12477,0.12331 -0.27151,0.18493 -0.4403,0.18493 -0.1689,0 -0.31443,-0.0609 -0.43662,-0.18307 -0.12234,-0.12202 -0.18332,-0.26672 -0.18332,-0.43408 0,-0.16739 0.0617,-0.31331 0.1852,-0.43786 0.11847,-0.12088 0.26339,-0.18124 0.43474,-0.18124 z"
         inkscape:connector-curvature="0" />
      <path
         inkscape:connector-curvature="0"
         id="path6338_1_"
         d="m 243.97227,233.71003 c -0.20914,0 -0.38619,0.073 -0.53103,0.2189 -0.14881,0.15091 -0.22306,0.32972 -0.22306,0.53607 0,0.20634 0.0744,0.38373 0.22306,0.53223 0.14864,0.14849 0.32568,0.22271 0.53103,0.22271 0.20789,0 0.38805,-0.075 0.54054,-0.22457 0.14363,-0.14219 0.21544,-0.31901 0.21544,-0.53037 0,-0.21139 -0.073,-0.3901 -0.21924,-0.53607 -0.14607,-0.1459 -0.32506,-0.2189 -0.53674,-0.2189 z m 0.002,0.1359 c 0.17137,0 0.31684,0.0604 0.43658,0.18121 0.12089,0.11944 0.18141,0.2654 0.18141,0.43786 0,0.17363 -0.0592,0.31768 -0.17769,0.43225 -0.1246,0.12314 -0.27152,0.1849 -0.4403,0.1849 -0.16883,0 -0.31436,-0.061 -0.43655,-0.18307 -0.12234,-0.12219 -0.18332,-0.26672 -0.18332,-0.43408 0,-0.16737 0.0617,-0.31333 0.1852,-0.43786 0.1183,-0.12088 0.26332,-0.18121 0.43467,-0.18121 z"
         style="stroke-width:0.08728811" />
      <path
         inkscape:connector-curvature="0"
         id="path6340_1_"
         d="m 243.63762,234.35847 c 0.03,-0.18999 0.16379,-0.29153 0.33143,-0.29153 0.241,0 0.3879,0.17489 0.3879,0.4081 0,0.22758 -0.15623,0.40429 -0.39168,0.40429 -0.16197,0 -0.30699,-0.0996 -0.33334,-0.29521 h 0.19021 c 0.005,0.10152 0.0715,0.13735 0.16575,0.13735 0.10733,0 0.17699,-0.0997 0.17699,-0.25199 0,-0.15994 -0.0602,-0.24448 -0.17326,-0.24448 -0.0828,0 -0.1543,0.03 -0.16948,0.13364 l 0.0552,-3.8e-4 -0.14962,0.14962 -0.14962,-0.14962 z"
         style="stroke-width:0.08728811" />
      <path
         inkscape:connector-curvature="0"
         id="path3176"
         d="m 242.53427,234.6384 c -0.0192,0.0959 -0.10458,0.16042 -0.20784,0.16804 v 0.11653 h -0.0866 v -0.11653 c -0.0848,-9.8e-4 -0.16655,-0.0357 -0.22917,-0.0906 l 0.10394,-0.10491 c 0.0501,0.0471 0.10007,0.0682 0.16852,0.0682 0.0444,0 0.0934,-0.0174 0.0934,-0.075 0,-0.0205 -0.008,-0.0345 -0.0205,-0.0453 l -0.072,-0.0322 -0.0896,-0.0398 c -0.0444,-0.0197 -0.0818,-0.0365 -0.1196,-0.0533 z"
         style="stroke-width:0.16016756" />
      <path
         sodipodi:nodetypes="sccccccssccccs"
         inkscape:connector-curvature="0"
         id="path3166"
         d="m 242.04514,234.25764 c 0.0161,-0.0697 0.10232,-0.12865 0.1945,-0.13397 v -0.11652 h 0.0866 v 0.11652 c 0.0597,0.003 0.12508,0.0192 0.18975,0.0692 l -0.0993,0.10185 c -0.0367,-0.026 -0.0828,-0.0441 -0.12895,-0.0441 -0.0376,0 -0.0906,0.0113 -0.0906,0.0586 0,0.008 0.002,0.0145 0.007,0.0192 l 0.0966,0.0431 0.0654,0.029 c 0.0418,0.0186 0.0816,0.0363 0.12121,0.0541 0,0 -0.47672,-0.0397 -0.44167,-0.19685 z"
         style="stroke-width:0.16016756" />
      <path
         sodipodi:nodetypes="csscccscc"
         inkscape:connector-curvature="0"
         style="fill:#000000;fill-opacity:1;stroke:none;stroke-width:0.13966209"
         d="m 237.20619,235.40849 v 0.78253 c 0,0.0183 0.0146,0.033 0.033,0.033 h 2.7066 v -0.81564 h -0.36822 c -0.19702,0.3562 -0.57629,0.59762 -1.01193,0.59762 -0.43574,0 -0.81557,-0.24119 -1.01248,-0.59762 z"
         id="path2294" />
    </g>
  </g>
</svg>
