<?xml version="1.0" encoding="UTF-8" standalone="no"?>
<svg
   xmlns:dc="http://purl.org/dc/elements/1.1/"
   xmlns:cc="http://creativecommons.org/ns#"
   xmlns:rdf="http://www.w3.org/1999/02/22-rdf-syntax-ns#"
   xmlns:svg="http://www.w3.org/2000/svg"
   xmlns="http://www.w3.org/2000/svg"
   xmlns:sodipodi="http://sodipodi.sourceforge.net/DTD/sodipodi-0.dtd"
   xmlns:inkscape="http://www.inkscape.org/namespaces/inkscape"
   width="15mm"
   height="8mm"
   viewBox="0 0 15 8"
   version="1.1"
   id="svg8"
   inkscape:version="1.0.1 (1.0.1+r73)"
   sodipodi:docname="logo.svg">
  <defs
     id="defs2" />
  <sodipodi:namedview
     id="base"
     pagecolor="#ffffff"
     bordercolor="#666666"
     borderopacity="1.0"
     inkscape:pageopacity="0.0"
     inkscape:pageshadow="2"
     inkscape:zoom="11.2"
     inkscape:cx="13.860746"
     inkscape:cy="0.20118438"
     inkscape:document-units="mm"
     inkscape:current-layer="layer1"
     showgrid="false"
     inkscape:window-width="2560"
     inkscape:window-height="1016"
     inkscape:window-x="0"
     inkscape:window-y="27"
     inkscape:window-maximized="1"
     showguides="true"
     inkscape:guide-bbox="true"
     inkscape:snap-global="false"
     inkscape:document-rotation="0"
     inkscape:snap-bbox="true"
     inkscape:bbox-paths="false"
     inkscape:bbox-nodes="true"
     inkscape:snap-page="true" />
  <metadata
     id="metadata5">
    <rdf:RDF>
      <cc:Work
         rdf:about="">
        <dc:format>image/svg+xml</dc:format>
        <dc:type
           rdf:resource="http://purl.org/dc/dcmitype/StillImage" />
        <dc:title />
      </cc:Work>
    </rdf:RDF>
  </metadata>
  <g
     inkscape:label="SilkS"
     inkscape:groupmode="layer"
     id="layer1"
     transform="translate(0,-289)">
    <g
       id="g2831"
       transform="translate(0,-0.21914)">
      <path
         style="font-style:normal;font-variant:normal;font-weight:normal;font-stretch:normal;font-size:5.38588px;line-height:308%;font-family:Funkrocker;-inkscape-font-specification:Funkrocker;letter-spacing:0px;word-spacing:0px;fill:#000000;fill-opacity:1;stroke:none;stroke-width:0.264583px;stroke-linecap:butt;stroke-linejoin:miter;stroke-opacity:1"
         d="m 2.1979429,291.94591 q -0.072856,0.0121 -0.1565055,0.0121 h -0.059364 q 0,0.13022 -0.0027,0.25741 l 0.045873,0.50876 0.035079,0.1393 -0.01619,0.0515 -0.010793,0.12718 0.026983,0.0424 v 0.19988 l 0.062062,0.21805 -0.1241253,0.19985 v 0.009 l -0.0027,0.15748 -0.0027,0.009 -0.0027,0.0818 -0.045873,0.0818 h -0.0027 l -0.029682,0.1 v 0.30587 l -0.078252,0.10291 -0.059364,0.0303 0.021587,-0.25135 0.086348,-0.1696 v -0.0969 l -0.1322202,0.29073 -0.01619,-0.0121 q 0.00809,0.0454 0.00809,0.0909 0,0.50573 -0.87697123,0.8752 l 0.23206013,-3.30395 -0.95792238,0.0909 q -0.008094,-0.0575 -0.008094,-0.10904 0,-0.0969 0.0269836,-0.18473 L 0.07970923,291.65217 0.1444701,291.5462 0.1309782,291.44329 0.1444701,291.3372 h 0.24015519 l 0.17269583,-0.0878 0.21317152,-0.0151 0.0593643,0.0274 q 0.61522906,-0.21502 1.77013256,-0.24531 0.00809,0.0575 0.010793,0.10904 l 0.099841,-0.009 v 0.16353 l -0.040476,0.11811 v 0.10598 l 0.026984,0.14839 -0.013492,0.0878 0.013492,0.16655 -0.091744,0.22411 -0.040475,-0.0151 -0.06746,-0.0303 -0.1322203,-0.0303 -0.1592039,-0.10598 z"
         id="path2821" />
      <path
         id="path1949"
         style="font-style:normal;font-variant:normal;font-weight:normal;font-stretch:normal;font-size:5.38588px;line-height:308%;font-family:Funkrocker;-inkscape-font-specification:Funkrocker;letter-spacing:0px;word-spacing:0px;fill:#000000;fill-opacity:1;stroke:none;stroke-width:0.264583px;stroke-linecap:butt;stroke-linejoin:miter;stroke-opacity:1"
         d="m 4.7480208,290.75315 -0.626388,0.0909 -0.3099654,0.37819 -0.6231594,0.29375 c -0.1672991,0.26449 -0.3044603,0.58159 -0.4105963,0.95105 0.021587,0.19785 0.032826,0.37277 0.032826,0.5242 0,0.24226 -0.027291,0.42448 -0.081258,0.54763 -0.028782,0.0686 -0.043051,0.13446 -0.043051,0.19702 3e-7,0.12518 0.055827,0.24038 0.1673597,0.34535 0.1690982,0.16153 0.3226647,0.36617 0.4611811,0.61449 0.2680385,0.25034 0.5073979,0.42891 0.717871,0.53592 0.210473,0.107 0.4020313,0.17614 0.5747274,0.20639 0.028782,0.006 0.05964,0.009 0.092022,0.009 0.1475112,0 0.3117787,-0.0597 0.4934692,-0.17884 0.3579839,-0.0404 0.747343,-0.14801 1.1682891,-0.32366 0.1115326,-0.50271 0.2294292,-0.80072 0.3535541,-0.89359 0.1025379,-0.0767 0.1539064,-0.20164 0.1539064,-0.37526 0,-0.0323 -0.00178,-0.0677 -0.00539,-0.10609 -0.025184,-0.22814 -0.069419,-0.47067 -0.1323811,-0.72707 -0.061163,-0.2564 -0.1624697,-0.56321 -0.3045839,-0.92056 L 6.2268079,291.51884 C 5.8886119,291.2079 5.6590618,291.04478 5.5385343,291.02866 5.4180069,291.01056 5.15457,290.9186 4.7480151,290.75308 Z m -0.00269,1.06421 c 0.043686,0.005 0.1078066,0.0347 0.1926521,0.092 0.051977,0.0351 0.1123391,0.0806 0.1802747,0.13603 0.2275354,0.11346 0.3864181,0.16301 0.477325,0.14834 0.042154,-0.007 0.078667,-7.1e-4 0.1092414,0.02 0.032103,0.0217 0.057328,0.059 0.075877,0.11199 0.032533,0.1028 0.099131,0.26321 0.199648,0.48081 l -0.1652074,0.32307 0.060808,0.55762 c -0.1191614,0.0382 -0.1927626,0.0816 -0.2200968,0.12957 -0.010726,0.0188 -0.014084,0.0376 -0.010226,0.0568 0.00341,0.0237 -4.1e-5,0.045 -0.010763,0.0639 -0.024429,0.0429 -0.085168,0.0772 -0.1818893,0.102 -0.1233184,0.0308 -0.2156132,0.10008 -0.2771389,0.20815 -0.00974,0.0171 -0.017377,0.034 -0.02314,0.0516 l -0.010226,0.0182 c -0.070319,0.12351 -0.274565,0.15831 -0.6118585,0.10382 l -0.1722029,-0.0879 -0.1915759,0.0522 -0.1996477,-0.16769 c -0.027843,-0.32296 -0.067015,-0.51053 -0.1173132,-0.56347 -0.048751,-0.052 -0.1056998,-0.14785 -0.1705885,-0.28673 -0.057541,-0.12203 -0.057621,-0.23357 0,-0.3348 0.00779,-0.0137 0.017223,-0.0285 0.028521,-0.0446 0.015717,-0.0201 0.029691,-0.0403 0.041436,-0.0609 0.048836,-0.0858 0.056564,-0.16273 0.02314,-0.23043 -0.022893,-0.0416 -0.00944,-0.10598 0.04036,-0.19349 0.046882,-0.0824 0.1243228,-0.18321 0.232474,-0.30256 l 0.2852111,-0.0211 c 0.1910937,-0.21301 0.3168038,-0.33241 0.3777702,-0.35767 h 5.382e-4 c 0.00999,-0.005 0.02203,-0.006 0.036593,-0.005 z" />
      <path
         style="font-style:normal;font-variant:normal;font-weight:normal;font-stretch:normal;font-size:5.38588px;line-height:308%;font-family:Funkrocker;-inkscape-font-specification:Funkrocker;letter-spacing:0px;word-spacing:0px;fill:#000000;fill-opacity:1;stroke:none;stroke-width:0.264583px;stroke-linecap:butt;stroke-linejoin:miter;stroke-opacity:1"
         d="M 8.7873688,292.0278 8.5364201,292.0127 8.339439,291.9218 q -0.013492,-0.003 -0.026984,-0.003 -0.032381,0 -0.06746,0.0151 -0.0054,0.003 -0.01619,0.003 -0.053967,0 -0.1915846,-0.11505 -0.045873,-0.0363 -0.070158,-0.0363 -0.024285,0 -0.024285,0.0424 0,0.0545 0.043174,0.18473 l -0.2239649,0.0485 q 0.099839,0.15748 0.099839,0.26953 0,0.0181 -0.0027,0.0332 -0.0027,0.012 -0.0027,0.0272 0,0.10291 0.1187285,0.15445 0.06476,0.0272 0.1214267,0.0272 0.062062,0 0.1187284,-0.0332 0.021587,-0.009 0.045873,-0.009 0.1025379,0 0.2725357,0.20594 h 0.01619 q 0.1646007,0 0.3804706,0.23318 0.2239649,0.24833 0.3265031,0.3846 0.1025379,0.13628 0.1268236,0.68743 l -0.2293618,0.76619 q -0.1807901,0.17262 -0.6179265,0.61778 l -0.5909404,-0.1363 H 7.6432587 q -0.339995,-0.14536 -0.7501477,-0.212 0,-0.0424 0.2509487,-0.51179 0.1646007,-0.31191 0.2482504,-0.31191 0.043174,0 0.06476,0.0847 0.053967,0.22107 0.1942827,0.22107 0.01619,0 0.032381,-0.003 0.1672991,-0.0273 0.4452316,-0.1605 0.070157,0.009 0.11603,0.009 0.072856,0 0.072856,-0.0242 v -0.0424 q 0,-0.0606 0.0027,-0.19079 l 0.062062,-0.20593 q -0.2320601,-0.0878 -0.3211064,-0.1181 -0.089046,-0.0303 -0.137617,-0.21199 -0.029682,-0.10291 -0.1025379,-0.10291 -0.051269,0 -0.1241252,0.0515 l -0.1888868,-0.1511 -0.1268234,-0.15444 -0.2509488,-0.32707 q -0.2212667,-0.13627 -0.3723755,-0.71772 0.1295218,-0.51179 0.2617422,-0.65715 0.1268235,-0.13628 0.1268235,-0.17262 v -0.003 q -0.0027,0 -0.0027,-0.003 0,-0.0333 0.2104732,-0.14536 0.2158698,-0.11504 0.3211063,-0.1605 0.1052367,-0.0485 0.2482503,-0.0848 0.1430138,-0.0394 0.4614218,-0.14233 l 0.4236446,0.13628 q 0.1430138,0.15141 0.2185683,0.35734 0.013492,0.0394 0.013492,0.0878 0,0.21198 -0.2536471,0.60568 z"
         id="path901" />
      <path
         style="font-style:normal;font-variant:normal;font-weight:normal;font-stretch:normal;font-size:5.38588px;line-height:308%;font-family:Funkrocker;-inkscape-font-specification:Funkrocker;letter-spacing:0px;word-spacing:0px;fill:#000000;fill-opacity:1;stroke:none;stroke-width:0.264583px;stroke-linecap:butt;stroke-linejoin:miter;stroke-opacity:1"
         d="m 11.339999,291.94353 q -0.07285,0.012 -0.156505,0.012 h -0.05937 q 0,0.13022 -0.0027,0.2574 l 0.04587,0.50878 0.03509,0.1393 -0.0162,0.0515 -0.0108,0.12719 0.02698,0.0424 v 0.19987 l 0.06207,0.21805 -0.124126,0.19986 v 0.009 l -0.0027,0.15747 -0.0027,0.009 -0.0027,0.0818 -0.04587,0.0818 h -0.0027 l -0.02969,0.1 v 0.30585 l -0.07825,0.10292 -0.05937,0.0303 0.02158,-0.25134 0.08635,-0.1696 v -0.0969 l -0.132221,0.29073 -0.01619,-0.0121 q 0.0081,0.0454 0.0081,0.0909 0,0.50573 -0.876971,0.87519 l 0.232061,-3.30396 -0.9579236,0.0909 q -0.00809,-0.0575 -0.00809,-0.10904 0,-0.097 0.026984,-0.18473 l -0.078253,-0.14839 0.06476,-0.10598 -0.013492,-0.10291 0.013492,-0.10609 h 0.2401552 l 0.1726954,-0.0878 0.213172,-0.0151 0.059368,0.0273 q 0.615227,-0.21501 1.770133,-0.2453 0.0081,0.0575 0.01079,0.10904 l 0.09984,-0.009 v 0.16353 l -0.04048,0.11812 v 0.10597 l 0.02698,0.14839 -0.01349,0.0878 0.01349,0.16656 -0.09175,0.2241 -0.04048,-0.0151 -0.06746,-0.0303 -0.13222,-0.0303 -0.159204,-0.10597 z"
         id="path1609" />
      <path
         id="path1161"
         style="font-style:normal;font-variant:normal;font-weight:normal;font-stretch:normal;font-size:5.38588px;line-height:308%;font-family:Funkrocker;-inkscape-font-specification:Funkrocker;letter-spacing:0px;word-spacing:0px;fill:#000000;fill-opacity:1;stroke:none;stroke-width:0.264583px;stroke-linecap:butt;stroke-linejoin:miter;stroke-opacity:1"
         d="m 13.16444,290.82644 c -0.03419,0.107 -0.08021,0.23192 -0.137763,0.37526 l -0.113546,0.0909 -0.05112,0.0305 -0.01345,0.0452 -0.164669,0.0124 0.07264,0.24216 -0.07803,0.14834 -0.05382,0.16652 h -0.200187 l 0.151216,0.10904 -0.0054,0.1003 -0.172741,0.29669 -0.199647,0.38757 0.01937,0.13428 c -0.160102,0.32504 -0.339176,0.68036 -0.537058,1.06597 l 0.0081,-0.024 c -0.0037,-0.0142 -0.02912,-0.028 -0.07587,-0.0422 -0.03238,-0.008 -0.05824,-0.0124 -0.07803,-0.0124 -0.0108,0 -0.01971,0.001 -0.02691,0.003 h -0.0027 c -0.009,0 -0.01881,-0.006 -0.0296,-0.0152 l -0.04089,-0.0452 c -0.03059,-0.0384 -0.05466,-0.0574 -0.07264,-0.0574 h -0.0054 c -0.0054,0.002 -0.01077,0.003 -0.01614,0.003 -0.02158,0 -0.04798,-0.012 -0.07857,-0.0363 -0.03597,-0.0262 -0.05917,-0.0514 -0.06996,-0.0757 -0.0054,-0.0102 -0.01165,-0.0152 -0.01884,-0.0152 -0.0108,0 -0.02417,0.0126 -0.04036,0.0369 -0.01439,0.0243 -0.02152,0.048 -0.02152,0.0722 0,0.0183 0.0036,0.0364 0.01076,0.0545 0.01259,0.0303 0.01883,0.0616 0.01883,0.0938 0,0.0121 -8.86e-4,0.0242 -0.0027,0.0363 -0.0054,0.0404 -0.01523,0.0627 -0.0296,0.0668 -0.0108,0.003 -0.01794,0.0202 -0.02152,0.0487 -0.0017,0.0121 -0.0027,0.0242 -0.0027,0.0363 0,0.0102 8.86e-4,0.0194 0.0027,0.0276 0.0037,0.0121 0.01966,0.0243 0.04843,0.0363 l 0.03498,0.0146 0.02691,0.006 c 0.01439,0.003 0.02509,0.022 0.03229,0.0546 0.0017,0.008 0.0028,0.0151 0.0028,0.0211 0,0.0183 -0.0072,0.0285 -0.02152,0.0305 -0.02158,0 -0.04121,0.014 -0.05919,0.0422 -0.01619,0.0221 -0.02421,0.0404 -0.02421,0.0546 v 0.009 c 0,0.0142 -0.01427,0.0374 -0.04305,0.0698 -0.03059,0.0303 -0.05609,0.0512 -0.07587,0.0633 -0.01259,0.006 -0.01884,0.0174 -0.01884,0.0335 0,0.0121 0.0045,0.0285 0.01346,0.0487 0.01259,0.0303 0.02775,0.0452 0.04574,0.0452 0.0072,0 0.01523,-0.002 0.02421,-0.006 0.0108,-0.006 0.02292,-0.009 0.03552,-0.009 0.02158,0 0.04389,0.009 0.06727,0.0276 0.03238,0.0243 0.0511,0.0495 0.05651,0.0757 0.0037,0.0121 0.01307,0.0228 0.02745,0.0328 -0.03419,0.0646 -0.06862,0.13038 -0.102782,0.19701 l -0.445038,-0.2058 -0.09202,0.0305 c 0.009,0.0242 0.03985,0.0461 0.09202,0.0663 0.04678,0.0182 0.08423,0.0285 0.113009,0.0305 0.0198,0 0.03905,0.0243 0.05705,0.0727 0.01799,0.0445 0.02691,0.0827 0.02691,0.11492 0,0.0221 -0.01302,0.0445 -0.03821,0.0668 -0.02158,0.0183 -0.04031,0.027 -0.05651,0.027 -0.0108,0 -0.02149,0.0256 -0.0323,0.0763 -0.009,0.0423 -0.01345,0.0796 -0.01345,0.11199 0,0.0243 0.01159,0.0461 0.03498,0.0663 0.02158,0.0181 0.04031,0.0276 0.05651,0.0276 0.009,0 0.02469,0.02 0.04628,0.0604 l 0.02422,0.0457 0.02691,0.027 c 0.0037,0.002 0.0072,0.003 0.01076,0.003 0.01439,0 0.02866,-0.008 0.04305,-0.024 0.01799,-0.0202 0.0278,-0.0393 0.0296,-0.0574 0.0017,-0.0142 0.03534,-0.0278 0.100095,-0.0398 0.05756,-0.0102 0.107145,-0.0146 0.148526,-0.0146 0.02519,0 0.05639,-0.0191 0.09417,-0.0574 l 0.04036,-0.0398 c 0.01439,-0.0121 0.02563,-0.0176 0.03283,-0.0176 0.0162,-0.003 0.03135,-0.0313 0.04573,-0.082 0.01439,-0.0464 0.02152,-0.0856 0.02152,-0.11786 l -0.0027,-0.003 0.426201,-0.0516 c 0.464121,-0.428 1.080354,-0.64204 1.848492,-0.64204 h 0.105475 l 0.266914,0.88421 c 0.05576,-0.0161 0.108913,-0.0334 0.159288,-0.0516 -0.0017,0.003 -0.0045,0.009 -0.0081,0.0152 -0.01439,0.0262 -0.0301,0.0427 -0.04628,0.0487 -0.01259,0.003 -0.02151,0.0159 -0.02691,0.0363 -0.0037,0.0121 -0.0054,0.0218 -0.0054,0.0298 0,0.006 8.85e-4,0.0113 0.0028,0.0152 0.0017,0.006 0.01519,0.013 0.04036,0.0211 l 0.02744,0.009 0.01614,0.0146 c 0.0054,0.0121 0.02414,0.0182 0.05651,0.0182 0.02698,0 0.05016,-0.002 0.06996,-0.009 h 0.0087 c 0.0108,0 0.02239,0.006 0.03497,0.0152 0.0162,0.0121 0.02511,0.0242 0.02691,0.0363 0.0037,0.008 0.01341,0.0127 0.0296,0.0146 h 0.01614 c 0.009,0 0.01703,-6.5e-4 0.02421,-0.003 0.0054,0 0.01611,0.014 0.03229,0.0422 l 0.02207,0.0305 c 0.0054,0.006 0.01077,0.009 0.01614,0.009 h 0.0054 l 0.202337,-0.20582 c -0.0017,-0.003 -0.0027,-0.009 -0.0027,-0.0152 0,-0.0161 0.0072,-0.0361 0.02152,-0.0604 0.0162,-0.0283 0.03134,-0.0465 0.04574,-0.0546 0.0054,-0.003 0.0081,-0.008 0.0081,-0.0124 0,-0.0102 -0.008,-0.0208 -0.02421,-0.0328 -0.01439,-0.0121 -0.02866,-0.0181 -0.04305,-0.0181 -0.0108,0 -0.02239,0.005 -0.03498,0.0124 -0.01979,0.0102 -0.04083,0.0146 -0.06242,0.0146 h -0.01884 c -0.02519,-0.003 -0.03856,-0.0102 -0.04036,-0.0211 -0.0037,-0.008 -0.01431,-0.0142 -0.03229,-0.0182 h -0.01346 c -0.009,0 -0.01703,0.001 -0.02421,0.003 -0.0072,0.002 -0.01487,0.0153 -0.02207,0.0393 l -0.0081,0.027 -0.0027,0.0217 c -0.0017,0.0121 -0.01339,0.0209 -0.03498,0.027 -0.0054,0.002 -0.0099,0.003 -0.01345,0.003 -0.0108,0 -0.01614,-0.006 -0.01614,-0.0181 -0.0017,-0.0161 -0.01073,-0.031 -0.02691,-0.0452 -0.01439,-0.0102 -0.02598,-0.0152 -0.03498,-0.0152 h -0.0054 c -0.009,0 -0.02291,-0.0113 -0.04089,-0.0334 0.257244,-0.14335 0.385842,-0.37465 0.385842,-0.69365 0,-0.21601 -0.0594,-0.471 -0.178122,-0.76576 l 0.0705,-0.32132 -0.240008,-0.37232 -0.251308,-0.3606 -0.358935,-0.56583 -0.280369,-0.55175 -0.01884,-0.0241 c -0.07555,-0.15142 -0.150109,-0.29785 -0.223864,-0.43917 l 0.01883,-0.0874 -0.09471,-0.13661 -0.07803,-0.0757 c -0.0108,-0.0221 -0.02149,-0.0431 -0.0323,-0.0633 z m -0.0861,2.23339 0.628003,0.62739 -0.879851,-0.078 z" />
    </g>
  </g>
</svg>
