<?xml version="1.0" encoding="UTF-8" standalone="no"?>
<!-- Created with Inkscape (http://www.inkscape.org/) -->

<svg
   xmlns:dc="http://purl.org/dc/elements/1.1/"
   xmlns:cc="http://creativecommons.org/ns#"
   xmlns:rdf="http://www.w3.org/1999/02/22-rdf-syntax-ns#"
   xmlns:svg="http://www.w3.org/2000/svg"
   xmlns="http://www.w3.org/2000/svg"
   xmlns:sodipodi="http://sodipodi.sourceforge.net/DTD/sodipodi-0.dtd"
   xmlns:inkscape="http://www.inkscape.org/namespaces/inkscape"
   width="6.9533925mm"
   height="7.357142mm"
   viewBox="0 0 6.9533926 7.3571424"
   version="1.1"
   id="svg8"
   inkscape:version="0.92.4 (unknown)"
   sodipodi:docname="oshw.plain.svg">
  <defs
     id="defs2" />
  <sodipodi:namedview
     id="base"
     pagecolor="#ffffff"
     bordercolor="#666666"
     borderopacity="1.0"
     inkscape:pageopacity="0.0"
     inkscape:pageshadow="2"
     inkscape:zoom="22.627418"
     inkscape:cx="10.570655"
     inkscape:cy="10.228648"
     inkscape:document-units="mm"
     inkscape:current-layer="layer1"
     showgrid="false"
     fit-margin-top="0.05"
     fit-margin-left="0.05"
     fit-margin-right="0.05"
     fit-margin-bottom="0.05"
     showborder="true"
     inkscape:showpageshadow="false"
     inkscape:window-width="2560"
     inkscape:window-height="1016"
     inkscape:window-x="0"
     inkscape:window-y="27"
     inkscape:window-maximized="1"
     inkscape:snap-grids="false"
     inkscape:snap-to-guides="true"
     inkscape:object-paths="true"
     showguides="true"
     inkscape:guide-bbox="true"
     inkscape:snap-midpoints="false"
     inkscape:snap-bbox="false"
     inkscape:bbox-paths="true"
     inkscape:bbox-nodes="true"
     inkscape:snap-global="false"
     inkscape:snap-smooth-nodes="true" />
  <metadata
     id="metadata5">
    <rdf:RDF>
      <cc:Work
         rdf:about="">
        <dc:format>image/svg+xml</dc:format>
        <dc:type
           rdf:resource="http://purl.org/dc/dcmitype/StillImage" />
        <dc:title></dc:title>
        <cc:license
           rdf:resource="http://creativecommons.org/licenses/by-nc-sa/4.0/" />
      </cc:Work>
      <cc:License
         rdf:about="http://creativecommons.org/licenses/by-nc-sa/4.0/">
        <cc:permits
           rdf:resource="http://creativecommons.org/ns#Reproduction" />
        <cc:permits
           rdf:resource="http://creativecommons.org/ns#Distribution" />
        <cc:requires
           rdf:resource="http://creativecommons.org/ns#Notice" />
        <cc:requires
           rdf:resource="http://creativecommons.org/ns#Attribution" />
        <cc:prohibits
           rdf:resource="http://creativecommons.org/ns#CommercialUse" />
        <cc:permits
           rdf:resource="http://creativecommons.org/ns#DerivativeWorks" />
        <cc:requires
           rdf:resource="http://creativecommons.org/ns#ShareAlike" />
      </cc:License>
    </rdf:RDF>
  </metadata>
  <g
     inkscape:label="SilkS"
     inkscape:groupmode="layer"
     id="layer1"
     transform="translate(-249.80449,-231.00474)">
    <g
       id="g159"
       transform="matrix(1.2623883,0,0,1.2623883,-51.154858,-55.850122)"
       style="stroke-width:0.79214931">
      <path
         d="m 238.68436,231.64457 q -0.0463,0 -0.0709,0.0425 -0.0241,0.0418 -0.0241,0.12122 0,0.0794 0.0241,0.12169 0.0246,0.0418 0.0709,0.0418 0.0455,0 0.0697,-0.0418 0.0241,-0.0425 0.0241,-0.12169 0,-0.0793 -0.0241,-0.12122 -0.0241,-0.0425 -0.0697,-0.0425 z m 0,-0.12606 q 0.11233,0 0.17547,0.0768 0.0634,0.0768 0.0634,0.21275 0,0.1359 -0.0634,0.21274 -0.0631,0.0768 -0.17547,0.0768 -0.11282,0 -0.17662,-0.0768 -0.0634,-0.0768 -0.0634,-0.21274 0,-0.13589 0.0634,-0.21275 0.0637,-0.0768 0.17662,-0.0768 z"
         style="font-style:normal;font-variant:normal;font-weight:bold;font-stretch:normal;font-size:0.85424304px;line-height:307.99999237%;font-family:sans-serif;-inkscape-font-specification:'sans-serif Bold';text-align:center;letter-spacing:0px;word-spacing:0px;text-anchor:middle;fill:#000000;fill-opacity:1;stroke:none;stroke-width:0.2095895px;stroke-linecap:butt;stroke-linejoin:miter;stroke-opacity:1"
         id="path3084"
         inkscape:connector-curvature="0" />
      <path
         d="m 239.16406,232.00358 v 0.28958 h -0.13928 v -0.76138 h 0.13928 v 0.0808 q 0.0289,-0.0483 0.0639,-0.0708 0.0348,-0.0232 0.0805,-0.0232 0.0805,0 0.13235,0.0811 0.0516,0.0808 0.0516,0.20832 0,0.12766 -0.0516,0.20882 -0.0518,0.0808 -0.13235,0.0808 -0.0455,0 -0.0805,-0.0228 -0.0348,-0.0231 -0.0639,-0.0713 z m 0.0926,-0.35704 q -0.0447,0 -0.0689,0.0418 -0.0237,0.0413 -0.0237,0.11959 0,0.0783 0.0237,0.12025 0.0241,0.0413 0.0689,0.0413 0.0447,0 0.0682,-0.0413 0.0237,-0.0413 0.0237,-0.12025 0,-0.0788 -0.0237,-0.12024 -0.0234,-0.0413 -0.0682,-0.0413 z"
         style="font-style:normal;font-variant:normal;font-weight:bold;font-stretch:normal;font-size:0.85424304px;line-height:307.99999237%;font-family:sans-serif;-inkscape-font-specification:'sans-serif Bold';text-align:center;letter-spacing:0px;word-spacing:0px;text-anchor:middle;fill:#000000;fill-opacity:1;stroke:none;stroke-width:0.2095895px;stroke-linecap:butt;stroke-linejoin:miter;stroke-opacity:1"
         id="path3086"
         inkscape:connector-curvature="0" />
      <path
         d="m 240.03089,231.80609 v 0.0502 h -0.32564 q 0.005,0.062 0.0355,0.0929 0.0304,0.031 0.0849,0.031 0.044,0 0.0899,-0.0163 0.0463,-0.0168 0.0951,-0.05 v 0.1359 q -0.0496,0.0237 -0.0988,0.0355 -0.0494,0.0129 -0.0988,0.0129 -0.11814,0 -0.18402,-0.0758 -0.0654,-0.0763 -0.0654,-0.21374 0,-0.13493 0.0642,-0.21225 0.0646,-0.0773 0.17741,-0.0773 0.10264,0 0.16419,0.0783 0.0619,0.0783 0.0619,0.20932 z m -0.14332,-0.0586 q 0,-0.0501 -0.0232,-0.0808 -0.0231,-0.031 -0.0604,-0.031 -0.0405,0 -0.0657,0.029 -0.0254,0.0285 -0.0315,0.0828 z"
         style="font-style:normal;font-variant:normal;font-weight:bold;font-stretch:normal;font-size:0.85424304px;line-height:307.99999237%;font-family:sans-serif;-inkscape-font-specification:'sans-serif Bold';text-align:center;letter-spacing:0px;word-spacing:0px;text-anchor:middle;fill:#000000;fill-opacity:1;stroke:none;stroke-width:0.2095895px;stroke-linecap:butt;stroke-linejoin:miter;stroke-opacity:1"
         id="path3088"
         inkscape:connector-curvature="0" />
      <path
         d="m 240.57401,231.74751 v 0.33586 h -0.14009 v -0.0547 -0.20241 q 0,-0.0714 -0.003,-0.0985 -0.002,-0.0271 -0.008,-0.0398 -0.008,-0.0173 -0.0222,-0.0266 -0.0146,-0.01 -0.032,-0.01 -0.0436,0 -0.0684,0.0428 -0.0249,0.0425 -0.0249,0.11766 v 0.27135 h -0.13928 v -0.55158 h 0.13928 v 0.0807 q 0.0315,-0.0483 0.0669,-0.0708 0.0353,-0.0232 0.0781,-0.0232 0.0755,0 0.11444,0.0586 0.0392,0.0586 0.0392,0.17039 z"
         style="font-style:normal;font-variant:normal;font-weight:bold;font-stretch:normal;font-size:0.85424304px;line-height:307.99999237%;font-family:sans-serif;-inkscape-font-specification:'sans-serif Bold';text-align:center;letter-spacing:0px;word-spacing:0px;text-anchor:middle;fill:#000000;fill-opacity:1;stroke:none;stroke-width:0.2095895px;stroke-linecap:butt;stroke-linejoin:miter;stroke-opacity:1"
         id="path3090"
         inkscape:connector-curvature="0" />
      <path
         d="m 241.32137,231.54902 v 0.13396 q -0.0447,-0.0236 -0.0865,-0.0355 -0.0415,-0.0129 -0.0785,-0.0129 -0.0397,0 -0.0592,0.0129 -0.0189,0.0129 -0.0189,0.0385 0,0.0211 0.0145,0.0324 0.0146,0.0129 0.0524,0.0168 l 0.0245,0.005 q 0.10685,0.0173 0.1438,0.0566 0.037,0.0395 0.037,0.12363 0,0.0881 -0.0513,0.13251 -0.0513,0.0443 -0.15333,0.0443 -0.0433,0 -0.0894,-0.01 -0.0458,-0.008 -0.0946,-0.0257 v -0.1338 q 0.0415,0.0255 0.0853,0.0384 0.044,0.0129 0.0891,0.0129 0.0408,0 0.0615,-0.0146 0.0205,-0.0145 0.0205,-0.0425 0,-0.0236 -0.0146,-0.0349 -0.0146,-0.0129 -0.0564,-0.0182 l -0.0245,-0.003 q -0.0929,-0.0146 -0.13042,-0.0547 -0.0375,-0.0398 -0.0375,-0.1212 0,-0.0876 0.0475,-0.12993 0.0474,-0.0425 0.14542,-0.0425 0.0385,0 0.081,0.008 0.0425,0.008 0.0919,0.0231 z"
         style="font-style:normal;font-variant:normal;font-weight:bold;font-stretch:normal;font-size:0.85424304px;line-height:307.99999237%;font-family:sans-serif;-inkscape-font-specification:'sans-serif Bold';text-align:center;letter-spacing:0px;word-spacing:0px;text-anchor:middle;fill:#000000;fill-opacity:1;stroke:none;stroke-width:0.2095895px;stroke-linecap:butt;stroke-linejoin:miter;stroke-opacity:1"
         id="path3092"
         inkscape:connector-curvature="0" />
      <path
         d="m 241.66297,231.64457 q -0.0463,0 -0.0708,0.0425 -0.0241,0.0418 -0.0241,0.12122 0,0.0794 0.0241,0.12169 0.0245,0.0418 0.0708,0.0418 0.0455,0 0.0697,-0.0418 0.0241,-0.0425 0.0241,-0.12169 0,-0.0793 -0.0241,-0.12122 -0.0241,-0.0425 -0.0697,-0.0425 z m 0,-0.12606 q 0.11233,0 0.17547,0.0768 0.0634,0.0768 0.0634,0.21275 0,0.1359 -0.0634,0.21274 -0.0631,0.0768 -0.17547,0.0768 -0.11282,0 -0.17662,-0.0768 -0.0634,-0.0768 -0.0634,-0.21274 0,-0.13589 0.0634,-0.21275 0.0639,-0.0768 0.17662,-0.0768 z"
         style="font-style:normal;font-variant:normal;font-weight:bold;font-stretch:normal;font-size:0.85424304px;line-height:307.99999237%;font-family:sans-serif;-inkscape-font-specification:'sans-serif Bold';text-align:center;letter-spacing:0px;word-spacing:0px;text-anchor:middle;fill:#000000;fill-opacity:1;stroke:none;stroke-width:0.2095895px;stroke-linecap:butt;stroke-linejoin:miter;stroke-opacity:1"
         id="path3094"
         inkscape:connector-curvature="0" />
      <path
         d="m 241.99872,231.86866 v -0.33688 h 0.13993 v 0.0552 q 0,0.0448 -4e-4,0.11265 -3.7e-4,0.0673 -3.7e-4,0.0901 0,0.0664 0.003,0.0961 0.003,0.029 0.01,0.0425 0.008,0.0173 0.0222,0.0266 0.0146,0.01 0.032,0.01 0.0436,0 0.0684,-0.0425 0.0249,-0.0425 0.0249,-0.11766 v -0.27233 h 0.13928 v 0.55156 h -0.13928 v -0.0798 q -0.0315,0.0483 -0.0669,0.0713 -0.0348,0.0227 -0.0775,0.0227 -0.0755,0 -0.11523,-0.0586 -0.0392,-0.0586 -0.0392,-0.1704 z"
         style="font-style:normal;font-variant:normal;font-weight:bold;font-stretch:normal;font-size:0.85424304px;line-height:307.99999237%;font-family:sans-serif;-inkscape-font-specification:'sans-serif Bold';text-align:center;letter-spacing:0px;word-spacing:0px;text-anchor:middle;fill:#000000;fill-opacity:1;stroke:none;stroke-width:0.2095895px;stroke-linecap:butt;stroke-linejoin:miter;stroke-opacity:1"
         id="path3096"
         inkscape:connector-curvature="0" />
      <path
         d="m 242.89509,231.682 q -0.0182,-0.0113 -0.0365,-0.0161 -0.0179,-0.007 -0.0362,-0.007 -0.0538,0 -0.0828,0.0439 -0.0289,0.0435 -0.0289,0.12459 v 0.25461 h -0.13929 v -0.55158 h 0.13929 v 0.0908 q 0.0269,-0.0542 0.0615,-0.0788 0.0348,-0.0252 0.0836,-0.0252 0.007,0 0.0161,9.9e-4 0.008,5e-4 0.0239,0.003 z"
         style="font-style:normal;font-variant:normal;font-weight:bold;font-stretch:normal;font-size:0.85424304px;line-height:307.99999237%;font-family:sans-serif;-inkscape-font-specification:'sans-serif Bold';text-align:center;letter-spacing:0px;word-spacing:0px;text-anchor:middle;fill:#000000;fill-opacity:1;stroke:none;stroke-width:0.2095895px;stroke-linecap:butt;stroke-linejoin:miter;stroke-opacity:1"
         id="path3098"
         inkscape:connector-curvature="0" />
      <path
         d="m 243.31722,231.54902 v 0.14365 q -0.0286,-0.0245 -0.0571,-0.0365 -0.0284,-0.0129 -0.0592,-0.0129 -0.0584,0 -0.0911,0.0435 -0.0322,0.0429 -0.0322,0.12023 0,0.0773 0.0322,0.12073 0.0327,0.043 0.0911,0.043 0.0327,0 0.0619,-0.0129 0.0295,-0.0129 0.0546,-0.0365 v 0.14429 q -0.0326,0.0161 -0.0665,0.0227 -0.0335,0.008 -0.0673,0.008 -0.11782,0 -0.18441,-0.0763 -0.0665,-0.0768 -0.0665,-0.21322 0,-0.13639 0.0665,-0.21276 0.0665,-0.0768 0.18441,-0.0768 0.0342,0 0.0673,0.008 0.0335,0.008 0.0665,0.0227 z"
         style="font-style:normal;font-variant:normal;font-weight:bold;font-stretch:normal;font-size:0.85424304px;line-height:307.99999237%;font-family:sans-serif;-inkscape-font-specification:'sans-serif Bold';text-align:center;letter-spacing:0px;word-spacing:0px;text-anchor:middle;fill:#000000;fill-opacity:1;stroke:none;stroke-width:0.2095895px;stroke-linecap:butt;stroke-linejoin:miter;stroke-opacity:1"
         id="path3100"
         inkscape:connector-curvature="0" />
      <path
         d="m 243.87317,231.80609 v 0.0502 h -0.32562 q 0.005,0.062 0.0353,0.0929 0.0304,0.031 0.0849,0.031 0.0441,0 0.0899,-0.0163 0.0463,-0.0168 0.0951,-0.05 v 0.1359 q -0.0496,0.0237 -0.0988,0.0355 -0.0494,0.0129 -0.0988,0.0129 -0.11815,0 -0.184,-0.0758 -0.0654,-0.0763 -0.0654,-0.21374 0,-0.13493 0.0641,-0.21225 0.0646,-0.0773 0.17742,-0.0773 0.10265,0 0.16418,0.0783 0.0618,0.0783 0.0618,0.20932 z m -0.14316,-0.0586 q 0,-0.0501 -0.0232,-0.0808 -0.0231,-0.031 -0.0604,-0.031 -0.0405,0 -0.0657,0.029 -0.0254,0.0285 -0.0315,0.0828 z"
         style="font-style:normal;font-variant:normal;font-weight:bold;font-stretch:normal;font-size:0.85424304px;line-height:307.99999237%;font-family:sans-serif;-inkscape-font-specification:'sans-serif Bold';text-align:center;letter-spacing:0px;word-spacing:0px;text-anchor:middle;fill:#000000;fill-opacity:1;stroke:none;stroke-width:0.2095895px;stroke-linecap:butt;stroke-linejoin:miter;stroke-opacity:1"
         id="path3102"
         inkscape:connector-curvature="0" />
      <path
         d="m 239.4711,232.65806 v 0.34698 h -0.14316 v -0.0564 -0.20808 q 0,-0.0749 -0.003,-0.10281 -0.003,-0.0281 -0.008,-0.0411 -0.008,-0.0179 -0.0227,-0.0274 -0.0145,-0.0113 -0.0326,-0.0113 -0.0443,0 -0.07,0.0443 -0.0254,0.0438 -0.0254,0.12169 v 0.28034 h -0.14235 v -0.79165 h 0.14235 v 0.30526 q 0.0323,-0.0497 0.0684,-0.0733 0.0362,-0.0239 0.0799,-0.0239 0.0772,0 0.11701,0.0606 0.0402,0.0605 0.0402,0.17603 z"
         style="font-style:normal;font-variant:normal;font-weight:bold;font-stretch:normal;font-size:0.87767267px;line-height:307.99999237%;font-family:sans-serif;-inkscape-font-specification:'sans-serif Bold';text-align:center;letter-spacing:0px;word-spacing:0px;text-anchor:middle;fill:#000000;fill-opacity:1;stroke:none;stroke-width:0.2095895px;stroke-linecap:butt;stroke-linejoin:miter;stroke-opacity:1"
         id="path3067"
         inkscape:connector-curvature="0" />
      <path
         d="m 239.80343,232.74862 q -0.0443,0 -0.0672,0.0192 -0.0222,0.0192 -0.0222,0.0569 0,0.0345 0.0181,0.0546 0.0182,0.0192 0.0504,0.0192 0.0402,0 0.0677,-0.0368 0.0276,-0.0371 0.0276,-0.0924 v -0.0208 z m 0.21744,-0.0687 v 0.32511 h -0.14348 v -0.0844 q -0.0287,0.0518 -0.0646,0.0758 -0.0358,0.0234 -0.087,0.0234 -0.0692,0 -0.1125,-0.0513 -0.043,-0.0518 -0.043,-0.13428 0,-0.10023 0.0538,-0.14703 0.0541,-0.0468 0.16933,-0.0468 h 0.084 v -0.0145 q 0,-0.0433 -0.0266,-0.0631 -0.0266,-0.0202 -0.0831,-0.0202 -0.0456,0 -0.0853,0.0129 -0.0392,0.0129 -0.0732,0.035 v -0.13896 q 0.0457,-0.0146 0.092,-0.0214 0.046,-0.008 0.0921,-0.008 0.1204,0 0.17373,0.061 0.0538,0.0605 0.0538,0.1974 z"
         style="font-style:normal;font-variant:normal;font-weight:bold;font-stretch:normal;font-size:0.87767267px;line-height:307.99999237%;font-family:sans-serif;-inkscape-font-specification:'sans-serif Bold';text-align:center;letter-spacing:0px;word-spacing:0px;text-anchor:middle;fill:#000000;fill-opacity:1;stroke:none;stroke-width:0.2095895px;stroke-linecap:butt;stroke-linejoin:miter;stroke-opacity:1"
         id="path3069"
         inkscape:connector-curvature="0" />
      <path
         d="m 240.48481,232.59039 q -0.0186,-0.0113 -0.0375,-0.0163 -0.0183,-0.007 -0.0371,-0.007 -0.0549,0 -0.0848,0.0452 -0.0294,0.0447 -0.0294,0.12864 v 0.26255 h -0.14235 v -0.56983 h 0.14235 v 0.0938 q 0.0276,-0.0559 0.0627,-0.0813 0.0358,-0.026 0.0856,-0.026 0.008,0 0.0161,9.8e-4 0.008,5e-4 0.0242,0.003 z"
         style="font-style:normal;font-variant:normal;font-weight:bold;font-stretch:normal;font-size:0.87767267px;line-height:307.99999237%;font-family:sans-serif;-inkscape-font-specification:'sans-serif Bold';text-align:center;letter-spacing:0px;word-spacing:0px;text-anchor:middle;fill:#000000;fill-opacity:1;stroke:none;stroke-width:0.2095895px;stroke-linecap:butt;stroke-linejoin:miter;stroke-opacity:1"
         id="path3071"
         inkscape:connector-curvature="0" />
      <path
         d="m 240.85926,232.51866 v -0.30528 h 0.14316 v 0.79166 h -0.14316 v -0.0823 q -0.0294,0.0504 -0.0649,0.0737 -0.0353,0.0234 -0.0818,0.0234 -0.0821,0 -0.13509,-0.0835 -0.0529,-0.084 -0.0529,-0.21573 0,-0.13186 0.0529,-0.21521 0.0529,-0.084 0.13509,-0.084 0.046,0 0.0815,0.0241 0.0358,0.0234 0.065,0.0733 z m -0.0937,0.36887 q 0.0456,0 0.0695,-0.0428 0.0242,-0.0428 0.0242,-0.12412 0,-0.0813 -0.0242,-0.12412 -0.0237,-0.0428 -0.0695,-0.0428 -0.0453,0 -0.0695,0.0428 -0.0237,0.0428 -0.0237,0.12412 0,0.0813 0.0237,0.12412 0.0242,0.0428 0.0695,0.0428 z"
         style="font-style:normal;font-variant:normal;font-weight:bold;font-stretch:normal;font-size:0.87767267px;line-height:307.99999237%;font-family:sans-serif;-inkscape-font-specification:'sans-serif Bold';text-align:center;letter-spacing:0px;word-spacing:0px;text-anchor:middle;fill:#000000;fill-opacity:1;stroke:none;stroke-width:0.2095895px;stroke-linecap:butt;stroke-linejoin:miter;stroke-opacity:1"
         id="path3073"
         inkscape:connector-curvature="0" />
      <path
         d="m 241.10016,232.43523 h 0.13848 l 0.0747,0.39278 0.0752,-0.39278 h 0.11879 l 0.0749,0.3887 0.0752,-0.3887 h 0.13848 l -0.11734,0.56981 h -0.15542 l -0.0752,-0.39175 -0.0749,0.39175 h -0.15543 z"
         style="font-style:normal;font-variant:normal;font-weight:bold;font-stretch:normal;font-size:0.87767267px;line-height:307.99999237%;font-family:sans-serif;-inkscape-font-specification:'sans-serif Bold';text-align:center;letter-spacing:0px;word-spacing:0px;text-anchor:middle;fill:#000000;fill-opacity:1;stroke:none;stroke-width:0.2095895px;stroke-linecap:butt;stroke-linejoin:miter;stroke-opacity:1"
         id="path3075"
         inkscape:connector-curvature="0" />
      <path
         d="m 242.09162,232.74862 q -0.0446,0 -0.0672,0.0192 -0.0223,0.0192 -0.0223,0.0569 0,0.0345 0.0181,0.0546 0.0182,0.0192 0.0504,0.0192 0.0402,0 0.0676,-0.0368 0.0276,-0.0371 0.0276,-0.0924 v -0.0208 z m 0.21744,-0.0687 v 0.32511 h -0.14365 v -0.0844 q -0.0287,0.0518 -0.0646,0.0758 -0.0358,0.0234 -0.087,0.0234 -0.0692,0 -0.11249,-0.0513 -0.043,-0.0518 -0.043,-0.13428 0,-0.10023 0.0538,-0.14703 0.0541,-0.0468 0.16934,-0.0468 h 0.0839 v -0.0145 q 0,-0.0433 -0.0267,-0.0631 -0.0266,-0.0202 -0.0831,-0.0202 -0.0456,0 -0.0853,0.0129 -0.0392,0.0129 -0.0732,0.035 v -0.13896 q 0.0456,-0.0146 0.0919,-0.0214 0.046,-0.008 0.0921,-0.008 0.1204,0 0.17375,0.061 0.0538,0.0605 0.0538,0.1974 z"
         style="font-style:normal;font-variant:normal;font-weight:bold;font-stretch:normal;font-size:0.87767267px;line-height:307.99999237%;font-family:sans-serif;-inkscape-font-specification:'sans-serif Bold';text-align:center;letter-spacing:0px;word-spacing:0px;text-anchor:middle;fill:#000000;fill-opacity:1;stroke:none;stroke-width:0.2095895px;stroke-linecap:butt;stroke-linejoin:miter;stroke-opacity:1"
         id="path3077"
         inkscape:connector-curvature="0" />
      <path
         d="m 242.77297,232.59039 q -0.0186,-0.0113 -0.0375,-0.0163 -0.0182,-0.007 -0.0371,-0.007 -0.0549,0 -0.0848,0.0452 -0.0294,0.0447 -0.0294,0.12864 v 0.26255 h -0.14235 v -0.56983 h 0.14235 v 0.0938 q 0.0276,-0.0559 0.0628,-0.0813 0.0358,-0.026 0.0856,-0.026 0.008,0 0.0161,9.8e-4 0.008,5e-4 0.0242,0.003 z"
         style="font-style:normal;font-variant:normal;font-weight:bold;font-stretch:normal;font-size:0.87767267px;line-height:307.99999237%;font-family:sans-serif;-inkscape-font-specification:'sans-serif Bold';text-align:center;letter-spacing:0px;word-spacing:0px;text-anchor:middle;fill:#000000;fill-opacity:1;stroke:none;stroke-width:0.2095895px;stroke-linecap:butt;stroke-linejoin:miter;stroke-opacity:1"
         id="path3079"
         inkscape:connector-curvature="0" />
      <path
         d="m 243.28896,232.71861 v 0.0518 h -0.33272 q 0.005,0.0642 0.0362,0.0962 0.031,0.0322 0.0866,0.0322 0.0448,0 0.092,-0.0169 0.0473,-0.0174 0.0969,-0.0518 v 0.14041 q -0.0503,0.0244 -0.10103,0.0368 -0.0503,0.0129 -0.10104,0.0129 -0.12088,0 -0.18802,-0.0785 -0.0667,-0.0788 -0.0667,-0.22082 0,-0.13929 0.0655,-0.21926 0.0659,-0.0799 0.1813,-0.0799 0.10491,0 0.16776,0.081 0.0631,0.0807 0.0631,0.21622 z m -0.14623,-0.0605 q 0,-0.0518 -0.0237,-0.0835 -0.0234,-0.0322 -0.0615,-0.0322 -0.0413,0 -0.0672,0.03 -0.026,0.0295 -0.0323,0.0856 z"
         style="font-style:normal;font-variant:normal;font-weight:bold;font-stretch:normal;font-size:0.87767267px;line-height:307.99999237%;font-family:sans-serif;-inkscape-font-specification:'sans-serif Bold';text-align:center;letter-spacing:0px;word-spacing:0px;text-anchor:middle;fill:#000000;fill-opacity:1;stroke:none;stroke-width:0.2095895px;stroke-linecap:butt;stroke-linejoin:miter;stroke-opacity:1"
         id="path3081"
         inkscape:connector-curvature="0" />
      <path
         id="path2"
         d="m 243.25327,229.09482 -0.5205,-0.0967 c -0.0129,-0.002 -0.0266,-0.0146 -0.0309,-0.0267 l -0.15963,-0.37221 c -0.007,-0.0113 -0.005,-0.0295 0.002,-0.0402 l 0.30326,-0.44204 c 0.008,-0.0113 0.007,-0.0267 -0.003,-0.0358 l -0.37879,-0.37881 c -0.01,-0.01 -0.0254,-0.0113 -0.0358,-0.003 l -0.44976,0.30867 c -0.0113,0.008 -0.0287,0.008 -0.0403,0.003 l -0.36083,-0.14768 c -0.0129,-0.005 -0.0241,-0.0177 -0.0266,-0.0304 l -0.10023,-0.53837 c -0.002,-0.0129 -0.0161,-0.0231 -0.0279,-0.0231 h -0.53574 c -0.0129,0 -0.0254,0.0113 -0.0277,0.0231 l -0.10023,0.53837 c -0.002,0.0129 -0.0146,0.0264 -0.0266,0.0304 l -0.36088,0.14768 c -0.0113,0.007 -0.0299,0.005 -0.0405,-0.003 l -0.44977,-0.30867 c -0.0113,-0.008 -0.0269,-0.007 -0.0358,0.003 l -0.37882,0.37881 c -0.01,0.01 -0.0113,0.0254 -0.003,0.0358 l 0.30329,0.44204 c 0.008,0.0113 0.008,0.0287 0.002,0.0402 l -0.15962,0.37221 c -0.005,0.0129 -0.0183,0.0241 -0.0309,0.0267 l -0.52051,0.0967 c -0.0129,0.002 -0.0232,0.0161 -0.0232,0.0277 l 4e-5,0.53573 c 0,0.0129 0.0113,0.0255 0.0231,0.0279 l 0.50772,0.0944 c 0.0129,0.002 0.0264,0.0146 0.03,0.0267 l 0.15849,0.39595 c 0.007,0.0113 0.005,0.0297 -0.003,0.0403 l -0.2884,0.42028 c -0.008,0.0113 -0.007,0.0268 0.003,0.036 l 0.37884,0.37878 c 0.01,0.01 0.0252,0.0113 0.0358,0.003 l 0.41283,-0.28337 c 0.0113,-0.008 0.0285,-0.008 0.0395,-9.8e-4 l 0.18206,0.0971 c 0.0113,0.007 0.025,7.5e-4 0.0299,-0.0113 l 0.3754,-0.90708 c 0.005,-0.0129 0,-0.0272 -0.0113,-0.0337 l -0.0455,-0.0279 c -0.008,-0.005 -0.0199,-0.0145 -0.0289,-0.0221 -0.16436,-0.10523 -0.27342,-0.28937 -0.27342,-0.49906 0,-0.32721 0.26527,-0.59244 0.59245,-0.59244 0.3272,0 0.59243,0.26523 0.59243,0.59244 0,0.20969 -0.10894,0.39381 -0.27341,0.49906 -0.008,0.008 -0.0203,0.0171 -0.0289,0.0221 l -0.0455,0.0279 c -0.0113,0.007 -0.0161,0.0219 -0.0113,0.0337 l 0.37538,0.90712 c 0.005,0.0129 0.0183,0.0169 0.0299,0.0113 l 0.18205,-0.0971 c 0.0113,-0.007 0.0289,-0.007 0.0395,9.8e-4 l 0.41287,0.28336 c 0.0113,0.008 0.0269,0.007 0.0358,-0.003 l 0.37885,-0.37877 c 0.01,-0.01 0.0113,-0.0254 0.003,-0.036 l -0.28842,-0.42026 c -0.008,-0.0113 -0.008,-0.0289 -0.003,-0.0405 l 0.1585,-0.39595 c 0.003,-0.0129 0.0174,-0.0244 0.03,-0.0267 l 0.50773,-0.0944 c 0.0129,-0.002 0.0231,-0.0161 0.0231,-0.0279 l 7e-5,-0.53571 c 5e-5,-0.0129 -0.0113,-0.0254 -0.0231,-0.0279"
         style="fill:#1a1a1a;stroke-width:0.2095895"
         inkscape:connector-curvature="0" />
    </g>
  </g>
</svg>
